<svg width="62" height="52" viewBox="0 0 62 52" fill="none" xmlns="http://www.w3.org/2000/svg">
<path d="M32.9564 32.5366L39.3264 23.7637C43.2275 18.391 42.0197 10.8935 36.6286 7.01773V7.01773C31.2375 3.14195 23.7047 4.35549 19.8036 9.72825L13.4336 18.5012M32.9564 32.5366L26.5865 41.3095C22.6853 46.6823 15.1525 47.8958 9.76143 44.02V44.02C4.37035 40.1443 3.16251 32.6468 7.06365 27.2741L13.4336 18.5012M32.9564 32.5366L13.4336 18.5012" stroke="#B19578" stroke-width="2"/>
<path d="M44.1424 37.0903H57.9333M60.7866 37.0903C60.7866 42.4478 56.422 46.7909 51.0379 46.7909C45.6537 46.7909 41.2891 42.4478 41.2891 37.0903C41.2891 31.7329 45.6537 27.3898 51.0379 27.3898C56.422 27.3898 60.7866 31.7329 60.7866 37.0903Z" stroke="#B19578" stroke-width="2" stroke-linecap="round"/>
</svg>
