<svg width="229" height="229" viewBox="0 0 229 229" fill="none" xmlns="http://www.w3.org/2000/svg">
<path d="M128.244 14.0565L146.548 37.8373L176.369 34.4845L180.33 64.2312L207.833 76.2383L196.39 103.98L214.204 128.13L190.423 146.434L193.776 176.255L164.029 180.217L152.022 207.719L124.28 196.276L100.131 214.091L81.8268 190.31L52.0053 193.663L48.0442 163.916L20.5416 151.909L31.9845 124.167L14.1701 100.017L37.9509 81.7132L34.5981 51.8917L64.3448 47.9306L76.3519 20.428L104.094 31.8709L128.244 14.0565Z" fill="#B19578"/>
<circle cx="113.54" cy="114.562" r="50.8693" transform="rotate(8 113.54 114.562)" stroke="white" stroke-width="5"/>
<rect x="56.0087" y="82.7168" width="121.659" height="44.7614" transform="rotate(8 56.0087 82.7168)" fill="#B19578"/>
<path d="M66.2695 97.5401L63.4814 117.378L59.8877 116.873L62.1843 100.532L62.0681 100.516L57.0116 102.828L57.4745 99.5341L62.8501 97.0595L66.2695 97.5401Z" fill="white"/>
<path d="M68.6773 114.355L69.0789 111.497L79.3657 99.3807L81.7486 99.7155L81.1768 103.784L79.7239 103.58L72.7952 111.763L72.7735 111.918L84.5233 113.569L84.108 116.523L68.6773 114.355ZM77.6238 119.366L78.2636 114.813L78.4821 113.54L80.4506 99.5331L83.8409 100.01L81.0528 119.848L77.6238 119.366Z" fill="white"/>
<path d="M103.165 102.449C104.113 102.589 105.013 102.886 105.865 103.342C106.723 103.792 107.463 104.436 108.082 105.274C108.703 106.105 109.14 107.164 109.394 108.451C109.648 109.738 109.648 111.285 109.394 113.093C109.16 114.799 108.765 116.298 108.208 117.589C107.659 118.875 106.98 119.932 106.172 120.76C105.365 121.589 104.449 122.178 103.425 122.528C102.401 122.878 101.292 122.969 100.097 122.801C98.8445 122.625 97.7682 122.223 96.8686 121.596C95.9753 120.97 95.2916 120.189 94.8173 119.253C94.3429 118.318 94.1151 117.291 94.1338 116.174L97.6694 116.671C97.7395 117.484 98.0196 118.163 98.5096 118.706C99.007 119.243 99.6819 119.572 100.534 119.691C101.91 119.885 103.053 119.436 103.963 118.346C104.874 117.256 105.478 115.648 105.777 113.524L105.641 113.505C105.245 114.028 104.766 114.461 104.204 114.804C103.643 115.14 103.028 115.373 102.358 115.503C101.694 115.633 101.007 115.649 100.297 115.549C99.1342 115.385 98.1271 114.961 97.2752 114.275C96.4298 113.59 95.804 112.725 95.3977 111.68C94.9978 110.636 94.8822 109.49 95.0509 108.243C95.2325 106.951 95.6924 105.834 96.4308 104.891C97.1766 103.942 98.1272 103.246 99.2827 102.802C100.439 102.352 101.733 102.234 103.165 102.449ZM102.766 105.356C102.069 105.258 101.415 105.341 100.805 105.604C100.203 105.862 99.6991 106.259 99.2945 106.794C98.8973 107.325 98.6488 107.945 98.549 108.655C98.4565 109.36 98.5249 110.022 98.7541 110.64C98.9897 111.259 99.3552 111.775 99.8505 112.187C100.352 112.6 100.955 112.856 101.659 112.955C102.182 113.028 102.684 112.997 103.164 112.86C103.644 112.723 104.077 112.501 104.463 112.193C104.856 111.879 105.178 111.507 105.43 111.074C105.688 110.643 105.85 110.172 105.915 109.661C106.01 108.983 105.937 108.334 105.695 107.714C105.459 107.094 105.088 106.571 104.582 106.145C104.082 105.719 103.477 105.456 102.766 105.356Z" fill="white"/>
<path d="M120.853 104.935C121.801 105.075 122.701 105.372 123.552 105.828C124.411 106.278 125.15 106.922 125.77 107.759C126.391 108.591 126.828 109.65 127.082 110.937C127.335 112.224 127.335 113.771 127.081 115.579C126.848 117.285 126.453 118.784 125.896 120.075C125.347 121.361 124.668 122.418 123.86 123.246C123.052 124.074 122.136 124.663 121.113 125.013C120.089 125.363 118.98 125.455 117.785 125.287C116.532 125.111 115.456 124.709 114.556 124.082C113.663 123.456 112.979 122.675 112.505 121.739C112.031 120.803 111.803 119.777 111.821 118.66L115.357 119.157C115.427 119.97 115.707 120.648 116.197 121.191C116.695 121.729 117.37 122.057 118.222 122.177C119.597 122.371 120.74 121.922 121.651 120.832C122.562 119.741 123.166 118.134 123.465 116.009L123.329 115.99C122.933 116.514 122.454 116.947 121.892 117.29C121.331 117.626 120.716 117.859 120.045 117.988C119.382 118.119 118.695 118.134 117.984 118.035C116.822 117.871 115.815 117.447 114.963 116.761C114.118 116.075 113.492 115.21 113.085 114.165C112.685 113.121 112.57 111.976 112.739 110.729C112.92 109.437 113.38 108.32 114.119 107.376C114.864 106.428 115.815 105.731 116.97 105.288C118.127 104.838 119.421 104.72 120.853 104.935ZM120.454 107.842C119.757 107.744 119.103 107.827 118.493 108.09C117.89 108.348 117.387 108.744 116.982 109.28C116.585 109.811 116.337 110.431 116.237 111.141C116.144 111.846 116.213 112.508 116.442 113.126C116.677 113.745 117.043 114.261 117.538 114.673C118.04 115.086 118.643 115.342 119.347 115.441C119.87 115.514 120.371 115.482 120.851 115.346C121.332 115.209 121.765 114.987 122.15 114.679C122.543 114.365 122.866 113.992 123.117 113.56C123.376 113.129 123.537 112.658 123.603 112.147C123.698 111.469 123.624 110.82 123.382 110.2C123.147 109.58 122.776 109.057 122.269 108.631C121.769 108.205 121.164 107.942 120.454 107.842Z" fill="white"/>
<path d="M138.54 107.421C139.489 107.56 140.389 107.858 141.24 108.314C142.099 108.764 142.838 109.407 143.458 110.245C144.078 111.077 144.516 112.136 144.769 113.423C145.023 114.709 145.023 116.257 144.769 118.065C144.536 119.771 144.141 121.269 143.584 122.561C143.034 123.847 142.356 124.904 141.548 125.732C140.74 126.56 139.824 127.149 138.8 127.499C137.777 127.849 136.667 127.94 135.473 127.772C134.22 127.596 133.144 127.195 132.244 126.568C131.351 125.942 130.667 125.161 130.193 124.225C129.718 123.289 129.49 122.263 129.509 121.146L133.045 121.643C133.115 122.456 133.395 123.134 133.885 123.677C134.382 124.215 135.057 124.543 135.91 124.663C137.285 124.856 138.428 124.408 139.339 123.318C140.249 122.227 140.854 120.62 141.152 118.495L141.017 118.476C140.62 119 140.141 119.433 139.58 119.776C139.019 120.112 138.403 120.345 137.733 120.474C137.069 120.605 136.382 120.62 135.672 120.52C134.51 120.357 133.502 119.932 132.651 119.246C131.805 118.561 131.179 117.696 130.773 116.651C130.373 115.607 130.258 114.462 130.426 113.214C130.608 111.923 131.068 110.805 131.806 109.862C132.552 108.913 133.503 108.217 134.658 107.774C135.814 107.324 137.109 107.206 138.54 107.421ZM138.142 110.328C137.444 110.23 136.791 110.312 136.181 110.576C135.578 110.834 135.074 111.23 134.67 111.766C134.273 112.296 134.024 112.917 133.924 113.627C133.832 114.332 133.9 114.993 134.129 115.612C134.365 116.231 134.731 116.747 135.226 117.159C135.728 117.572 136.33 117.827 137.034 117.926C137.557 118 138.059 117.968 138.539 117.832C139.019 117.695 139.452 117.473 139.838 117.165C140.231 116.851 140.553 116.478 140.805 116.046C141.063 115.615 141.225 115.144 141.29 114.633C141.386 113.955 141.312 113.305 141.07 112.685C140.834 112.066 140.463 111.543 139.957 111.116C139.457 110.691 138.852 110.428 138.142 110.328Z" fill="white"/>
<path d="M164.143 123.909L153.749 122.449L154.164 119.494L164.481 120.944C165.314 121.061 166.017 121.025 166.59 120.836C167.17 120.647 167.622 120.335 167.946 119.9C168.277 119.466 168.484 118.932 168.567 118.298C168.66 117.679 168.609 117.106 168.413 116.578C168.225 116.044 167.886 115.598 167.396 115.239C166.914 114.875 166.269 114.637 165.462 114.523L161.568 113.976L159.199 130.83L155.615 130.327L158.403 110.489L165.881 111.54C167.418 111.756 168.68 112.216 169.668 112.921C170.656 113.62 171.359 114.479 171.775 115.499C172.199 116.514 172.329 117.605 172.164 118.774C171.994 119.988 171.563 121.017 170.871 121.862C170.18 122.7 169.265 123.306 168.126 123.679C166.988 124.046 165.66 124.123 164.143 123.909ZM164.391 125.446L163.976 128.4L153.127 126.875L153.542 123.921L164.391 125.446Z" fill="white"/>
</svg>
