<svg width="230" height="229" viewBox="0 0 230 229" fill="none" xmlns="http://www.w3.org/2000/svg">
<path d="M129.017 14.0565L147.321 37.8373L177.142 34.4845L181.104 64.2312L208.606 76.2383L197.163 103.98L214.978 128.13L191.197 146.434L194.55 176.255L164.803 180.217L152.796 207.719L125.054 196.276L100.904 214.091L82.6002 190.31L52.7788 193.663L48.8176 163.916L21.315 151.909L32.7579 124.167L14.9435 100.017L38.7244 81.7132L35.3715 51.8917L65.1183 47.9306L77.1253 20.428L104.867 31.8709L129.017 14.0565Z" fill="#B19578"/>
<circle cx="114.315" cy="114.562" r="50.8693" transform="rotate(8 114.315 114.562)" stroke="white" stroke-width="5"/>
<rect x="56.7812" y="82.7168" width="121.659" height="44.7614" transform="rotate(8 56.7812 82.7168)" fill="#B19578"/>
<path d="M94.2472 128.971C91.6356 128.604 89.488 127.621 87.8043 126.022C86.1327 124.414 84.9727 122.273 84.3242 119.599C83.6878 116.915 83.6212 113.784 84.1244 110.203C84.6382 106.624 85.5685 103.649 86.9153 101.277C88.2742 98.8962 89.9773 97.1738 92.0244 96.1101C94.0821 95.0479 96.4114 94.6995 99.0124 95.0651C101.613 95.4306 103.756 96.4075 105.442 97.9958C107.127 99.584 108.289 101.709 108.928 104.371C109.578 107.034 109.653 110.151 109.151 113.721C108.646 117.312 107.713 120.308 106.351 122.711C105.001 125.104 103.297 126.837 101.237 127.91C99.1888 128.984 96.8588 129.338 94.2472 128.971ZM94.9524 123.953C96.9824 124.239 98.7262 123.454 100.184 121.599C101.653 119.735 102.665 116.831 103.219 112.887C103.586 110.279 103.624 108.05 103.334 106.2C103.044 104.351 102.471 102.908 101.614 101.872C100.758 100.825 99.659 100.207 98.3162 100.019C96.2967 99.7349 94.5575 100.526 93.0985 102.391C91.641 104.246 90.6321 107.129 90.0718 111.039C89.6932 113.656 89.6428 115.894 89.9207 117.753C90.209 119.614 90.7811 121.067 91.6367 122.114C92.4938 123.15 93.599 123.763 94.9524 123.953Z" fill="white"/>
<path d="M130.349 127.13L130.592 125.398C130.771 124.126 131.2 122.993 131.879 121.999C132.568 121.006 133.472 120.256 134.589 119.748C135.706 119.24 136.994 119.089 138.453 119.294C139.955 119.505 141.167 120.007 142.09 120.802C143.015 121.586 143.662 122.549 144.03 123.69C144.408 124.833 144.507 126.046 144.327 127.329L144.084 129.06C143.905 130.332 143.476 131.465 142.797 132.459C142.118 133.454 141.22 134.205 140.103 134.713C138.996 135.222 137.703 135.373 136.223 135.165C134.743 134.957 133.535 134.454 132.601 133.658C131.668 132.862 131.011 131.893 130.633 130.75C130.265 129.608 130.17 128.401 130.349 127.13ZM134.732 125.98L134.489 127.711C134.37 128.556 134.462 129.359 134.764 130.121C135.067 130.882 135.726 131.335 136.741 131.477C137.767 131.622 138.519 131.373 138.997 130.732C139.487 130.081 139.792 129.329 139.913 128.474L140.156 126.742C140.276 125.887 140.201 125.081 139.93 124.324C139.66 123.556 138.997 123.097 137.94 122.949C136.946 122.809 136.192 123.068 135.679 123.726C135.168 124.374 134.852 125.125 134.732 125.98ZM116.48 106.021L116.723 104.289C116.903 103.007 117.338 101.869 118.028 100.876C118.717 99.8833 119.62 99.1383 120.735 98.6412C121.853 98.1334 123.141 97.982 124.6 98.1871C126.091 98.3966 127.298 98.8986 128.221 99.6932C129.157 100.479 129.808 101.442 130.176 102.584C130.544 103.725 130.638 104.937 130.458 106.22L130.214 107.951C130.034 109.234 129.604 110.372 128.926 111.366C128.259 112.352 127.368 113.093 126.252 113.59C125.136 114.087 123.843 114.232 122.374 114.026C120.883 113.816 119.67 113.319 118.734 112.534C117.81 111.75 117.158 110.786 116.779 109.643C116.401 108.5 116.301 107.293 116.48 106.021ZM120.894 104.876L120.651 106.607C120.531 107.462 120.617 108.27 120.909 109.03C121.213 109.781 121.873 110.228 122.888 110.371C123.903 110.513 124.649 110.264 125.127 109.623C125.618 108.973 125.923 108.22 126.043 107.365L126.287 105.634C126.407 104.779 126.331 103.972 126.06 103.215C125.791 102.447 125.133 101.989 124.086 101.842C123.082 101.701 122.328 101.96 121.826 102.62C121.323 103.279 121.013 104.031 120.894 104.876ZM114.782 131.219L141.727 101.526L145.692 102.083L118.747 131.777L114.782 131.219Z" fill="white"/>
</svg>
