<svg width="141" height="141" viewBox="0 0 141 141" fill="none" xmlns="http://www.w3.org/2000/svg">
<path d="M79.3966 8.62873L90.6327 23.2269L108.939 21.1687L111.371 39.4291L128.253 46.7997L121.229 63.8295L132.165 78.6541L117.566 89.8901L119.625 108.196L101.364 110.628L93.9935 127.511L76.9637 120.486L62.1392 131.422L50.9031 116.824L32.5969 118.882L30.1653 100.622L13.2825 93.251L20.3068 76.2212L9.37127 61.3966L23.9694 50.1606L21.9112 31.8543L40.1716 29.4227L47.5423 12.54L64.5721 19.5643L79.3966 8.62873Z" fill="#B19578"/>
<circle cx="70.3694" cy="70.325" r="31.2614" transform="rotate(8 70.3694 70.325)" stroke="white" stroke-width="3"/>
<rect x="35.0547" y="50.7769" width="74.6818" height="27.4773" transform="rotate(8 35.0547 50.7769)" fill="#B19578"/>
<path d="M41.3522 59.8764L39.6407 72.0542L37.4347 71.7442L38.8445 61.7129L38.7731 61.7029L35.6692 63.1221L35.9533 61.1004L39.2532 59.5814L41.3522 59.8764Z" fill="white"/>
<path d="M42.8303 70.1983L43.0768 68.4441L49.3915 61.0062L50.8542 61.2118L50.5033 63.7092L49.6113 63.5838L45.3581 68.6071L45.3447 68.7022L52.5575 69.7159L52.3026 71.5295L42.8303 70.1983ZM48.3222 73.2743L48.715 70.4796L48.8491 69.698L50.0575 61.0998L52.1386 61.3923L50.4271 73.5701L48.3222 73.2743Z" fill="white"/>
<path d="M64.0009 62.8897C64.5831 62.9755 65.1355 63.1583 65.6581 63.4379C66.1852 63.7141 66.639 64.1093 67.0195 64.6236C67.4005 65.134 67.6689 65.7841 67.8247 66.5741C67.9805 67.364 67.9804 68.314 67.8244 69.424C67.6813 70.4711 67.4388 71.391 67.0969 72.1838C66.7596 72.9732 66.343 73.622 65.8471 74.1304C65.3512 74.6388 64.789 75.0004 64.1605 75.2153C63.5321 75.4301 62.8511 75.486 62.1178 75.3829C61.3487 75.2749 60.6881 75.0284 60.1358 74.6435C59.5875 74.2593 59.1677 73.7799 58.8766 73.2053C58.5854 72.6308 58.4456 72.0008 58.457 71.3151L60.6274 71.6202C60.6704 72.1194 60.8423 72.5357 61.1431 72.869C61.4485 73.1989 61.8628 73.4007 62.386 73.4742C63.2304 73.5929 63.932 73.3176 64.491 72.6483C65.0499 71.979 65.4211 70.9922 65.6043 69.688L65.5211 69.6763C65.2778 69.9979 64.9838 70.2638 64.6389 70.474C64.2946 70.6803 63.9168 70.8232 63.5054 70.9029C63.0979 70.983 62.6762 70.9925 62.2401 70.9312C61.5266 70.8309 60.9084 70.5702 60.3854 70.1491C59.8665 69.7285 59.4823 69.1975 59.2329 68.5561C58.9874 67.9152 58.9165 67.212 59.02 66.4463C59.1315 65.6535 59.4138 64.9676 59.8671 64.3885C60.3249 63.8061 60.9085 63.3787 61.6178 63.1065C62.3276 62.8303 63.122 62.758 64.0009 62.8897ZM63.7562 64.6744C63.328 64.6142 62.9268 64.6649 62.5524 64.8265C62.1825 64.9848 61.8734 65.2283 61.625 65.5573C61.3812 65.8828 61.2286 66.2635 61.1674 66.6996C61.1106 67.1322 61.1526 67.5383 61.2932 67.9179C61.4379 68.298 61.6622 68.6145 61.9663 68.8675C62.2742 69.121 62.6443 69.2781 63.0764 69.3388C63.3975 69.3839 63.7054 69.3645 64.0002 69.2806C64.2949 69.1968 64.5607 69.0603 64.7975 68.8712C65.0388 68.6788 65.2367 68.4499 65.3912 68.1846C65.5497 67.9198 65.6489 67.6306 65.689 67.3169C65.7475 66.9006 65.7024 66.5022 65.5538 66.1215C65.4091 65.7414 65.1814 65.4204 64.8706 65.1584C64.5637 64.897 64.1922 64.7356 63.7562 64.6744Z" fill="white"/>
<path d="M74.8587 64.4156C75.4409 64.5015 75.9933 64.6842 76.5159 64.9638C77.043 65.24 77.4968 65.6353 77.8773 66.1496C78.2583 66.6599 78.5267 67.3101 78.6825 68.1001C78.8383 68.89 78.8382 69.84 78.6822 70.9499C78.539 71.997 78.2966 72.917 77.9547 73.7097C77.6174 74.4991 77.2008 75.148 76.7049 75.6564C76.209 76.1647 75.6468 76.5264 75.0183 76.7412C74.3898 76.9561 73.7089 77.012 72.9756 76.9089C72.2065 76.8008 71.5459 76.5544 70.9936 76.1695C70.4453 75.7852 70.0255 75.3058 69.7344 74.7313C69.4432 74.1568 69.3034 73.5267 69.3148 72.8411L71.4852 73.1461C71.5282 73.6454 71.7001 74.0616 72.0009 74.395C72.3063 74.7249 72.7205 74.9266 73.2438 75.0002C74.0882 75.1188 74.7898 74.8435 75.3488 74.1742C75.9077 73.5049 76.2788 72.5182 76.4621 71.214L76.3789 71.2023C76.1356 71.5238 75.8416 71.7897 75.4967 72C75.1524 72.2062 74.7745 72.3492 74.3631 72.4288C73.9557 72.509 73.534 72.5185 73.0979 72.4572C72.3844 72.3569 71.7661 72.0962 71.2432 71.675C70.7243 71.2545 70.3401 70.7235 70.0907 70.082C69.8452 69.4412 69.7743 68.7379 69.8778 67.9723C69.9892 67.1795 70.2716 66.4935 70.7249 65.9145C71.1827 65.332 71.7662 64.9047 72.4755 64.6325C73.1854 64.3563 73.9798 64.284 74.8587 64.4156ZM74.614 66.2003C74.1858 66.1401 73.7846 66.1909 73.4102 66.3525C73.0403 66.5107 72.7311 66.7543 72.4828 67.0832C72.239 67.4087 72.0864 67.7895 72.0251 68.2256C71.9684 68.6582 72.0103 69.0643 72.151 69.4439C72.2957 69.824 72.52 70.1405 72.824 70.3934C73.132 70.6469 73.5021 70.804 73.9342 70.8647C74.2553 70.9099 74.5632 70.8905 74.8579 70.8066C75.1527 70.7227 75.4185 70.5862 75.6552 70.3972C75.8965 70.2047 76.0945 69.9758 76.249 69.7105C76.4074 69.4458 76.5067 69.1566 76.5468 68.8428C76.6053 68.4266 76.5602 68.0282 76.4116 67.6475C76.2669 67.2674 76.0392 66.9463 75.7283 66.6844C75.4215 66.4229 75.05 66.2616 74.614 66.2003Z" fill="white"/>
<path d="M85.7165 65.9416C86.2987 66.0274 86.8511 66.2102 87.3737 66.4898C87.9008 66.766 88.3546 67.1612 88.735 67.6756C89.1161 68.1859 89.3845 68.8361 89.5403 69.626C89.696 70.416 89.6959 71.3659 89.5399 72.4759C89.3968 73.523 89.1543 74.4429 88.8125 75.2357C88.4752 76.0251 88.0586 76.674 87.5627 77.1823C87.0668 77.6907 86.5046 78.0523 85.8761 78.2672C85.2476 78.482 84.5667 78.5379 83.8333 78.4349C83.0643 78.3268 82.4036 78.0803 81.8514 77.6955C81.303 77.3112 80.8833 76.8318 80.5921 76.2573C80.301 75.6827 80.1611 75.0527 80.1726 74.3671L82.343 74.6721C82.386 75.1713 82.5579 75.5876 82.8587 75.9209C83.164 76.2509 83.5783 76.4526 84.1016 76.5261C84.946 76.6448 85.6476 76.3695 86.2066 75.7002C86.7655 75.0309 87.1366 74.0441 87.3199 72.7399L87.2367 72.7282C86.9934 73.0498 86.6993 73.3157 86.3545 73.5259C86.0102 73.7322 85.6323 73.8752 85.2209 73.9548C84.8135 74.035 84.3918 74.0444 83.9557 73.9831C83.2422 73.8829 82.6239 73.6221 82.101 73.201C81.582 72.7804 81.1979 72.2494 80.9484 71.608C80.703 70.9671 80.632 70.2639 80.7356 69.4982C80.847 68.7054 81.1294 68.0195 81.5827 67.4404C82.0405 66.858 82.624 66.4307 83.3333 66.1584C84.0432 65.8823 84.8376 65.81 85.7165 65.9416ZM85.4717 67.7263C85.0436 67.6661 84.6423 67.7168 84.2679 67.8785C83.898 68.0367 83.5889 68.2803 83.3406 68.6092C83.0968 68.9347 82.9442 69.3155 82.8829 69.7515C82.8262 70.1842 82.8681 70.5903 83.0088 70.9698C83.1535 71.3499 83.3778 71.6665 83.6818 71.9194C83.9898 72.1729 84.3598 72.33 84.7919 72.3907C85.113 72.4358 85.421 72.4165 85.7157 72.3326C86.0105 72.2487 86.2763 72.1122 86.513 71.9231C86.7543 71.7307 86.9522 71.5018 87.1067 71.2365C87.2652 70.9718 87.3645 70.6825 87.4045 70.3688C87.463 69.9526 87.418 69.5541 87.2694 69.1735C87.1247 68.7933 86.897 68.4723 86.5861 68.2103C86.2793 67.9489 85.9078 67.7876 85.4717 67.7263Z" fill="white"/>
<path d="M101.433 76.0635L95.0526 75.1668L95.3075 73.3532L101.64 74.2432C102.152 74.315 102.583 74.2928 102.935 74.1765C103.291 74.0608 103.568 73.8694 103.768 73.6023C103.971 73.3358 104.098 73.008 104.148 72.6189C104.206 72.2389 104.174 71.8869 104.054 71.5627C103.939 71.2352 103.731 70.9614 103.43 70.7413C103.134 70.5178 102.738 70.3712 102.243 70.3016L99.8523 69.9656L98.3982 80.312L96.1981 80.0028L97.9096 67.825L102.5 68.4701C103.444 68.6027 104.218 68.8854 104.825 69.3183C105.431 69.7472 105.862 70.2747 106.118 70.9008C106.378 71.5235 106.458 72.1936 106.357 72.9111C106.252 73.6564 105.988 74.2882 105.563 74.8066C105.139 75.3211 104.577 75.6929 103.878 75.922C103.18 76.1472 102.364 76.1944 101.433 76.0635ZM101.585 77.0066L101.33 78.8201L94.6707 77.8842L94.9256 76.0706L101.585 77.0066Z" fill="white"/>
</svg>
