<svg width="94" height="35" viewBox="0 0 94 35" fill="none" xmlns="http://www.w3.org/2000/svg">
<path d="M44.8388 7.7529V9.23304C44.8388 9.40484 44.8388 9.55902 44.841 9.69778C44.8432 9.83654 44.8454 9.95989 44.8476 10.0722C44.8498 10.1603 44.8873 10.2176 44.9602 10.2396L45.4395 10.3806L45.4527 10.5656C45.1104 10.5568 44.7681 10.5524 44.4257 10.5524C44.0768 10.5524 43.7212 10.5568 43.3546 10.5656L43.3369 10.3806L43.867 10.222C43.9399 10.2022 43.9774 10.1581 43.984 10.0876C43.9862 9.9731 43.9884 9.84535 43.9907 9.70219C43.9929 9.56122 43.9929 9.40264 43.9929 9.23083V5.74194C43.9929 5.59437 43.9929 5.46442 43.9907 5.34548C43.9884 5.22874 43.9862 5.12082 43.984 5.0261C43.9818 4.95122 43.9465 4.90276 43.8802 4.88073L43.3457 4.71334L43.3369 4.52832C43.5269 4.53493 43.7102 4.53933 43.8846 4.54154C44.0591 4.54374 44.2336 4.54594 44.4059 4.54594C44.5781 4.54594 44.7482 4.54374 44.9183 4.54154C45.0861 4.53933 45.2562 4.53493 45.4307 4.52832L45.4527 4.71334L44.9602 4.86311C44.8873 4.88073 44.8498 4.92479 44.8476 4.99747C44.8454 5.10099 44.8432 5.21332 44.841 5.33226C44.8388 5.4534 44.8388 5.58336 44.8388 5.72432V7.37185H45.2915C45.424 7.37185 45.5433 7.36745 45.6471 7.35864C45.7531 7.34983 45.8481 7.33001 45.9364 7.29697C46.0248 7.26393 46.1043 7.21767 46.1727 7.1538C46.2434 7.09213 46.3097 7.00843 46.3715 6.9027C46.4334 6.79698 46.4908 6.66703 46.546 6.51064C46.6012 6.35646 46.6564 6.16704 46.7139 5.94678C46.7713 5.71771 46.8221 5.52169 46.8662 5.3609C46.9104 5.20011 46.9546 5.06795 46.9988 4.96223C47.0429 4.85651 47.0871 4.77501 47.1335 4.71774C47.1799 4.65827 47.2329 4.61642 47.2925 4.58779C47.3521 4.56136 47.425 4.54374 47.5089 4.53713C47.5929 4.53052 47.6923 4.52832 47.8115 4.52832C48.0567 4.52832 48.3195 4.53933 48.6022 4.56356L48.6199 4.83007C48.4211 4.83668 48.2532 4.86532 48.1163 4.91818C47.9794 4.97104 47.8623 5.04813 47.7629 5.14725C47.6635 5.24636 47.5752 5.3675 47.5001 5.51287C47.4228 5.65825 47.3455 5.82124 47.2638 6.00625C47.2042 6.14061 47.1423 6.27497 47.0783 6.40712C47.0142 6.53928 46.948 6.66483 46.8751 6.78376C46.8022 6.9027 46.7249 7.01283 46.641 7.11195C46.557 7.21327 46.4621 7.29917 46.3583 7.36965C46.5659 7.67361 46.7558 7.97096 46.9281 8.2617C47.1004 8.55244 47.2594 8.81895 47.4074 9.06344C47.5465 9.2903 47.6702 9.48854 47.785 9.66254C47.8977 9.83434 48.0037 9.9687 48.1031 10.0678C48.1539 10.1163 48.2047 10.1581 48.2532 10.1934C48.3018 10.2286 48.3526 10.2572 48.4034 10.2815C48.4542 10.3057 48.5094 10.3277 48.5669 10.3431C48.6243 10.3608 48.6905 10.3784 48.7656 10.3938L48.7789 10.5832C48.5713 10.6097 48.399 10.6229 48.2621 10.6229C48.145 10.6229 48.0412 10.6207 47.9507 10.6141C47.8623 10.6074 47.7806 10.5964 47.7121 10.5788C47.6415 10.5612 47.5774 10.5392 47.5222 10.5127C47.467 10.4863 47.4118 10.4511 47.361 10.407C47.2307 10.3123 47.1026 10.1713 46.9767 9.98412C46.8508 9.7969 46.7183 9.57884 46.5791 9.32554C46.4665 9.12731 46.3516 8.92027 46.2368 8.70442C46.1197 8.48856 45.9939 8.27712 45.8547 8.06787C45.815 8.0084 45.7796 7.95774 45.7509 7.91589C45.7222 7.87404 45.6913 7.841 45.6581 7.81678C45.625 7.79255 45.5875 7.77493 45.5455 7.76612C45.5035 7.7551 45.4505 7.7507 45.3843 7.7507H44.8388V7.7529Z" fill="white"/>
<path d="M54.2698 5.86332V9.23327C54.2698 9.40508 54.2698 9.56146 54.272 9.70463C54.2742 9.8478 54.2764 9.97555 54.2786 10.0901C54.2808 10.1562 54.3228 10.2002 54.4001 10.2244L54.9169 10.383L54.9301 10.568C54.548 10.5592 54.1836 10.5548 53.8413 10.5548C53.4967 10.5548 53.161 10.5592 52.8297 10.568L52.8121 10.383L53.3046 10.2332C53.3775 10.2112 53.4128 10.1606 53.4172 10.0879C53.4194 9.97334 53.4217 9.84559 53.4239 9.70463C53.4261 9.56366 53.4261 9.40728 53.4261 9.23548V4.94044H51.9706C51.9529 5.38757 51.9198 5.83689 51.869 6.28622C51.8182 6.73555 51.7431 7.18047 51.6437 7.62319C51.5443 8.06591 51.4185 8.50202 51.2639 8.93152C51.1093 9.36102 50.9193 9.78392 50.6918 10.1958C50.6477 10.2685 50.6079 10.3302 50.5681 10.3852C50.5284 10.4403 50.4776 10.4843 50.4158 10.5218C50.3517 10.557 50.2744 10.5835 50.1794 10.6011C50.0845 10.6187 49.963 10.6275 49.8128 10.6275C49.5831 10.6275 49.3159 10.6011 49.0089 10.5504L48.9912 10.3654L49.2408 10.3169C49.3446 10.2993 49.4307 10.2795 49.5014 10.2575C49.5721 10.2355 49.6361 10.2068 49.6957 10.1738C49.7554 10.1407 49.8106 10.0989 49.8658 10.0504C49.921 10.002 49.9829 9.9381 50.0513 9.86101C50.2258 9.66939 50.3848 9.44693 50.524 9.19583C50.6631 8.94474 50.7868 8.67602 50.895 8.39409C51.0032 8.10996 51.096 7.81701 51.1755 7.51526C51.255 7.21351 51.3191 6.91836 51.3677 6.62542C51.4162 6.33468 51.4516 6.05275 51.4759 5.77963C51.498 5.50651 51.5112 5.25982 51.5112 5.03515C51.5112 4.96908 51.4648 4.92282 51.3721 4.89639L50.7117 4.71578L50.7029 4.53076C51.0916 4.54177 51.3986 4.54838 51.6261 4.54838H53.8369C54.1814 4.54838 54.537 4.54177 54.9058 4.53076L54.9279 4.71578L54.3979 4.87436C54.325 4.89639 54.2852 4.94264 54.2764 5.01313C54.2742 5.12766 54.272 5.25541 54.2698 5.39638C54.272 5.53514 54.2698 5.69152 54.2698 5.86332Z" fill="white"/>
<path d="M57.5292 9.43151V10.0857C57.5292 10.1606 57.5689 10.209 57.6507 10.231L58.1299 10.3808L58.1432 10.5658C57.8008 10.557 57.4585 10.5526 57.1162 10.5526C56.7738 10.5526 56.4161 10.557 56.045 10.5658L56.0273 10.3808L56.5574 10.2222C56.6325 10.2002 56.67 10.154 56.6745 10.0879C56.6811 9.8544 56.6833 9.57027 56.6833 9.23107V5.74218C56.6833 5.45585 56.6811 5.21576 56.6745 5.02855C56.6723 4.95366 56.6369 4.9052 56.5707 4.88317L56.0362 4.71578L56.0273 4.53076C56.3984 4.54177 56.7562 4.54838 57.0985 4.54838C57.4431 4.54838 57.7854 4.54177 58.1211 4.53076L58.1432 4.71578L57.6507 4.86555C57.5778 4.88317 57.5402 4.92723 57.538 4.99991C57.5314 5.20695 57.5292 5.44924 57.5292 5.72676V8.81258L60.7361 5.42061V4.99991C60.7361 4.93383 60.6963 4.88978 60.6146 4.86555L60.1353 4.71578L60.1221 4.53076C60.4732 4.54177 60.8222 4.54838 61.169 4.54838C61.5135 4.54838 61.8647 4.54177 62.2247 4.53076L62.2423 4.71578L61.699 4.88317C61.6328 4.9052 61.5974 4.95586 61.5952 5.02855C61.5864 5.21797 61.582 5.45585 61.582 5.74218V9.23327C61.582 9.57247 61.5864 9.85661 61.5952 10.0901C61.5974 10.1562 61.6372 10.2002 61.7123 10.2244L62.2335 10.383L62.2423 10.568C61.8602 10.5592 61.4958 10.5548 61.1535 10.5548C60.8112 10.5548 60.4732 10.5592 60.1464 10.568L60.1243 10.383L60.6168 10.2332C60.6897 10.2134 60.725 10.165 60.7294 10.0879L60.7383 9.23548V6.04173L57.5292 9.43151Z" fill="white"/>
<path d="M64.8378 7.57693V9.23327C64.8378 9.57247 64.84 9.85661 64.8466 10.0857C64.8488 10.1628 64.8864 10.2112 64.9593 10.231L65.4385 10.3808L65.4518 10.5658C65.1094 10.557 64.7671 10.5526 64.4248 10.5526C64.0824 10.5526 63.7247 10.557 63.3536 10.5658L63.3359 10.3808L63.866 10.2222C63.9411 10.2002 63.9786 10.154 63.9831 10.0879C63.9897 9.8544 63.9919 9.57027 63.9919 9.23107V5.74218C63.9919 5.45585 63.9897 5.21576 63.9831 5.02855C63.9809 4.95366 63.9455 4.9052 63.8793 4.88317L63.3448 4.71578L63.3359 4.53076C63.707 4.54177 64.0648 4.54838 64.4071 4.54838C64.7516 4.54838 65.094 4.54177 65.4297 4.53076L65.4518 4.71578L64.9593 4.86555C64.8864 4.88317 64.8488 4.92723 64.8466 4.99991C64.84 5.20695 64.8378 5.44924 64.8378 5.72676V7.18487H67.9806V5.72676C67.9806 5.44924 67.9784 5.20695 67.9718 4.99991C67.9696 4.92943 67.932 4.88317 67.8591 4.86555L67.3799 4.71578L67.371 4.53076C67.7222 4.54177 68.069 4.54838 68.4113 4.54838C68.7536 4.54838 69.1048 4.54177 69.4648 4.53076L69.4825 4.71578L68.9391 4.88317C68.8729 4.9052 68.8376 4.95586 68.8353 5.02855C68.8287 5.21797 68.8265 5.45585 68.8265 5.74218V9.23327C68.8265 9.57247 68.8287 9.85661 68.8353 10.0901C68.8376 10.1562 68.8773 10.2002 68.9524 10.2244L69.4736 10.383L69.4825 10.568C69.1026 10.5592 68.7404 10.5548 68.3958 10.5548C68.0535 10.5548 67.7178 10.5592 67.3909 10.568L67.3732 10.383L67.8614 10.2332C67.9342 10.2134 67.9696 10.165 67.974 10.0879C67.9806 9.85881 67.9828 9.57468 67.9828 9.23548V7.57693H64.8378Z" fill="white"/>
<path d="M72.0868 9.43151V10.0857C72.0868 10.1606 72.1266 10.209 72.2083 10.231L72.6875 10.3808L72.7008 10.5658C72.3585 10.557 72.0161 10.5526 71.6738 10.5526C71.3315 10.5526 70.9737 10.557 70.6026 10.5658L70.585 10.3808L71.115 10.2222C71.1901 10.2002 71.2277 10.154 71.2321 10.0879C71.2387 9.8544 71.2409 9.57027 71.2409 9.23107V5.74218C71.2409 5.45585 71.2387 5.21576 71.2321 5.02855C71.2299 4.95366 71.1945 4.9052 71.1283 4.88317L70.5938 4.71578L70.585 4.53076C70.956 4.54177 71.3138 4.54838 71.6561 4.54838C72.0007 4.54838 72.343 4.54177 72.6787 4.53076L72.7008 4.71578L72.2083 4.86555C72.1354 4.88317 72.0978 4.92723 72.0956 4.99991C72.089 5.20695 72.0868 5.44924 72.0868 5.72676V8.81258L75.2937 5.42061V4.99991C75.2937 4.93383 75.2539 4.88978 75.1722 4.86555L74.6929 4.71578L74.6797 4.53076C75.0309 4.54177 75.3798 4.54838 75.7266 4.54838C76.0711 4.54838 76.4223 4.54177 76.7823 4.53076L76.8 4.71578L76.2566 4.88317C76.1904 4.9052 76.155 4.95586 76.1528 5.02855C76.144 5.21797 76.1396 5.45585 76.1396 5.74218V9.23327C76.1396 9.57247 76.144 9.85661 76.1528 10.0901C76.155 10.1562 76.1948 10.2002 76.2699 10.2244L76.7911 10.383L76.8 10.568C76.4179 10.5592 76.0534 10.5548 75.7111 10.5548C75.3666 10.5548 75.0309 10.5592 74.704 10.568L74.6819 10.383L75.1744 10.2332C75.2473 10.2134 75.2826 10.165 75.2871 10.0879L75.2959 9.23548V6.04173L72.0868 9.43151Z" fill="white"/>
<path d="M79.3944 7.7529V9.23304C79.3944 9.40484 79.3944 9.55902 79.3966 9.69778C79.3988 9.83654 79.401 9.95989 79.4033 10.0722C79.4055 10.1603 79.443 10.2176 79.5159 10.2396L79.9952 10.3806L80.0084 10.5656C79.6661 10.5568 79.3237 10.5524 78.9814 10.5524C78.6325 10.5524 78.2769 10.5568 77.9103 10.5656L77.8926 10.3806L78.4226 10.222C78.4955 10.2022 78.5331 10.1581 78.5397 10.0876C78.5419 9.9731 78.5441 9.84535 78.5463 9.70219C78.5485 9.56122 78.5485 9.40264 78.5485 9.23083V5.74194C78.5485 5.59437 78.5485 5.46442 78.5463 5.34548C78.5441 5.22874 78.5419 5.12082 78.5397 5.0261C78.5375 4.95122 78.5022 4.90276 78.4359 4.88073L77.9014 4.71334L77.8926 4.52832C78.0825 4.53493 78.2658 4.53933 78.4403 4.54154C78.6148 4.54374 78.7893 4.54594 78.9615 4.54594C79.1338 4.54594 79.3039 4.54374 79.4739 4.54154C79.6418 4.53933 79.8118 4.53493 79.9863 4.52832L80.0084 4.71334L79.5159 4.86311C79.443 4.88073 79.4055 4.92479 79.4033 4.99747C79.401 5.10099 79.3988 5.21332 79.3966 5.33226C79.3944 5.4534 79.3944 5.58336 79.3944 5.72432V7.37185H79.8472C79.9797 7.37185 80.099 7.36745 80.2028 7.35864C80.3088 7.34983 80.4038 7.33001 80.4921 7.29697C80.5804 7.26393 80.6599 7.21767 80.7284 7.1538C80.7991 7.09213 80.8654 7.00843 80.9272 6.9027C80.989 6.79698 81.0465 6.66703 81.1017 6.51064C81.1569 6.35646 81.2121 6.16704 81.2695 5.94678C81.3269 5.71771 81.3777 5.52169 81.4219 5.3609C81.4661 5.20011 81.5103 5.06795 81.5544 4.96223C81.5986 4.85651 81.6428 4.77501 81.6892 4.71774C81.7355 4.65827 81.7885 4.61642 81.8482 4.58779C81.9078 4.56136 81.9807 4.54374 82.0646 4.53713C82.1485 4.53052 82.2479 4.52832 82.3672 4.52832C82.6123 4.52832 82.8752 4.53933 83.1579 4.56356L83.1755 4.83007C82.9768 4.83668 82.8089 4.86532 82.672 4.91818C82.535 4.97104 82.418 5.04813 82.3186 5.14725C82.2192 5.24636 82.1309 5.3675 82.0558 5.51287C81.9785 5.65825 81.9012 5.82124 81.8195 6.00625C81.7598 6.14061 81.698 6.27497 81.6339 6.40712C81.5699 6.53928 81.5036 6.66483 81.4308 6.78376C81.3579 6.9027 81.2806 7.01283 81.1966 7.11195C81.1127 7.21327 81.0177 7.29917 80.9139 7.36965C81.1215 7.67361 81.3115 7.97096 81.4838 8.2617C81.656 8.55244 81.815 8.81895 81.963 9.06344C82.1022 9.2903 82.2258 9.48854 82.3407 9.66254C82.4533 9.83434 82.5593 9.9687 82.6587 10.0678C82.7095 10.1163 82.7603 10.1581 82.8089 10.1934C82.8575 10.2286 82.9083 10.2572 82.9591 10.2815C83.0099 10.3057 83.0651 10.3277 83.1225 10.3431C83.18 10.3608 83.2462 10.3784 83.3213 10.3938L83.3346 10.5832C83.127 10.6097 82.9547 10.6229 82.8177 10.6229C82.7007 10.6229 82.5969 10.6207 82.5063 10.6141C82.418 10.6074 82.3363 10.5964 82.2678 10.5788C82.1971 10.5612 82.1331 10.5392 82.0779 10.5127C82.0227 10.4863 81.9674 10.4511 81.9166 10.407C81.7863 10.3123 81.6582 10.1713 81.5323 9.98412C81.4065 9.7969 81.2739 9.57884 81.1348 9.32554C81.0222 9.12731 80.9073 8.92027 80.7925 8.70442C80.6754 8.48856 80.5495 8.27712 80.4104 8.06787C80.3706 8.0084 80.3353 7.95774 80.3066 7.91589C80.2779 7.87404 80.2469 7.841 80.2138 7.81678C80.1807 7.79255 80.1431 7.77493 80.1012 7.76612C80.0592 7.7551 80.0062 7.7507 79.9399 7.7507H79.3944V7.7529Z" fill="white"/>
<path d="M86.9103 4.43799L88.8273 9.70216C88.9002 9.90039 88.9643 10.0348 89.0239 10.1052C89.0835 10.1757 89.1675 10.2286 89.2757 10.2616L89.6821 10.3828L89.6909 10.5678C89.3132 10.559 88.9643 10.5546 88.6418 10.5546C88.3127 10.5546 87.9262 10.559 87.4801 10.5678L87.4624 10.3828L87.8732 10.2616C87.9306 10.2418 87.9726 10.2198 87.9969 10.1955C88.0212 10.1713 88.0344 10.1339 88.0344 10.081C88.0344 10.0237 88.019 9.94885 87.9903 9.85414C87.9594 9.76163 87.9174 9.63608 87.8622 9.4819L87.4558 8.32775H85.3753L84.9225 9.4775C84.8629 9.63829 84.8143 9.76604 84.779 9.86075C84.7436 9.95546 84.7282 10.0303 84.7282 10.0854C84.7282 10.1339 84.7414 10.1713 84.7701 10.1955C84.7966 10.2198 84.8386 10.2396 84.8938 10.2572L85.2958 10.3739L85.3046 10.5678C84.896 10.559 84.5625 10.5546 84.3041 10.5546C84.0457 10.5546 83.7564 10.559 83.4361 10.5678L83.4141 10.3828L83.8492 10.2484C83.9596 10.2132 84.0391 10.1603 84.0899 10.0898C84.1407 10.0171 84.1981 9.907 84.2622 9.75502L86.4686 4.50407L86.9103 4.43799ZM85.5343 7.93789H87.3122L86.4708 5.56571L85.5343 7.93789Z" fill="white"/>
<path d="M44.2073 15.5064L43.918 16.5944L43.7457 16.6209L43.4873 15.2597L43.5138 15.2288C44.1146 15.0746 44.6667 14.9976 45.1659 14.9976C45.8284 14.9976 46.3342 15.1187 46.6876 15.361C47.041 15.6033 47.2154 15.9623 47.2154 16.438C47.2154 16.8037 47.1138 17.1032 46.9107 17.3411C46.7075 17.579 46.427 17.7596 46.0714 17.8785C46.5352 17.9578 46.8797 18.134 47.1094 18.4005C47.3391 18.6693 47.4518 18.9974 47.4518 19.3829C47.4518 19.9908 47.2309 20.4534 46.7892 20.7705C46.3475 21.0877 45.7489 21.2463 44.9958 21.2463C44.4746 21.2463 43.9467 21.156 43.4122 20.9754L43.3857 20.9445L43.6066 19.46L43.8054 19.4248L44.1124 20.7022C44.4083 20.819 44.7197 20.8785 45.0444 20.8785C45.5082 20.8785 45.8682 20.7551 46.1244 20.5106C46.3806 20.2661 46.5087 19.9225 46.5087 19.4842C46.5087 19.0437 46.3762 18.7089 46.1134 18.482C45.8505 18.2552 45.4729 18.1406 44.9803 18.1406C44.8302 18.1406 44.6181 18.1649 44.3421 18.2089L44.3156 17.7001C44.6226 17.7376 44.8456 17.7552 44.9803 17.7552C45.4154 17.7552 45.7379 17.6473 45.9521 17.4314C46.1642 17.2156 46.2724 16.916 46.2724 16.5284C46.2724 16.1363 46.1642 15.8389 45.9455 15.6385C45.7291 15.4381 45.4265 15.339 45.0378 15.339C44.7661 15.3522 44.49 15.4028 44.2073 15.5064Z" fill="white"/>
<path d="M48.8453 21.1315L48.4875 22.9486L48.2578 22.9795L48.0127 20.7703L48.0392 20.7394H48.7349C48.905 20.55 49.0596 20.3253 49.1965 20.0632C49.3423 19.7923 49.4748 19.506 49.5918 19.1976C49.7089 18.8915 49.8105 18.5721 49.8966 18.2395C49.9828 17.9091 50.0556 17.5831 50.1153 17.266C50.1749 16.9488 50.2191 16.6492 50.2478 16.3651C50.2765 16.081 50.292 15.8299 50.292 15.6074C50.292 15.5391 50.25 15.4929 50.1661 15.4687L49.4925 15.288L49.4836 15.103C49.8745 15.114 50.1992 15.1206 50.4554 15.1206H52.5734C52.918 15.1206 53.2758 15.114 53.6446 15.103L53.6623 15.288L53.1322 15.4466C53.0571 15.4731 53.0196 15.5193 53.0152 15.5854C53.013 15.6999 53.0107 15.8277 53.0085 15.9686C53.0063 16.1096 53.0063 16.266 53.0063 16.4378V19.9157C53.0063 20.0765 53.0063 20.213 53.0085 20.3254C53.0107 20.4377 53.013 20.5258 53.0152 20.5919C53.0174 20.6888 53.0505 20.7372 53.1101 20.7372H53.892L53.9185 20.7681L53.6777 22.9464L53.448 22.9773L53.0858 21.1315H48.8453ZM52.1604 20.7416V15.5149H50.7491C50.7182 15.9532 50.6741 16.3981 50.6188 16.8475C50.5636 17.2968 50.4841 17.7417 50.3803 18.1866C50.2743 18.6294 50.1396 19.0655 49.9695 19.495C49.8017 19.9245 49.5852 20.3386 49.3202 20.7416H52.1604Z" fill="white"/>
<path d="M61.0125 17.991C61.0125 18.9843 60.7298 19.7817 60.1644 20.3852C59.599 20.9887 58.8083 21.2904 57.7946 21.2904C56.8316 21.2904 56.0851 21.0107 55.5573 20.4534C55.0294 19.8962 54.7666 19.1407 54.7666 18.187C54.7666 17.1936 55.0493 16.4095 55.6191 15.8302C56.1867 15.2509 56.9752 14.9624 57.9801 14.9624C58.9453 14.9624 59.694 15.2333 60.2196 15.773C60.7497 16.317 61.0125 17.0549 61.0125 17.991ZM55.7141 18.046C55.7141 18.9821 55.904 19.698 56.2839 20.1957C56.6638 20.6935 57.2203 20.9424 57.9536 20.9424C58.6758 20.9424 59.2081 20.7155 59.5526 20.264C59.8972 19.8125 60.0672 19.1033 60.0672 18.1363C60.0672 17.2289 59.8839 16.5328 59.5195 16.0439C59.1551 15.5549 58.5897 15.3126 57.8277 15.3126C57.0878 15.3126 56.5511 15.5395 56.2154 15.991C55.8797 16.4425 55.7141 17.1275 55.7141 18.046Z" fill="white"/>
<path d="M63.6249 19.8122C63.6249 19.984 63.6249 20.1382 63.6271 20.2769C63.6293 20.4157 63.6315 20.5368 63.6337 20.647C63.6359 20.713 63.6735 20.7571 63.7464 20.7813L64.3427 20.9619L64.3515 21.1469C63.9341 21.1381 63.5542 21.1337 63.2119 21.1337C62.8629 21.1337 62.5073 21.1381 62.1407 21.1469L62.123 20.9619L62.6531 20.8033C62.7282 20.7813 62.7657 20.7351 62.7702 20.669C62.7724 20.5544 62.7746 20.4267 62.7768 20.2835C62.779 20.1426 62.779 19.984 62.779 19.8122V16.3211C62.779 16.1735 62.779 16.0436 62.7768 15.9246C62.7746 15.8079 62.7724 15.7 62.7702 15.6052C62.768 15.5304 62.7326 15.4819 62.6664 15.4599L62.1319 15.2925L62.123 15.1075C62.4941 15.1185 62.8563 15.1251 63.2097 15.1251C63.4482 15.1251 63.6779 15.1185 63.8988 15.1075C64.1196 15.0965 64.3228 15.0898 64.5061 15.0898C65.1886 15.0898 65.7032 15.222 66.0521 15.4885C66.4011 15.7528 66.5756 16.1493 66.5756 16.6735C66.5756 17.2902 66.3746 17.7704 65.9704 18.1118C65.5662 18.4532 64.9986 18.625 64.2698 18.625C64.0688 18.625 63.8546 18.6118 63.6249 18.5853V19.8122ZM63.6249 18.2219C63.8259 18.2572 64.0246 18.2726 64.2212 18.2726C64.6806 18.2726 65.0318 18.1536 65.2725 17.918C65.5132 17.6823 65.6325 17.3189 65.6325 16.8321C65.6325 16.3651 65.5177 16.0149 65.2902 15.7859C65.0605 15.5568 64.7005 15.4423 64.208 15.4423C64.0158 15.4423 63.8215 15.4533 63.6249 15.4775V18.2219Z" fill="white"/>
<path d="M73.7742 17.991C73.7742 18.9843 73.4915 19.7817 72.9261 20.3852C72.3607 20.9887 71.57 21.2904 70.5563 21.2904C69.5934 21.2904 68.8468 21.0107 68.319 20.4534C67.7911 19.8962 67.5283 19.1407 67.5283 18.187C67.5283 17.1936 67.811 16.4095 68.3808 15.8302C68.9484 15.2509 69.7369 14.9624 70.7418 14.9624C71.707 14.9624 72.4557 15.2333 72.9813 15.773C73.5114 16.317 73.7742 17.0549 73.7742 17.991ZM68.4758 18.046C68.4758 18.9821 68.6657 19.698 69.0456 20.1957C69.4255 20.6935 69.9821 20.9424 70.7153 20.9424C71.4375 20.9424 71.9698 20.7155 72.3143 20.264C72.6589 19.8125 72.8289 19.1033 72.8289 18.1363C72.8289 17.2289 72.6456 16.5328 72.2812 16.0439C71.9168 15.5549 71.3514 15.3126 70.5894 15.3126C69.8496 15.3126 69.3129 15.5395 68.9772 15.991C68.6437 16.4447 68.4758 17.1275 68.4758 18.046Z" fill="white"/>
<path d="M74.8848 15.1075C75.2558 15.1185 75.6202 15.1251 75.9758 15.1251C76.1105 15.1185 76.3292 15.1119 76.6296 15.0987C76.9299 15.0877 77.1353 15.0811 77.2391 15.0811C77.8708 15.0811 78.3478 15.1978 78.6725 15.4313C78.995 15.6647 79.1584 16.0017 79.1584 16.44C79.1584 17.1471 78.7763 17.6272 78.0143 17.8827C78.4605 17.9576 78.8028 18.1228 79.0413 18.3783C79.2799 18.6338 79.3991 18.9598 79.3991 19.3541C79.3991 19.9289 79.1893 20.3717 78.7719 20.6866C78.3523 21.0016 77.7736 21.158 77.0315 21.158C76.8835 21.158 76.7245 21.1536 76.5523 21.1448C76.38 21.136 76.1878 21.1315 75.9736 21.1315C75.6246 21.1315 75.2669 21.136 74.9024 21.1448L74.8848 20.9597L75.4148 20.8012C75.4877 20.7813 75.5253 20.7373 75.5319 20.6668C75.5341 20.5523 75.5363 20.4245 75.5385 20.2814C75.5407 20.1404 75.5407 19.9818 75.5407 19.81V16.3211C75.5407 16.1735 75.5407 16.0436 75.5385 15.9246C75.5363 15.8079 75.5341 15.7 75.5319 15.6053C75.5297 15.5304 75.4943 15.4819 75.4281 15.4599L74.8936 15.2925L74.8848 15.1075ZM76.3866 17.7924C76.5633 17.7946 76.7444 17.7968 76.9277 17.7968C77.3518 17.7968 77.672 17.6955 77.8885 17.4885C78.1049 17.2836 78.2131 16.9863 78.2131 16.5964C78.2131 16.1868 78.1027 15.8916 77.8796 15.711C77.6566 15.5304 77.3385 15.4423 76.9189 15.4423C76.8438 15.4423 76.7621 15.4445 76.6737 15.4489C76.5854 15.4533 76.4882 15.4599 76.3866 15.4731V17.7924ZM76.3866 18.136V20.7483C76.4727 20.7791 76.5721 20.799 76.6848 20.8078C76.7974 20.8166 76.9012 20.821 76.9962 20.821C77.471 20.821 77.8332 20.7042 78.0806 20.4686C78.328 20.2329 78.4516 19.8915 78.4516 19.4444C78.4516 18.9972 78.3258 18.6647 78.0762 18.4488C77.8244 18.233 77.4202 18.1228 76.8615 18.1228C76.7002 18.125 76.5412 18.1272 76.3866 18.136Z" fill="white"/>
<path d="M86.6736 17.991C86.6736 18.9843 86.3909 19.7817 85.8255 20.3852C85.2601 20.9887 84.4695 21.2904 83.4557 21.2904C82.4928 21.2904 81.7463 21.0107 81.2184 20.4534C80.6906 19.8962 80.4277 19.1407 80.4277 18.187C80.4277 17.1936 80.7104 16.4095 81.2802 15.8302C81.8479 15.2509 82.6363 14.9624 83.6412 14.9624C84.6064 14.9624 85.3551 15.2333 85.8808 15.773C86.4086 16.317 86.6736 17.0549 86.6736 17.991ZM81.373 18.046C81.373 18.9821 81.5629 19.698 81.9428 20.1957C82.3227 20.6935 82.8793 20.9424 83.6125 20.9424C84.3347 20.9424 84.867 20.7155 85.2116 20.264C85.5561 19.8125 85.7262 19.1033 85.7262 18.1363C85.7262 17.2289 85.5428 16.5328 85.1784 16.0439C84.814 15.5549 84.2486 15.3126 83.4866 15.3126C82.7468 15.3126 82.2101 15.5395 81.8744 15.991C81.5387 16.4425 81.373 17.1275 81.373 18.046Z" fill="white"/>
<path d="M89.287 20.0106V20.6648C89.287 20.7397 89.3268 20.7881 89.4085 20.8101L89.8877 20.9599L89.901 21.1449C89.5587 21.1361 89.2163 21.1317 88.874 21.1317C88.5317 21.1317 88.1739 21.1361 87.8028 21.1449L87.7852 20.9599L88.3152 20.8013C88.3903 20.7793 88.4279 20.7331 88.4323 20.667C88.4389 20.4335 88.4411 20.1494 88.4411 19.8102V16.3213C88.4411 16.0349 88.4389 15.7949 88.4323 15.6076C88.4301 15.5328 88.3947 15.4843 88.3285 15.4623L87.794 15.2949L87.7852 15.1099C88.1562 15.1209 88.514 15.1275 88.8563 15.1275C89.2009 15.1275 89.5432 15.1209 89.8789 15.1099L89.901 15.2949L89.4085 15.4447C89.3356 15.4623 89.298 15.5063 89.2958 15.579C89.2892 15.7861 89.287 16.0283 89.287 16.3059V19.3917L92.4939 15.9997V15.579C92.4939 15.5129 92.4541 15.4689 92.3724 15.4447L91.8931 15.2949L91.8799 15.1099C92.2311 15.1209 92.58 15.1275 92.9268 15.1275C93.2713 15.1275 93.6225 15.1209 93.9825 15.1099L94.0001 15.2949L93.4568 15.4623C93.3906 15.4843 93.3552 15.535 93.353 15.6076C93.3442 15.7971 93.3398 16.0349 93.3398 16.3213V19.8124C93.3398 20.1516 93.3442 20.4357 93.353 20.6692C93.3552 20.7353 93.395 20.7793 93.4701 20.8035L93.9913 20.9621L94.0001 21.1471C93.6181 21.1383 93.2536 21.1339 92.9113 21.1339C92.569 21.1339 92.2311 21.1383 91.9042 21.1471L91.8821 20.9621L92.3746 20.8123C92.4475 20.7925 92.4828 20.7441 92.4873 20.667L92.4961 19.8146V16.6208L89.287 20.0106Z" fill="white"/>
<path d="M46.7805 25.6846C47.0919 25.6956 47.4077 25.7022 47.7302 25.7022C48.046 25.7022 48.353 25.6956 48.6489 25.6846L48.6666 25.8696L48.2315 26.0084C48.1675 26.0282 48.1144 26.0524 48.0703 26.0832C48.0261 26.1141 47.9864 26.1493 47.9532 26.1934C47.9201 26.2374 47.8892 26.2881 47.8627 26.3453C47.8362 26.4048 47.8097 26.4731 47.7832 26.5546C47.6286 26.9709 47.474 27.3762 47.3216 27.7704C47.1692 28.1647 47.0124 28.5545 46.8511 28.9422C46.6899 29.3276 46.5221 29.7131 46.3476 30.0985C46.1731 30.484 45.9898 30.8694 45.7976 31.2615C45.7203 31.4223 45.6519 31.5522 45.5944 31.6514C45.537 31.7505 45.4708 31.8298 45.3935 31.887C45.3162 31.9465 45.2256 31.9862 45.1196 32.0082C45.0136 32.0302 44.8744 32.0412 44.7 32.0412C44.4526 32.0412 44.1854 32.0192 43.8982 31.9773L43.8806 31.7923L44.1522 31.7417C44.3488 31.7064 44.5166 31.6514 44.658 31.5721C44.7994 31.4928 44.9252 31.3959 45.0379 31.2769C45.1505 31.1602 45.2543 31.0236 45.3515 30.8672C45.4487 30.7131 45.5525 30.5413 45.6651 30.354L43.7105 26.5568C43.673 26.4863 43.6376 26.418 43.6067 26.3586C43.5758 26.2991 43.5405 26.244 43.5029 26.1978C43.4654 26.1493 43.4234 26.1097 43.3748 26.0744C43.3262 26.0392 43.2666 26.0128 43.1959 25.9929L42.8028 25.8718L42.7939 25.6868C43.059 25.6978 43.4101 25.7044 43.8519 25.7044C44.1964 25.7044 44.605 25.6978 45.0776 25.6868L45.0953 25.8718L44.6889 25.9885C44.5674 26.0172 44.5078 26.081 44.5078 26.1824C44.5078 26.2506 44.5321 26.3343 44.5785 26.4334C44.6271 26.5326 44.6845 26.6449 44.753 26.7704L46.1378 29.4686C46.3454 29.0105 46.5287 28.5633 46.6899 28.1294C46.8511 27.6955 47.0102 27.2638 47.1648 26.8343C47.2332 26.6427 47.284 26.4951 47.3149 26.396C47.3459 26.2969 47.3635 26.2176 47.3635 26.1603C47.3635 26.1141 47.3525 26.0788 47.3282 26.0524C47.3061 26.026 47.2641 26.0061 47.2067 25.9929L46.7871 25.885L46.7805 25.6846Z" fill="white"/>
<path d="M52.8938 27.0193V30.3893C52.8938 30.5611 52.8938 30.7175 52.896 30.8606C52.8982 31.0038 52.9004 31.1315 52.9026 31.2461C52.9048 31.3122 52.9468 31.3562 53.0241 31.3782L53.5409 31.5368L53.5541 31.7218C53.1721 31.713 52.8076 31.7086 52.4653 31.7086C52.1208 31.7086 51.7851 31.713 51.4538 31.7218L51.4361 31.5368L51.9286 31.387C52.0015 31.365 52.0368 31.3144 52.0413 31.2417C52.0435 31.1271 52.0457 30.9994 52.0479 30.8584C52.0501 30.7175 52.0501 30.5611 52.0501 30.3893V26.0942H50.5946C50.577 26.5414 50.5438 26.9907 50.493 27.44C50.4422 27.8893 50.3671 28.3343 50.2678 28.777C50.1684 29.2197 50.0425 29.6558 49.8879 30.0853C49.7333 30.517 49.5433 30.9377 49.3159 31.3518C49.2717 31.4245 49.2319 31.4862 49.1922 31.5412C49.1524 31.5963 49.1016 31.6403 49.0398 31.6756C48.9757 31.7108 48.8984 31.7373 48.8035 31.7549C48.7085 31.7725 48.587 31.7813 48.4368 31.7813C48.2071 31.7813 47.9399 31.7549 47.6329 31.7042L47.6152 31.5192L47.8648 31.4729C47.9686 31.4553 48.0547 31.4355 48.1254 31.4135C48.1961 31.3915 48.2601 31.3628 48.3198 31.3298C48.3794 31.2967 48.4346 31.2571 48.4898 31.2064C48.5451 31.158 48.6069 31.0941 48.6754 31.017C48.8498 30.8254 49.0089 30.6029 49.148 30.3518C49.2871 30.1007 49.4108 29.8342 49.519 29.5501C49.6273 29.266 49.72 28.973 49.7995 28.6713C49.879 28.3695 49.9431 28.0744 49.9917 27.7814C50.0403 27.4907 50.0756 27.2087 50.0999 26.9356C50.1242 26.6625 50.1352 26.4158 50.1352 26.1912C50.1352 26.1251 50.0889 26.0788 49.9961 26.0546L49.3357 25.874L49.3269 25.689C49.7156 25.7 50.0226 25.7066 50.2501 25.7066H52.4609C52.8054 25.7066 53.161 25.7 53.5299 25.689L53.5519 25.874L53.0219 26.0326C52.949 26.0546 52.9092 26.1008 52.9004 26.1713C52.8982 26.2859 52.896 26.4136 52.8938 26.5546C52.8938 26.6911 52.8938 26.8475 52.8938 27.0193Z" fill="white"/>
<path d="M56.1537 26.8806V28.2968C56.3834 28.2748 56.6087 28.2616 56.8296 28.2616C57.5716 28.2616 58.1282 28.4026 58.497 28.6845C58.8659 28.9664 59.0492 29.3673 59.0492 29.8871C59.0492 30.2197 58.9873 30.5038 58.8637 30.7395C58.74 30.9752 58.5743 31.1646 58.3667 31.3122C58.1591 31.4575 57.914 31.5655 57.6357 31.6337C57.3574 31.702 57.0659 31.7351 56.7567 31.7351C56.6175 31.7351 56.4651 31.7307 56.2973 31.7219C56.1316 31.713 55.9439 31.7086 55.7385 31.7086C55.3873 31.7086 55.0295 31.713 54.6651 31.7219L54.6475 31.5368L55.1775 31.3782C55.2504 31.3584 55.288 31.3144 55.2946 31.2461C55.2968 31.1316 55.299 31.0038 55.3012 30.8606C55.3034 30.7197 55.3034 30.5611 55.3034 30.3893V26.8982C55.3034 26.7528 55.3034 26.6207 55.3012 26.5017C55.299 26.385 55.2968 26.2771 55.2946 26.1824C55.2924 26.1075 55.257 26.059 55.1908 26.037L54.6563 25.8696L54.6475 25.6846C55.0185 25.6956 55.3763 25.7022 55.7186 25.7022C56.0632 25.7022 56.4342 25.6956 56.8318 25.6846L56.8539 25.8696L56.2708 26.0414C56.1979 26.0678 56.1604 26.1119 56.1581 26.1757C56.1559 26.2771 56.1537 26.385 56.1515 26.5039C56.1537 26.6251 56.1537 26.7506 56.1537 26.8806ZM56.1537 28.647V31.3276C56.2973 31.376 56.4894 31.4003 56.728 31.4003C57.1851 31.4003 57.5297 31.2813 57.7594 31.0412C57.9891 30.8012 58.1039 30.451 58.1039 29.9884C58.1039 29.5237 57.9824 29.1801 57.7395 28.9576C57.4965 28.7351 57.1167 28.625 56.6021 28.625C56.538 28.625 56.4696 28.6272 56.3923 28.6316C56.3172 28.636 56.2377 28.6404 56.1537 28.647ZM60.8028 30.3893C60.8028 30.5611 60.8028 30.7175 60.805 30.8584C60.8072 30.9994 60.8094 31.1272 60.8117 31.2417C60.8139 31.3144 60.8647 31.3628 60.9618 31.3871L61.4499 31.5368L61.4588 31.7219C61.0877 31.713 60.7299 31.7086 60.3854 31.7086C60.0386 31.7086 59.6831 31.713 59.3164 31.7219L59.2943 31.5368L59.8244 31.3782C59.8995 31.3584 59.9393 31.3144 59.9459 31.2461C59.9481 31.1316 59.9503 31.0038 59.9525 30.8606C59.9547 30.7197 59.9547 30.5611 59.9547 30.3893V26.8982C59.9547 26.7528 59.9547 26.6207 59.9525 26.5017C59.9503 26.385 59.9481 26.2771 59.9459 26.1824C59.9437 26.1075 59.9061 26.059 59.8377 26.037L59.3076 25.8696L59.2943 25.6846C59.6676 25.6956 60.0254 25.7022 60.3677 25.7022C60.7145 25.7022 61.0723 25.6956 61.4411 25.6846L61.4588 25.8696L60.9243 26.0282C60.8558 26.0458 60.8183 26.0898 60.8117 26.1625C60.8094 26.2616 60.8072 26.3718 60.805 26.4929C60.8028 26.6119 60.8028 26.7418 60.8028 26.8828V30.3893Z" fill="white"/>
<path d="M66.0398 26.0852H64.0587V28.3318C64.337 28.3054 64.6087 28.2922 64.8737 28.2922C65.6401 28.2922 66.2011 28.4221 66.5611 28.682C66.9211 28.9419 67.1 29.3252 67.1 29.834C67.1 30.4441 66.8924 30.9155 66.4749 31.2436C66.0575 31.5718 65.4744 31.737 64.7279 31.737C64.5822 31.737 64.4187 31.7326 64.2376 31.7238C64.0587 31.715 63.86 31.7106 63.6435 31.7106C63.2946 31.7106 62.939 31.715 62.5724 31.7238L62.5547 31.5388L63.0847 31.3802C63.1598 31.3582 63.1974 31.3119 63.2018 31.248C63.204 31.1335 63.2062 31.0058 63.2084 30.8626C63.2106 30.7216 63.2106 30.563 63.2106 30.3912V26.9001C63.2106 26.7548 63.2106 26.6226 63.2084 26.5037C63.2062 26.3869 63.204 26.279 63.2018 26.1843C63.1996 26.1094 63.1643 26.061 63.098 26.0389L62.5635 25.8715L62.5547 25.6865C62.9257 25.6975 63.2835 25.7041 63.6259 25.7041H64.7257C65.0835 25.7041 65.4259 25.7019 65.7527 25.6997C66.0796 25.6975 66.4153 25.6931 66.7576 25.6865L66.7841 25.7218L66.4992 27.1689L66.327 27.1953L66.0398 26.0852ZM64.0587 31.3494C64.2708 31.3846 64.4828 31.4 64.6882 31.4C65.1697 31.4 65.5363 31.2833 65.7881 31.052C66.0421 30.8185 66.1679 30.4705 66.1679 30.0014C66.1679 29.5454 66.0487 29.2062 65.8102 28.9838C65.5716 28.7613 65.194 28.6512 64.6749 28.6512C64.5005 28.6512 64.2929 28.6644 64.0587 28.6908V31.3494Z" fill="white"/>
<path d="M69.6347 28.9089V30.389C69.6347 30.5608 69.6347 30.715 69.6369 30.8538C69.6391 30.9925 69.6413 31.1159 69.6435 31.2282C69.6457 31.3163 69.6832 31.3736 69.7561 31.3956L70.2354 31.5388L70.2487 31.7238C69.9063 31.715 69.564 31.7106 69.2217 31.7106C68.8727 31.7106 68.5171 31.715 68.1505 31.7238L68.1328 31.5388L68.6629 31.3802C68.7358 31.3604 68.7733 31.3163 68.7799 31.248C68.7821 31.1335 68.7844 31.0058 68.7866 30.8626C68.7888 30.7216 68.7888 30.563 68.7888 30.3912V26.9001C68.7888 26.7548 68.7888 26.6226 68.7866 26.5037C68.7844 26.3869 68.7821 26.279 68.7799 26.1843C68.7777 26.1094 68.7424 26.061 68.6761 26.0389L68.1416 25.8715L68.1328 25.6865C68.3228 25.6931 68.5061 25.6975 68.6805 25.6997C68.855 25.7019 69.0295 25.7041 69.2018 25.7041C69.374 25.7041 69.5441 25.7019 69.7142 25.6997C69.882 25.6975 70.0521 25.6931 70.2266 25.6865L70.2487 25.8715L69.7561 26.0213C69.6832 26.0389 69.6457 26.083 69.6435 26.1535C69.6413 26.257 69.6391 26.3693 69.6369 26.4883C69.6347 26.6094 69.6347 26.7394 69.6347 26.8803V28.5279H70.0874C70.2199 28.5279 70.3392 28.5235 70.443 28.5146C70.549 28.5058 70.644 28.486 70.7323 28.453C70.8207 28.4199 70.9002 28.3737 70.9686 28.312C71.0393 28.2503 71.1056 28.1666 71.1674 28.0609C71.2293 27.9552 71.2867 27.8252 71.3419 27.6688C71.3971 27.5147 71.4523 27.3252 71.5098 27.105C71.5672 26.8759 71.618 26.6799 71.6621 26.5191C71.7063 26.3583 71.7505 26.2262 71.7947 26.1204C71.8388 26.0147 71.883 25.9332 71.9294 25.8759C71.9758 25.8165 72.0288 25.7746 72.0884 25.746C72.148 25.7196 72.2209 25.7019 72.3049 25.6953C72.3888 25.6887 72.4882 25.6865 72.6074 25.6865C72.8526 25.6865 73.1154 25.6975 73.3981 25.7218L73.4158 25.9883C73.217 25.9949 73.0491 26.0235 72.9122 26.0764C72.7753 26.1292 72.6582 26.2063 72.5588 26.3054C72.4595 26.4046 72.3711 26.5257 72.296 26.6711C72.2187 26.8164 72.1414 26.9794 72.0597 27.1645C72.0001 27.2988 71.9382 27.4332 71.8742 27.5653C71.8101 27.6975 71.7439 27.823 71.671 27.942C71.5981 28.0609 71.5208 28.171 71.4369 28.2702C71.3529 28.3715 71.258 28.4574 71.1542 28.5279C71.3618 28.8318 71.5517 29.1292 71.724 29.4199C71.8963 29.7106 72.0553 29.9772 72.2033 30.2216C72.3424 30.4485 72.4661 30.6467 72.5809 30.8207C72.6936 30.9925 72.7996 31.1269 72.899 31.226C72.9498 31.2745 73.0006 31.3163 73.0491 31.3516C73.0977 31.3868 73.1485 31.4154 73.1993 31.4397C73.2501 31.4639 73.3053 31.4837 73.3628 31.5013C73.4202 31.519 73.4865 31.5366 73.5615 31.552L73.5748 31.7414C73.3672 31.7679 73.1949 31.7811 73.058 31.7811C72.9409 31.7811 72.8371 31.7789 72.7466 31.7723C72.6582 31.7657 72.5765 31.7546 72.508 31.737C72.4374 31.7194 72.3733 31.6974 72.3181 31.6709C72.2629 31.6445 72.2077 31.6093 72.1569 31.5652C72.0266 31.4705 71.8985 31.3295 71.7726 31.1445C71.6467 30.9573 71.5142 30.7392 71.375 30.486C71.2624 30.2877 71.1475 30.0807 71.0327 29.867C70.9156 29.6512 70.7898 29.4397 70.6506 29.2305C70.6109 29.171 70.5755 29.1203 70.5468 29.0785C70.5181 29.0367 70.4872 29.0036 70.454 28.9794C70.4209 28.9552 70.3834 28.9375 70.3414 28.9287C70.2994 28.9177 70.2464 28.9133 70.1802 28.9133H69.6347V28.9089Z" fill="white"/>
<path d="M75.8212 30.5875V31.2417C75.8212 31.3166 75.8609 31.365 75.9427 31.3871L76.4219 31.5368L76.4352 31.7218C76.0928 31.713 75.7505 31.7086 75.4082 31.7086C75.0658 31.7086 74.708 31.713 74.337 31.7218L74.3193 31.5368L74.8494 31.3782C74.9245 31.3562 74.962 31.31 74.9665 31.2461C74.9731 31.0126 74.9753 30.7285 74.9753 30.3893V26.8982C74.9753 26.6119 74.9731 26.374 74.9665 26.1846C74.9642 26.1097 74.9289 26.0612 74.8626 26.0392L74.3282 25.8718L74.3193 25.6868C74.6904 25.6978 75.0482 25.7044 75.3905 25.7044C75.735 25.7044 76.0774 25.6978 76.4131 25.6868L76.4352 25.8718L75.9427 26.0216C75.8698 26.0392 75.8322 26.0832 75.83 26.1537C75.8234 26.3608 75.8212 26.603 75.8212 26.8806V29.9664L79.0281 26.5744V26.1515C79.0281 26.0854 78.9883 26.0414 78.9066 26.0194L78.4273 25.8696L78.4141 25.6846C78.7652 25.6956 79.1142 25.7022 79.4609 25.7022C79.8055 25.7022 80.1567 25.6956 80.5167 25.6846L80.5343 25.8696L79.991 26.037C79.9247 26.059 79.8894 26.1075 79.8872 26.1824C79.8784 26.3718 79.874 26.6097 79.874 26.896V30.3871C79.874 30.7263 79.8784 31.0104 79.8872 31.2439C79.8894 31.31 79.9292 31.354 80.0043 31.376L80.5255 31.5346L80.5343 31.7196C80.1522 31.7108 79.7878 31.7064 79.4455 31.7064C79.1009 31.7064 78.7652 31.7108 78.4384 31.7196L78.4163 31.5346L78.9088 31.3849C78.9817 31.365 79.017 31.3166 79.0214 31.2395L79.0303 30.3871V27.1933L75.8212 30.5875Z" fill="white"/>
<path d="M26.8765 16.2005C26.8743 16.1497 26.8699 16.1011 26.8699 16.0503C26.8699 16.1011 26.8655 16.1497 26.8633 16.2005H26.8765Z" fill="white"/>
<path d="M27.4287 9.43359C27.4287 11.0018 26.1543 12.2705 24.584 12.2705C26.1565 12.2705 27.4287 13.5414 27.4287 15.1074C27.4287 13.5899 28.6235 12.3542 30.1253 12.2771V12.2617C28.6235 12.1868 27.4287 10.9512 27.4287 9.43359Z" fill="white"/>
<path d="M90.9211 12.3257C90.9211 12.9446 90.4175 13.4468 89.7969 13.4468C90.4175 13.4468 90.9211 13.949 90.9211 14.5679C90.9211 13.9688 91.3937 13.4798 91.9856 13.449V13.4424C91.3937 13.4116 90.9211 12.9248 90.9211 12.3257Z" fill="white"/>
<path d="M26.8613 10.2266C26.8635 10.2774 26.868 10.3259 26.868 10.3767C26.868 10.3259 26.8724 10.2774 26.8746 10.2266H26.8613Z" fill="white"/>
<path d="M17.417 0C7.81401 0 0 7.79274 0 17.3696C0 26.9464 7.81401 34.7391 17.417 34.7391C27.0199 34.7391 34.834 26.9464 34.834 17.3696C34.834 7.79274 27.0222 0 17.417 0ZM17.417 33.6709C10.4665 33.6709 4.52099 29.3208 2.16001 23.2086C4.93621 24.1029 7.94873 24.42 11.0341 24.0346C17.5362 23.2218 22.9429 19.4664 26.0945 14.2793C22.8965 17.8365 18.4528 20.3078 13.3267 20.9488C8.96248 21.4972 4.74627 20.6382 1.13301 18.7286C1.09546 18.2814 1.07117 17.8277 1.07117 17.3696C1.07117 8.38083 8.4037 1.06825 17.417 1.06825C26.4303 1.06825 33.7628 8.38083 33.7628 17.3696C33.7628 26.3583 26.4303 33.6709 17.417 33.6709Z" fill="white"/>
</svg>
