<svg width="177" height="66" viewBox="0 0 177 66" fill="none" xmlns="http://www.w3.org/2000/svg">
<path d="M84.4305 14.5989V17.386C84.4305 17.7095 84.4305 17.9998 84.4346 18.2611C84.4388 18.5224 84.443 18.7546 84.4471 18.9661C84.4513 19.132 84.522 19.2399 84.6592 19.2813L85.5617 19.5468L85.5866 19.8952C84.942 19.8786 84.2974 19.8703 83.6528 19.8703C82.9957 19.8703 82.3262 19.8786 81.6358 19.8952L81.6025 19.5468L82.6006 19.2482C82.7379 19.2108 82.8086 19.1279 82.821 18.9952C82.8252 18.7795 82.8294 18.539 82.8335 18.2694C82.8377 18.0039 82.8377 17.7053 82.8377 17.3818V10.8123C82.8377 10.5344 82.8377 10.2898 82.8335 10.0658C82.8294 9.84598 82.8252 9.64275 82.821 9.46442C82.8169 9.3234 82.7503 9.23216 82.6256 9.19069L81.6192 8.87548L81.6025 8.5271C81.9602 8.53954 82.3054 8.54784 82.6339 8.55198C82.9624 8.55613 83.291 8.56028 83.6154 8.56028C83.9397 8.56028 84.26 8.55613 84.5802 8.55198C84.8963 8.54784 85.2165 8.53954 85.545 8.5271L85.5866 8.87548L84.6592 9.15751C84.522 9.19069 84.4513 9.27363 84.4471 9.4105C84.443 9.60543 84.4388 9.81694 84.4346 10.0409C84.4305 10.269 84.4305 10.5137 84.4305 10.7791V13.8814H85.283C85.5325 13.8814 85.7571 13.8731 85.9526 13.8565C86.1522 13.8399 86.331 13.8026 86.4974 13.7404C86.6637 13.6782 86.8134 13.5911 86.9424 13.4708C87.0754 13.3547 87.2002 13.1971 87.3166 12.998C87.4331 12.7989 87.5412 12.5542 87.6452 12.2598C87.7491 11.9695 87.8531 11.6128 87.9612 11.198C88.0694 10.7667 88.165 10.3976 88.2482 10.0948C88.3314 9.79206 88.4145 9.54322 88.4977 9.34414C88.5809 9.14506 88.6641 8.99161 88.7514 8.88378C88.8387 8.7718 88.9385 8.693 89.0508 8.63908C89.1631 8.58931 89.3004 8.55613 89.4584 8.54369C89.6164 8.53125 89.8036 8.5271 90.0281 8.5271C90.4898 8.5271 90.9846 8.54784 91.517 8.59346L91.5502 9.0953C91.1759 9.10774 90.8599 9.16165 90.602 9.26119C90.3442 9.36073 90.1238 9.50589 89.9366 9.69252C89.7495 9.87916 89.5832 10.1073 89.4418 10.381C89.2962 10.6547 89.1506 10.9616 88.9968 11.31C88.8845 11.563 88.768 11.816 88.6474 12.0648C88.5268 12.3137 88.4021 12.5501 88.2648 12.7741C88.1276 12.998 87.982 13.2054 87.824 13.392C87.666 13.5828 87.4871 13.7445 87.2917 13.8773C87.6826 14.4496 88.0403 15.0095 88.3646 15.557C88.689 16.1044 88.9884 16.6063 89.2671 17.0666C89.5291 17.4938 89.762 17.8671 89.9782 18.1947C90.1903 18.5182 90.3899 18.7712 90.5771 18.9578C90.6727 19.0491 90.7684 19.1279 90.8599 19.1942C90.9514 19.2606 91.047 19.3145 91.1427 19.3601C91.2383 19.4058 91.3423 19.4472 91.4504 19.4763C91.5585 19.5094 91.6833 19.5426 91.8247 19.5717L91.8497 19.9283C91.4587 19.9781 91.1344 20.003 90.8765 20.003C90.6561 20.003 90.4606 19.9988 90.2901 19.9864C90.1238 19.974 89.9699 19.9532 89.841 19.92C89.7079 19.8869 89.5873 19.8454 89.4833 19.7956C89.3794 19.7459 89.2754 19.6795 89.1798 19.5965C88.9344 19.4182 88.6932 19.1528 88.4561 18.8002C88.2191 18.4477 87.9696 18.0371 87.7076 17.5602C87.4955 17.1869 87.2792 16.797 87.063 16.3906C86.8425 15.9841 86.6055 15.586 86.3435 15.192C86.2686 15.08 86.2021 14.9846 86.148 14.9058C86.094 14.827 86.0357 14.7648 85.9734 14.7192C85.911 14.6736 85.8403 14.6404 85.7613 14.6238C85.6823 14.6031 85.5824 14.5948 85.4577 14.5948H84.4305V14.5989Z" fill="#B19578"/>
<path d="M102.188 11.0404V17.386C102.188 17.7095 102.188 18.0039 102.193 18.2735C102.197 18.5431 102.201 18.7837 102.205 18.9993C102.209 19.1237 102.288 19.2067 102.434 19.2523L103.407 19.5509L103.432 19.8993C102.712 19.8827 102.026 19.8744 101.382 19.8744C100.733 19.8744 100.101 19.8827 99.4769 19.8993L99.4436 19.5509L100.371 19.2689C100.508 19.2274 100.575 19.132 100.583 18.9952C100.587 18.7795 100.591 18.539 100.596 18.2735C100.6 18.0081 100.6 17.7136 100.6 17.3901V9.30267H97.8592C97.8259 10.1446 97.7635 10.9907 97.6679 11.8367C97.5722 12.6828 97.4308 13.5206 97.2437 14.3542C97.0565 15.1878 96.8195 16.009 96.5284 16.8178C96.2372 17.6265 95.8796 18.4228 95.4512 19.1984C95.3681 19.3353 95.2932 19.4514 95.2184 19.5551C95.1435 19.6588 95.0479 19.7417 94.9314 19.8122C94.8108 19.8786 94.6652 19.9283 94.4864 19.9615C94.3076 19.9947 94.0789 20.0113 93.7961 20.0113C93.3636 20.0113 92.8604 19.9615 92.2823 19.8661L92.249 19.5177L92.719 19.4265C92.9144 19.3933 93.0766 19.356 93.2097 19.3145C93.3428 19.273 93.4634 19.2191 93.5757 19.1569C93.6879 19.0947 93.7919 19.0159 93.8959 18.9247C93.9998 18.8334 94.1163 18.7131 94.2452 18.568C94.5738 18.2072 94.8732 17.7883 95.1352 17.3155C95.3972 16.8427 95.6301 16.3367 95.8339 15.8058C96.0376 15.2708 96.2123 14.7192 96.362 14.151C96.5117 13.5828 96.6323 13.027 96.7238 12.4754C96.8153 11.928 96.8819 11.3971 96.9276 10.8828C96.9692 10.3686 96.9941 9.90404 96.9941 9.48101C96.9941 9.35659 96.9068 9.26949 96.7321 9.21972L95.4887 8.87963L95.472 8.53125C96.204 8.55199 96.782 8.56443 97.2104 8.56443H101.373C102.022 8.56443 102.692 8.55199 103.386 8.53125L103.428 8.87963L102.43 9.17825C102.292 9.21972 102.218 9.30682 102.201 9.43953C102.197 9.6552 102.193 9.89575 102.188 10.1612C102.193 10.4225 102.188 10.7169 102.188 11.0404Z" fill="#B19578"/>
<path d="M108.327 17.7592V18.991C108.327 19.132 108.402 19.2233 108.556 19.2648L109.458 19.5468L109.483 19.8952C108.838 19.8786 108.194 19.8703 107.549 19.8703C106.905 19.8703 106.231 19.8786 105.532 19.8952L105.499 19.5468L106.497 19.2482C106.639 19.2067 106.709 19.1196 106.718 18.9952C106.73 18.5555 106.734 18.0205 106.734 17.3818V10.8123C106.734 10.2732 106.73 9.8211 106.718 9.46857C106.713 9.32755 106.647 9.23631 106.522 9.19484L105.516 8.87963L105.499 8.53125C106.198 8.55199 106.871 8.56443 107.516 8.56443C108.165 8.56443 108.809 8.55199 109.442 8.53125L109.483 8.87963L108.556 9.16166C108.418 9.19484 108.348 9.27778 108.344 9.41465C108.331 9.80451 108.327 10.2607 108.327 10.7833V16.5938L114.365 10.2068V9.41465C114.365 9.29023 114.291 9.20728 114.137 9.16166L113.234 8.87963L113.209 8.53125C113.871 8.55199 114.528 8.56443 115.181 8.56443C115.829 8.56443 116.491 8.55199 117.168 8.53125L117.202 8.87963L116.179 9.19484C116.054 9.23631 115.987 9.3317 115.983 9.46857C115.967 9.82524 115.958 10.2732 115.958 10.8123V17.386C115.958 18.0247 115.967 18.5597 115.983 18.9993C115.987 19.1237 116.062 19.2067 116.204 19.2523L117.185 19.5509L117.202 19.8993C116.482 19.8827 115.796 19.8744 115.151 19.8744C114.507 19.8744 113.871 19.8827 113.255 19.8993L113.213 19.5509L114.141 19.2689C114.278 19.2316 114.345 19.1403 114.353 18.9952L114.37 17.3901V11.3764L108.327 17.7592Z" fill="#B19578"/>
<path d="M122.088 14.2671V17.386C122.088 18.0247 122.092 18.5597 122.104 18.991C122.108 19.1362 122.179 19.2274 122.316 19.2648L123.219 19.5468L123.244 19.8952C122.599 19.8786 121.955 19.8703 121.31 19.8703C120.665 19.8703 119.992 19.8786 119.293 19.8952L119.26 19.5468L120.258 19.2482C120.399 19.2067 120.47 19.1196 120.478 18.9952C120.491 18.5555 120.495 18.0205 120.495 17.3818V10.8123C120.495 10.2732 120.491 9.8211 120.478 9.46857C120.474 9.32755 120.408 9.23631 120.283 9.19484L119.276 8.87963L119.26 8.53125C119.958 8.55199 120.632 8.56443 121.277 8.56443C121.926 8.56443 122.57 8.55199 123.202 8.53125L123.244 8.87963L122.316 9.16166C122.179 9.19484 122.108 9.27778 122.104 9.41465C122.092 9.80451 122.088 10.2607 122.088 10.7833V13.5289H128.006V10.7833C128.006 10.2607 128.001 9.80451 127.989 9.41465C127.985 9.28193 127.914 9.19484 127.777 9.16166L126.874 8.87963L126.858 8.53125C127.519 8.55199 128.172 8.56443 128.817 8.56443C129.461 8.56443 130.122 8.55199 130.8 8.53125L130.834 8.87963L129.81 9.19484C129.686 9.23631 129.619 9.3317 129.615 9.46857C129.603 9.82524 129.598 10.2732 129.598 10.8123V17.386C129.598 18.0247 129.603 18.5597 129.615 18.9993C129.619 19.1237 129.694 19.2067 129.835 19.2523L130.817 19.5509L130.834 19.8993C130.118 19.8827 129.436 19.8744 128.787 19.8744C128.143 19.8744 127.511 19.8827 126.895 19.8993L126.862 19.5509L127.781 19.2689C127.918 19.2316 127.985 19.1403 127.993 18.9952C128.006 18.5638 128.01 18.0288 128.01 17.3901V14.2671H122.088Z" fill="#B19578"/>
<path d="M135.737 17.7592V18.991C135.737 19.132 135.812 19.2233 135.966 19.2648L136.868 19.5468L136.893 19.8952C136.249 19.8786 135.604 19.8703 134.959 19.8703C134.315 19.8703 133.641 19.8786 132.942 19.8952L132.909 19.5468L133.907 19.2482C134.049 19.2067 134.119 19.1196 134.128 18.9952C134.14 18.5555 134.144 18.0205 134.144 17.3818V10.8123C134.144 10.2732 134.14 9.8211 134.128 9.46857C134.124 9.32755 134.057 9.23631 133.932 9.19484L132.926 8.87963L132.909 8.53125C133.608 8.55199 134.282 8.56443 134.926 8.56443C135.575 8.56443 136.22 8.55199 136.852 8.53125L136.893 8.87963L135.966 9.16166C135.829 9.19484 135.758 9.27778 135.754 9.41465C135.741 9.80451 135.737 10.2607 135.737 10.7833V16.5938L141.776 10.2068V9.41465C141.776 9.29023 141.701 9.20728 141.547 9.16166L140.644 8.87963L140.619 8.53125C141.281 8.55199 141.938 8.56443 142.591 8.56443C143.239 8.56443 143.901 8.55199 144.579 8.53125L144.612 8.87963L143.589 9.19484C143.464 9.23631 143.398 9.3317 143.393 9.46857C143.377 9.82524 143.368 10.2732 143.368 10.8123V17.386C143.368 18.0247 143.377 18.5597 143.393 18.9993C143.398 19.1237 143.472 19.2067 143.614 19.2523L144.595 19.5509L144.612 19.8993C143.892 19.8827 143.206 19.8744 142.562 19.8744C141.913 19.8744 141.281 19.8827 140.665 19.8993L140.624 19.5509L141.551 19.2689C141.688 19.2316 141.755 19.1403 141.763 18.9952L141.78 17.3901V11.3764L135.737 17.7592Z" fill="#B19578"/>
<path d="M149.498 14.5989V17.386C149.498 17.7095 149.498 17.9998 149.502 18.2611C149.506 18.5224 149.51 18.7546 149.514 18.9661C149.519 19.132 149.589 19.2399 149.727 19.2813L150.629 19.5468L150.654 19.8952C150.009 19.8786 149.365 19.8703 148.72 19.8703C148.063 19.8703 147.394 19.8786 146.703 19.8952L146.67 19.5468L147.668 19.2482C147.805 19.2108 147.876 19.1279 147.888 18.9952C147.893 18.7795 147.897 18.539 147.901 18.2694C147.905 18.0039 147.905 17.7053 147.905 17.3818V10.8123C147.905 10.5344 147.905 10.2898 147.901 10.0658C147.897 9.84598 147.893 9.64275 147.888 9.46442C147.884 9.3234 147.818 9.23216 147.693 9.19069L146.687 8.87548L146.67 8.5271C147.028 8.53954 147.373 8.54784 147.701 8.55198C148.03 8.55613 148.358 8.56028 148.683 8.56028C149.007 8.56028 149.327 8.55613 149.648 8.55198C149.964 8.54784 150.284 8.53954 150.612 8.5271L150.654 8.87548L149.727 9.15751C149.589 9.19069 149.519 9.27363 149.514 9.4105C149.51 9.60543 149.506 9.81694 149.502 10.0409C149.498 10.269 149.498 10.5137 149.498 10.7791V13.8814H150.35C150.6 13.8814 150.825 13.8731 151.02 13.8565C151.22 13.8399 151.398 13.8026 151.565 13.7404C151.731 13.6782 151.881 13.5911 152.01 13.4708C152.143 13.3547 152.268 13.1971 152.384 12.998C152.5 12.7989 152.609 12.5542 152.713 12.2598C152.817 11.9695 152.921 11.6128 153.029 11.198C153.137 10.7667 153.232 10.3976 153.316 10.0948C153.399 9.79206 153.482 9.54322 153.565 9.34414C153.648 9.14506 153.731 8.99161 153.819 8.88378C153.906 8.7718 154.006 8.693 154.118 8.63908C154.231 8.58931 154.368 8.55613 154.526 8.54369C154.684 8.53125 154.871 8.5271 155.096 8.5271C155.557 8.5271 156.052 8.54784 156.584 8.59346L156.618 9.0953C156.243 9.10774 155.927 9.16165 155.669 9.26119C155.412 9.36073 155.191 9.50589 155.004 9.69252C154.817 9.87916 154.651 10.1073 154.509 10.381C154.364 10.6547 154.218 10.9616 154.064 11.31C153.952 11.563 153.835 11.816 153.715 12.0648C153.594 12.3137 153.469 12.5501 153.332 12.7741C153.195 12.998 153.049 13.2054 152.891 13.392C152.733 13.5828 152.555 13.7445 152.359 13.8773C152.75 14.4496 153.108 15.0095 153.432 15.557C153.756 16.1044 154.056 16.6063 154.334 17.0666C154.596 17.4938 154.829 17.8671 155.046 18.1947C155.258 18.5182 155.457 18.7712 155.644 18.9578C155.74 19.0491 155.836 19.1279 155.927 19.1942C156.019 19.2606 156.114 19.3145 156.21 19.3601C156.306 19.4058 156.41 19.4472 156.518 19.4763C156.626 19.5094 156.751 19.5426 156.892 19.5717L156.917 19.9283C156.526 19.9781 156.202 20.003 155.944 20.003C155.723 20.003 155.528 19.9988 155.358 19.9864C155.191 19.974 155.037 19.9532 154.908 19.92C154.775 19.8869 154.655 19.8454 154.551 19.7956C154.447 19.7459 154.343 19.6795 154.247 19.5965C154.002 19.4182 153.761 19.1528 153.524 18.8002C153.286 18.4477 153.037 18.0371 152.775 17.5602C152.563 17.1869 152.347 16.797 152.13 16.3906C151.91 15.9841 151.673 15.586 151.411 15.192C151.336 15.08 151.269 14.9846 151.215 14.9058C151.161 14.827 151.103 14.7648 151.041 14.7192C150.978 14.6736 150.908 14.6404 150.829 14.6238C150.75 14.6031 150.65 14.5948 150.525 14.5948H149.498V14.5989Z" fill="#B19578"/>
<path d="M163.65 8.35706L167.259 18.2694C167.397 18.6426 167.517 18.8956 167.63 19.0283C167.742 19.1611 167.9 19.2606 168.104 19.3228L168.869 19.5509L168.886 19.8993C168.174 19.8827 167.517 19.8744 166.91 19.8744C166.29 19.8744 165.563 19.8827 164.723 19.8993L164.689 19.5509L165.463 19.3228C165.571 19.2855 165.65 19.244 165.696 19.1984C165.742 19.1528 165.766 19.0823 165.766 18.9827C165.766 18.8749 165.737 18.7339 165.683 18.5555C165.625 18.3814 165.546 18.1449 165.442 17.8546L164.677 15.6814H160.759L159.907 17.8463C159.795 18.1491 159.703 18.3896 159.637 18.568C159.57 18.7463 159.541 18.8873 159.541 18.991C159.541 19.0823 159.566 19.1528 159.62 19.1984C159.67 19.244 159.749 19.2813 159.853 19.3145L160.61 19.5343L160.626 19.8993C159.857 19.8827 159.229 19.8744 158.742 19.8744C158.256 19.8744 157.711 19.8827 157.108 19.8993L157.066 19.5509L157.886 19.2979C158.094 19.2316 158.243 19.132 158.339 18.9993C158.435 18.8625 158.543 18.6551 158.663 18.3689L162.818 8.48148L163.65 8.35706ZM161.059 14.9473H164.407L162.822 10.4805L161.059 14.9473Z" fill="#B19578"/>
<path d="M83.2414 29.1978L82.6966 31.2466L82.3722 31.2964L81.8856 28.7333L81.9355 28.6752C83.0667 28.3849 84.1064 28.2397 85.0463 28.2397C86.2939 28.2397 87.2462 28.4679 87.9116 28.9241C88.577 29.3803 88.9056 30.0563 88.9056 30.9522C88.9056 31.6406 88.7143 32.2047 88.3317 32.6526C87.9491 33.1005 87.4209 33.4406 86.7514 33.6646C87.6247 33.8139 88.2735 34.1457 88.706 34.6475C89.1385 35.1535 89.3506 35.7714 89.3506 36.4972C89.3506 37.6419 88.9347 38.5129 88.1029 39.1101C87.2712 39.7073 86.1442 40.006 84.7261 40.006C83.7446 40.006 82.7507 39.8359 81.7442 39.4958L81.6943 39.4378L82.1102 36.6424L82.4845 36.576L83.0626 38.9815C83.6198 39.2014 84.2062 39.3133 84.8175 39.3133C85.6909 39.3133 86.3688 39.0811 86.8512 38.6207C87.3336 38.1604 87.5748 37.5134 87.5748 36.688C87.5748 35.8585 87.3253 35.2281 86.8304 34.801C86.3355 34.3738 85.6243 34.1581 84.6969 34.1581C84.4141 34.1581 84.0149 34.2037 83.4951 34.2867L83.4452 33.3286C84.0232 33.3991 84.4433 33.4323 84.6969 33.4323C85.5162 33.4323 86.1234 33.2291 86.5268 32.8226C86.926 32.4162 87.1298 31.8521 87.1298 31.1222C87.1298 30.384 86.926 29.8241 86.5143 29.4466C86.1068 29.0692 85.537 28.8826 84.8051 28.8826C84.2935 28.9075 83.7737 29.0029 83.2414 29.1978Z" fill="#B19578"/>
<path d="M91.9751 39.7903L91.3014 43.2119L90.8688 43.27L90.4072 39.1101L90.4571 39.0521H91.7671C92.0874 38.6954 92.3785 38.2724 92.6363 37.7788C92.9108 37.2687 93.1603 36.7295 93.3807 36.1489C93.6011 35.5724 93.7924 34.971 93.9546 34.3448C94.1168 33.7226 94.2541 33.1088 94.3663 32.5116C94.4786 31.9144 94.5618 31.3503 94.6159 30.8153C94.6699 30.2803 94.699 29.8075 94.699 29.3886C94.699 29.26 94.62 29.1729 94.462 29.1273L93.1936 28.7872L93.1769 28.4388C93.913 28.4596 94.5244 28.472 95.0068 28.472H98.995C99.6438 28.472 100.317 28.4596 101.012 28.4388L101.045 28.7872L100.047 29.0858C99.9058 29.1356 99.8351 29.2227 99.8268 29.3471C99.8226 29.5628 99.8184 29.8033 99.8143 30.0688C99.8101 30.3342 99.8101 30.6287 99.8101 30.9522V37.5009C99.8101 37.8037 99.8101 38.0608 99.8143 38.2724C99.8184 38.4839 99.8226 38.6498 99.8268 38.7742C99.8309 38.9567 99.8933 39.0479 100.006 39.0479H101.478L101.528 39.106L101.074 43.2078L100.642 43.2658L99.9598 39.7903H91.9751ZM98.2173 39.0562V29.2144H95.5599C95.5017 30.0397 95.4185 30.8775 95.3145 31.7236C95.2106 32.5697 95.0609 33.4074 94.8654 34.2452C94.6658 35.0789 94.4121 35.9 94.0919 36.7088C93.7758 37.5175 93.3682 38.2972 92.8692 39.0562H98.2173Z" fill="#B19578"/>
<path d="M114.885 33.8762C114.885 35.7466 114.353 37.248 113.288 38.3844C112.223 39.5208 110.735 40.089 108.826 40.089C107.012 40.089 105.607 39.5623 104.613 38.513C103.619 37.4637 103.124 36.0411 103.124 34.2453C103.124 32.3748 103.656 30.8983 104.729 29.8075C105.798 28.7168 107.283 28.1735 109.175 28.1735C110.992 28.1735 112.402 28.6836 113.392 29.6997C114.39 30.7241 114.885 32.1135 114.885 33.8762ZM104.908 33.9798C104.908 35.7425 105.266 37.0904 105.981 38.0277C106.696 38.965 107.744 39.4337 109.125 39.4337C110.485 39.4337 111.487 39.0065 112.136 38.1563C112.785 37.3061 113.105 35.9706 113.105 34.1499C113.105 32.4411 112.76 31.1306 112.074 30.2098C111.387 29.2891 110.323 28.8329 108.888 28.8329C107.495 28.8329 106.484 29.2601 105.852 30.1103C105.22 30.9605 104.908 32.2504 104.908 33.9798Z" fill="#B19578"/>
<path d="M119.804 37.3059C119.804 37.6294 119.805 37.9197 119.809 38.181C119.813 38.4423 119.817 38.6704 119.821 38.8778C119.825 39.0022 119.896 39.0852 120.033 39.1308L121.156 39.4709L121.173 39.8193C120.387 39.8027 119.671 39.7944 119.027 39.7944C118.37 39.7944 117.7 39.8027 117.01 39.8193L116.977 39.4709L117.975 39.1723C118.116 39.1308 118.187 39.0437 118.195 38.9193C118.199 38.7036 118.203 38.4631 118.208 38.1935C118.212 37.928 118.212 37.6294 118.212 37.3059V30.7323C118.212 30.4544 118.212 30.2097 118.208 29.9857C118.203 29.7659 118.199 29.5627 118.195 29.3844C118.191 29.2434 118.124 29.1521 118 29.1106L116.993 28.7954L116.977 28.4471C117.675 28.4678 118.357 28.4802 119.023 28.4802C119.472 28.4802 119.904 28.4678 120.32 28.4471C120.736 28.4263 121.119 28.4139 121.464 28.4139C122.749 28.4139 123.718 28.6627 124.375 29.1646C125.032 29.6622 125.361 30.4088 125.361 31.3959C125.361 32.5571 124.982 33.4613 124.221 34.1041C123.46 34.747 122.391 35.0705 121.019 35.0705C120.64 35.0705 120.237 35.0456 119.804 34.9958V37.3059ZM119.804 34.3115C120.183 34.3779 120.557 34.4069 120.927 34.4069C121.792 34.4069 122.454 34.1829 122.907 33.7392C123.36 33.2954 123.585 32.6111 123.585 31.6945C123.585 30.8152 123.369 30.1558 122.94 29.7245C122.508 29.2931 121.83 29.0775 120.902 29.0775C120.541 29.0775 120.175 29.0982 119.804 29.1438V34.3115Z" fill="#B19578"/>
<path d="M138.914 33.8762C138.914 35.7466 138.382 37.248 137.317 38.3844C136.253 39.5208 134.764 40.089 132.855 40.089C131.042 40.089 129.636 39.5623 128.642 38.513C127.648 37.4637 127.153 36.0411 127.153 34.2453C127.153 32.3748 127.686 30.8983 128.759 29.8075C129.827 28.7168 131.312 28.1735 133.204 28.1735C135.022 28.1735 136.431 28.6836 137.421 29.6997C138.419 30.7241 138.914 32.1135 138.914 33.8762ZM128.937 33.9798C128.937 35.7425 129.295 37.0904 130.01 38.0277C130.726 38.965 131.774 39.4337 133.154 39.4337C134.514 39.4337 135.517 39.0065 136.165 38.1563C136.814 37.3061 137.134 35.9706 137.134 34.1499C137.134 32.4411 136.789 31.1306 136.103 30.2098C135.417 29.2891 134.352 28.8329 132.917 28.8329C131.524 28.8329 130.514 29.2601 129.881 30.1103C129.253 30.9647 128.937 32.2504 128.937 33.9798Z" fill="#B19578"/>
<path d="M141.006 28.4472C141.705 28.4679 142.391 28.4803 143.06 28.4803C143.314 28.4679 143.726 28.4555 144.291 28.4306C144.857 28.4098 145.244 28.3974 145.439 28.3974C146.628 28.3974 147.527 28.6172 148.138 29.0568C148.745 29.4965 149.053 30.131 149.053 30.9564C149.053 32.2877 148.334 33.1918 146.899 33.6729C147.739 33.8139 148.383 34.125 148.833 34.6061C149.282 35.0872 149.506 35.701 149.506 36.4434C149.506 37.5259 149.111 38.3595 148.325 38.9526C147.535 39.5456 146.445 39.8401 145.048 39.8401C144.77 39.8401 144.47 39.8318 144.146 39.8152C143.821 39.7986 143.46 39.7903 143.056 39.7903C142.399 39.7903 141.725 39.7986 141.039 39.8152L141.006 39.4668L142.004 39.1682C142.141 39.1309 142.212 39.048 142.224 38.9152C142.229 38.6996 142.233 38.459 142.237 38.1894C142.241 37.924 142.241 37.6254 142.241 37.3019V30.7324C142.241 30.4545 142.241 30.2098 142.237 29.9859C142.233 29.766 142.229 29.5628 142.224 29.3845C142.22 29.2435 142.154 29.1522 142.029 29.1108L141.022 28.7956L141.006 28.4472ZM143.834 33.5029C144.166 33.507 144.508 33.5112 144.853 33.5112C145.651 33.5112 146.254 33.3204 146.662 32.9305C147.069 32.5448 147.273 31.9849 147.273 31.2508C147.273 30.4794 147.065 29.9236 146.645 29.5836C146.225 29.2435 145.626 29.0776 144.836 29.0776C144.695 29.0776 144.541 29.0817 144.374 29.09C144.208 29.0983 144.025 29.1108 143.834 29.1356V33.5029ZM143.834 34.1499V39.0687C143.996 39.1268 144.183 39.1641 144.395 39.1807C144.607 39.1973 144.803 39.2056 144.982 39.2056C145.876 39.2056 146.558 38.9857 147.024 38.542C147.489 38.0982 147.722 37.4553 147.722 36.6134C147.722 35.7715 147.485 35.1452 147.015 34.7388C146.541 34.3323 145.78 34.125 144.728 34.125C144.424 34.1291 144.125 34.1333 143.834 34.1499Z" fill="#B19578"/>
<path d="M163.205 33.8762C163.205 35.7466 162.673 37.248 161.608 38.3844C160.544 39.5208 159.055 40.089 157.146 40.089C155.333 40.089 153.927 39.5623 152.933 38.513C151.939 37.4637 151.444 36.0411 151.444 34.2453C151.444 32.3748 151.977 30.8983 153.05 29.8075C154.118 28.7168 155.603 28.1735 157.495 28.1735C159.313 28.1735 160.722 28.6836 161.712 29.6997C162.706 30.7241 163.205 32.1135 163.205 33.8762ZM153.224 33.9798C153.224 35.7425 153.582 37.0904 154.297 38.0277C155.013 38.965 156.061 39.4337 157.441 39.4337C158.801 39.4337 159.803 39.0065 160.452 38.1563C161.101 37.3061 161.421 35.9706 161.421 34.1499C161.421 32.4411 161.076 31.1306 160.39 30.2098C159.704 29.2891 158.639 28.8329 157.204 28.8329C155.811 28.8329 154.8 29.2601 154.168 30.1103C153.536 30.9605 153.224 32.2504 153.224 33.9798Z" fill="#B19578"/>
<path d="M168.126 37.6793V38.9111C168.126 39.0521 168.201 39.1433 168.355 39.1848L169.257 39.4668L169.282 39.8152C168.637 39.7986 167.993 39.7903 167.348 39.7903C166.704 39.7903 166.03 39.7986 165.331 39.8152L165.298 39.4668L166.296 39.1682C166.437 39.1267 166.508 39.0396 166.516 38.9152C166.529 38.4756 166.533 37.9406 166.533 37.3019V30.7324C166.533 30.1932 166.529 29.7411 166.516 29.3886C166.512 29.2476 166.446 29.1564 166.321 29.1149L165.314 28.7997L165.298 28.4513C165.997 28.472 166.67 28.4845 167.315 28.4845C167.964 28.4845 168.608 28.472 169.24 28.4513L169.282 28.7997L168.355 29.0817C168.217 29.1149 168.147 29.1978 168.142 29.3347C168.13 29.7246 168.126 30.1808 168.126 30.7033V36.5139L174.164 30.1268V29.3347C174.164 29.2103 174.089 29.1273 173.936 29.0817L173.033 28.7997L173.008 28.4513C173.669 28.472 174.326 28.4845 174.979 28.4845C175.628 28.4845 176.289 28.472 176.967 28.4513L177.001 28.7997L175.977 29.1149C175.853 29.1564 175.786 29.2517 175.782 29.3886C175.765 29.7453 175.757 30.1932 175.757 30.7324V37.306C175.757 37.9447 175.765 38.4797 175.782 38.9194C175.786 39.0438 175.861 39.1267 176.002 39.1724L176.984 39.471L177.001 39.8194C176.281 39.8028 175.595 39.7945 174.95 39.7945C174.306 39.7945 173.669 39.8028 173.054 39.8194L173.012 39.471L173.94 39.1889C174.077 39.1516 174.143 39.0604 174.152 38.9152L174.168 37.3102V31.2964L168.126 37.6793Z" fill="#B19578"/>
<path d="M88.0856 48.363C88.672 48.3837 89.2667 48.3962 89.8739 48.3962C90.4686 48.3962 91.0466 48.3837 91.6039 48.363L91.6372 48.7114L90.8179 48.9726C90.6973 49.01 90.5975 49.0556 90.5143 49.1137C90.4311 49.1717 90.3563 49.2381 90.2939 49.321C90.2315 49.404 90.1733 49.4994 90.1234 49.6072C90.0735 49.7192 90.0236 49.8477 89.9737 50.0012C89.6826 50.7851 89.3915 51.5482 89.1045 52.2906C88.8176 53.033 88.5223 53.7671 88.2187 54.497C87.9151 55.2228 87.599 55.9486 87.2705 56.6744C86.942 57.4002 86.5968 58.126 86.235 58.8642C86.0894 59.167 85.9605 59.4117 85.8524 59.5983C85.7443 59.7849 85.6195 59.9343 85.4739 60.0421C85.3284 60.1541 85.1579 60.2287 84.9582 60.2702C84.7586 60.3117 84.4966 60.3324 84.1681 60.3324C83.7023 60.3324 83.1991 60.2909 82.6585 60.2121L82.6252 59.8637L83.1367 59.7684C83.5069 59.702 83.8229 59.5983 84.0891 59.449C84.3552 59.2997 84.5923 59.1172 84.8044 58.8933C85.0165 58.6734 85.2119 58.4163 85.3949 58.1218C85.5779 57.8315 85.7734 57.508 85.9855 57.1555L82.305 50.0054C82.2343 49.8726 82.1677 49.7441 82.1095 49.6321C82.0513 49.5201 81.9848 49.4164 81.9141 49.3293C81.8434 49.2381 81.7643 49.1634 81.6729 49.0971C81.5814 49.0307 81.4691 48.9809 81.336 48.9436L80.5957 48.7155L80.5791 48.3671C81.0781 48.3879 81.7394 48.4003 82.5711 48.4003C83.2199 48.4003 83.9893 48.3879 84.8792 48.3671L84.9125 48.7155L84.1473 48.9353C83.9186 48.9892 83.8063 49.1095 83.8063 49.3003C83.8063 49.4289 83.852 49.5865 83.9394 49.7731C84.0309 49.9597 84.139 50.1712 84.2679 50.4077L86.8754 55.4882C87.2663 54.6256 87.6115 53.7836 87.9151 52.9666C88.2187 52.1496 88.5181 51.3367 88.8092 50.5279C88.9382 50.1671 89.0338 49.8892 89.092 49.7026C89.1503 49.516 89.1835 49.3666 89.1835 49.2588C89.1835 49.1717 89.1627 49.1054 89.117 49.0556C89.0754 49.0058 88.9964 48.9685 88.8883 48.9436L88.0981 48.7404L88.0856 48.363Z" fill="#B19578"/>
<path d="M99.5976 50.8763V57.2219C99.5976 57.5454 99.5976 57.8398 99.6017 58.1094C99.6059 58.379 99.6101 58.6195 99.6142 58.8352C99.6184 58.9596 99.6974 59.0426 99.8429 59.084L100.816 59.3827L100.841 59.731C100.122 59.7145 99.4354 59.7062 98.7908 59.7062C98.142 59.7062 97.5099 59.7145 96.8861 59.731L96.8528 59.3827L97.7802 59.1006C97.9174 59.0592 97.984 58.9638 97.9923 58.8269C97.9965 58.6112 98.0006 58.3707 98.0048 58.1053C98.0089 57.8398 98.0089 57.5454 98.0089 57.2219V49.1344H95.2683C95.2351 49.9763 95.1727 50.8224 95.077 51.6685C94.9814 52.5145 94.84 53.3523 94.6528 54.1859C94.4657 55.0196 94.2287 55.8408 93.9375 56.6495C93.6464 57.4624 93.2888 58.2546 92.8604 59.0343C92.7773 59.1711 92.7024 59.2873 92.6275 59.391C92.5527 59.4946 92.457 59.5776 92.3406 59.6439C92.22 59.7103 92.0744 59.7601 91.8956 59.7933C91.7168 59.8264 91.488 59.843 91.2053 59.843C90.7727 59.843 90.2695 59.7933 89.6915 59.6979L89.6582 59.3495L90.1281 59.2624C90.3236 59.2292 90.4858 59.1919 90.6189 59.1504C90.7519 59.1089 90.8726 59.055 90.9848 58.9928C91.0971 58.9306 91.2011 58.8559 91.3051 58.7605C91.409 58.6693 91.5255 58.549 91.6544 58.4039C91.9829 58.043 92.2824 57.6242 92.5444 57.1514C92.8064 56.6785 93.0393 56.1767 93.243 55.6417C93.4468 55.1067 93.6215 54.5551 93.7712 53.9869C93.9209 53.4187 94.0415 52.8629 94.133 52.3113C94.2245 51.7639 94.291 51.233 94.3368 50.7187C94.3825 50.2044 94.4033 49.7399 94.4033 49.3169C94.4033 49.1925 94.316 49.1054 94.1413 49.0597L92.8979 48.7197L92.8812 48.3713C93.6132 48.392 94.1912 48.4045 94.6196 48.4045H98.7825C99.4312 48.4045 100.101 48.392 100.795 48.3713L100.837 48.7197L99.8388 49.0183C99.7016 49.0597 99.6267 49.1468 99.6101 49.2796C99.6059 49.4952 99.6017 49.7358 99.5976 50.0012C99.5976 50.2583 99.5976 50.5528 99.5976 50.8763Z" fill="#B19578"/>
<path d="M105.736 50.615V53.2818C106.168 53.2403 106.592 53.2154 107.008 53.2154C108.406 53.2154 109.454 53.4809 110.148 54.0118C110.843 54.5426 111.188 55.2975 111.188 56.2762C111.188 56.9025 111.071 57.4375 110.838 57.8813C110.606 58.3251 110.294 58.6817 109.903 58.9596C109.512 59.2333 109.05 59.4366 108.526 59.5651C108.002 59.6937 107.453 59.7559 106.871 59.7559C106.609 59.7559 106.322 59.7476 106.006 59.731C105.694 59.7144 105.341 59.7062 104.954 59.7062C104.293 59.7062 103.619 59.7144 102.933 59.731L102.899 59.3826L103.898 59.084C104.035 59.0467 104.105 58.9638 104.118 58.8352C104.122 58.6195 104.126 58.379 104.13 58.1094C104.135 57.844 104.135 57.5453 104.135 57.2219V50.6482C104.135 50.3745 104.135 50.1256 104.13 49.9017C104.126 49.6819 104.122 49.4786 104.118 49.3003C104.114 49.1593 104.047 49.068 103.922 49.0266L102.916 48.7114L102.899 48.363C103.598 48.3837 104.272 48.3962 104.916 48.3962C105.565 48.3962 106.264 48.3837 107.012 48.363L107.054 48.7114L105.956 49.0349C105.819 49.0846 105.748 49.1676 105.744 49.2878C105.74 49.4786 105.736 49.6819 105.732 49.9058C105.736 50.1339 105.736 50.3703 105.736 50.615ZM105.736 53.9412V58.9886C106.006 59.0799 106.368 59.1255 106.817 59.1255C107.678 59.1255 108.327 58.9015 108.759 58.4495C109.192 57.9974 109.408 57.338 109.408 56.467C109.408 55.5919 109.179 54.9449 108.722 54.526C108.264 54.1071 107.549 53.8998 106.58 53.8998C106.459 53.8998 106.33 53.9039 106.185 53.9122C106.043 53.9205 105.894 53.9288 105.736 53.9412ZM114.49 57.2219C114.49 57.5453 114.49 57.8398 114.494 58.1053C114.498 58.3707 114.502 58.6112 114.506 58.8269C114.511 58.9638 114.606 59.055 114.789 59.1006L115.708 59.3826L115.725 59.731C115.026 59.7144 114.353 59.7062 113.704 59.7062C113.051 59.7062 112.381 59.7144 111.691 59.731L111.649 59.3826L112.647 59.084C112.789 59.0467 112.864 58.9638 112.876 58.8352C112.88 58.6195 112.885 58.379 112.889 58.1094C112.893 57.844 112.893 57.5453 112.893 57.2219V50.6482C112.893 50.3745 112.893 50.1256 112.889 49.9017C112.885 49.6819 112.88 49.4786 112.876 49.3003C112.872 49.1593 112.801 49.068 112.672 49.0266L111.674 48.7114L111.649 48.363C112.352 48.3837 113.026 48.3962 113.671 48.3962C114.323 48.3962 114.997 48.3837 115.692 48.363L115.725 48.7114L114.719 49.01C114.59 49.0432 114.519 49.1261 114.506 49.263C114.502 49.4496 114.498 49.657 114.494 49.8851C114.49 50.109 114.49 50.3537 114.49 50.6192V57.2219Z" fill="#B19578"/>
<path d="M124.351 49.1178H120.62V53.3482C121.144 53.2984 121.656 53.2735 122.155 53.2735C123.598 53.2735 124.654 53.5182 125.332 54.0076C126.01 54.497 126.347 55.2186 126.347 56.1767C126.347 57.3255 125.956 58.2131 125.17 58.831C124.384 59.449 123.286 59.7601 121.88 59.7601C121.606 59.7601 121.298 59.7518 120.957 59.7352C120.62 59.7186 120.246 59.7103 119.838 59.7103C119.181 59.7103 118.512 59.7186 117.821 59.7352L117.788 59.3868L118.786 59.0882C118.928 59.0467 118.998 58.9596 119.007 58.8393C119.011 58.6237 119.015 58.3831 119.019 58.1135C119.023 57.8481 119.023 57.5495 119.023 57.226V50.6523C119.023 50.3786 119.023 50.1298 119.019 49.9058C119.015 49.686 119.011 49.4828 119.007 49.3044C119.002 49.1634 118.936 49.0722 118.811 49.0307L117.805 48.7155L117.788 48.3671C118.487 48.3879 119.16 48.4003 119.805 48.4003H121.876C122.55 48.4003 123.194 48.3962 123.81 48.392C124.425 48.3879 125.058 48.3796 125.702 48.3671L125.752 48.4335L125.216 51.1583L124.891 51.2081L124.351 49.1178ZM120.62 59.0301C121.019 59.0965 121.419 59.1255 121.805 59.1255C122.712 59.1255 123.402 58.9057 123.876 58.4702C124.355 58.0306 124.592 57.3753 124.592 56.4919C124.592 55.6334 124.367 54.9947 123.918 54.5758C123.469 54.1569 122.758 53.9495 121.78 53.9495C121.452 53.9495 121.061 53.9744 120.62 54.0242V59.0301Z" fill="#B19578"/>
<path d="M131.121 54.4348V57.2219C131.121 57.5454 131.121 57.8357 131.125 58.097C131.129 58.3582 131.133 58.5905 131.138 58.802C131.142 58.9679 131.212 59.0757 131.35 59.1172L132.252 59.3868L132.277 59.7352C131.632 59.7186 130.988 59.7103 130.343 59.7103C129.686 59.7103 129.017 59.7186 128.326 59.7352L128.293 59.3868L129.291 59.0882C129.428 59.0509 129.499 58.9679 129.511 58.8393C129.516 58.6237 129.52 58.3831 129.524 58.1135C129.528 57.8481 129.528 57.5495 129.528 57.226V50.6523C129.528 50.3786 129.528 50.1298 129.524 49.9058C129.52 49.686 129.516 49.4828 129.511 49.3044C129.507 49.1634 129.441 49.0722 129.316 49.0307L128.31 48.7155L128.293 48.3671C128.651 48.3796 128.996 48.3879 129.324 48.392C129.653 48.3962 129.981 48.4003 130.306 48.4003C130.63 48.4003 130.95 48.3962 131.271 48.392C131.587 48.3879 131.907 48.3796 132.235 48.3671L132.277 48.7155L131.35 48.9975C131.212 49.0307 131.142 49.1137 131.138 49.2464C131.133 49.4413 131.129 49.6528 131.125 49.8768C131.121 50.1049 131.121 50.3496 131.121 50.615V53.7173H131.973C132.223 53.7173 132.448 53.709 132.643 53.6924C132.843 53.6758 133.021 53.6385 133.188 53.5763C133.354 53.5141 133.504 53.427 133.633 53.3108C133.766 53.1947 133.891 53.0371 134.007 52.838C134.124 52.639 134.232 52.3943 134.336 52.0998C134.44 51.8095 134.544 51.4528 134.652 51.0381C134.76 50.6067 134.855 50.2376 134.939 49.9348C135.022 49.6321 135.105 49.3832 135.188 49.1842C135.271 48.9851 135.355 48.8316 135.442 48.7238C135.529 48.6118 135.629 48.533 135.741 48.4791C135.854 48.4293 135.991 48.3962 136.149 48.3837C136.307 48.3713 136.494 48.3671 136.719 48.3671C137.18 48.3671 137.675 48.3879 138.207 48.4335L138.241 48.9353C137.866 48.9478 137.55 49.0017 137.292 49.1012C137.035 49.2008 136.814 49.3459 136.627 49.5325C136.44 49.7192 136.274 49.9473 136.132 50.221C135.987 50.4947 135.841 50.8017 135.687 51.15C135.575 51.403 135.458 51.656 135.338 51.9049C135.217 52.1537 135.093 52.3901 134.955 52.6141C134.818 52.838 134.672 53.0454 134.514 53.232C134.356 53.4228 134.178 53.5846 133.982 53.7173C134.373 54.2896 134.731 54.8495 135.055 55.397C135.379 55.9445 135.679 56.4463 135.958 56.9067C136.22 57.3338 136.452 57.7071 136.669 58.0347C136.881 58.3582 137.08 58.6112 137.268 58.7979C137.363 58.8891 137.459 58.9679 137.55 59.0343C137.642 59.1006 137.737 59.1545 137.833 59.2002C137.929 59.2458 138.033 59.2831 138.141 59.3163C138.249 59.3495 138.374 59.3827 138.515 59.4117L138.54 59.7684C138.149 59.8181 137.825 59.843 137.567 59.843C137.347 59.843 137.151 59.8389 136.981 59.8264C136.814 59.814 136.66 59.7932 136.531 59.7601C136.398 59.7269 136.278 59.6854 136.174 59.6356C136.07 59.5859 135.966 59.5195 135.87 59.4366C135.625 59.2582 135.384 58.9928 135.147 58.6444C134.91 58.2919 134.66 57.8813 134.398 57.4043C134.186 57.0311 133.97 56.6412 133.753 56.2389C133.533 55.8325 133.296 55.4343 133.034 55.0403C132.959 54.9283 132.893 54.8329 132.838 54.7541C132.784 54.6753 132.726 54.6131 132.664 54.5675C132.601 54.5219 132.531 54.4887 132.452 54.4721C132.373 54.4514 132.273 54.4431 132.148 54.4431H131.121V54.4348Z" fill="#B19578"/>
<path d="M142.769 57.5951V58.8269C142.769 58.9679 142.844 59.0592 142.998 59.1006L143.901 59.3826L143.925 59.731C143.281 59.7144 142.636 59.7062 141.992 59.7062C141.347 59.7062 140.673 59.7144 139.975 59.731L139.941 59.3826L140.939 59.084C141.081 59.0426 141.152 58.9555 141.16 58.8352C141.172 58.3956 141.177 57.8606 141.177 57.2219V50.6482C141.177 50.109 141.172 49.6611 141.16 49.3044C141.156 49.1634 141.089 49.0722 140.964 49.0307L139.958 48.7155L139.941 48.3671C140.64 48.3879 141.314 48.4003 141.958 48.4003C142.607 48.4003 143.252 48.3879 143.884 48.3671L143.925 48.7155L142.998 48.9975C142.861 49.0307 142.79 49.1137 142.786 49.2464C142.774 49.6362 142.769 50.0924 142.769 50.615V56.4255L148.808 50.0385V49.2422C148.808 49.1178 148.733 49.0349 148.579 48.9934L147.677 48.7114L147.652 48.363C148.313 48.3837 148.97 48.3962 149.623 48.3962C150.272 48.3962 150.933 48.3837 151.611 48.363L151.644 48.7114L150.621 49.0266C150.496 49.068 150.43 49.1593 150.426 49.3003C150.409 49.657 150.401 50.1049 150.401 50.6441V57.2177C150.401 57.8564 150.409 58.3914 150.426 58.831C150.43 58.9555 150.505 59.0384 150.646 59.0799L151.627 59.3785L151.644 59.7269C150.925 59.7103 150.238 59.702 149.594 59.702C148.945 59.702 148.313 59.7103 147.697 59.7269L147.656 59.3785L148.583 59.0965C148.72 59.0592 148.787 58.9679 148.795 58.8228L148.812 57.2177V51.204L142.769 57.5951Z" fill="#B19578"/>
<path d="M50.608 30.505C50.6038 30.4093 50.5955 30.3178 50.5955 30.2222C50.5955 30.3178 50.5872 30.4093 50.583 30.505H50.608Z" fill="#B19578"/>
<path d="M51.6475 17.7634C51.6475 20.7163 49.2479 23.1052 46.291 23.1052C49.252 23.1052 51.6475 25.4983 51.6475 28.4471C51.6475 25.5895 53.8973 23.2628 56.7253 23.1177V23.0886C53.8973 22.9476 51.6475 20.6209 51.6475 17.7634Z" fill="#B19578"/>
<path d="M171.203 23.2089C171.203 24.3743 170.255 25.3199 169.086 25.3199C170.255 25.3199 171.203 26.2655 171.203 27.4309C171.203 26.3028 172.093 25.3821 173.207 25.324V25.3116C172.093 25.2535 171.203 24.337 171.203 23.2089Z" fill="#B19578"/>
<path d="M50.5781 19.2565C50.5823 19.3521 50.5906 19.4436 50.5906 19.5393C50.5906 19.4436 50.5989 19.3521 50.6031 19.2565H50.5781Z" fill="#B19578"/>
<path d="M32.7958 0C14.7136 0 0 14.6735 0 32.7065C0 50.7394 14.7136 65.413 32.7958 65.413C50.878 65.413 65.5916 50.7394 65.5916 32.7065C65.5916 14.6735 50.8821 0 32.7958 0ZM32.7958 63.4015C19.7082 63.4015 8.51293 55.2104 4.06724 43.7013C9.29477 45.3851 14.9673 45.9824 20.777 45.2566C33.0203 43.7262 43.2009 36.6548 49.1354 26.8877C43.1136 33.5858 34.7462 38.2391 25.0938 39.446C16.8761 40.4787 8.93712 38.8613 2.13343 35.2654C2.06273 34.4235 2.01699 33.5692 2.01699 32.7065C2.01699 15.7809 15.824 2.0115 32.7958 2.0115C49.7676 2.0115 63.5746 15.7809 63.5746 32.7065C63.5746 49.6321 49.7676 63.4015 32.7958 63.4015Z" fill="#B19578"/>
</svg>
