<svg width="94" height="35" viewBox="0 0 94 35" fill="none" xmlns="http://www.w3.org/2000/svg">
<path d="M44.8388 7.75308V9.23321C44.8388 9.40501 44.8388 9.5592 44.841 9.69796C44.8432 9.83672 44.8454 9.96006 44.8476 10.0724C44.8498 10.1605 44.8873 10.2178 44.9602 10.2398L45.4395 10.3808L45.4527 10.5658C45.1104 10.557 44.7681 10.5526 44.4257 10.5526C44.0768 10.5526 43.7212 10.557 43.3546 10.5658L43.3369 10.3808L43.867 10.2222C43.9399 10.2023 43.9774 10.1583 43.984 10.0878C43.9862 9.97328 43.9884 9.84553 43.9907 9.70236C43.9929 9.5614 43.9929 9.40281 43.9929 9.23101V5.74212C43.9929 5.59455 43.9929 5.4646 43.9907 5.34566C43.9884 5.22892 43.9862 5.121 43.984 5.02629C43.9818 4.9514 43.9465 4.90294 43.8802 4.88092L43.3457 4.71352L43.3369 4.5285C43.5269 4.53511 43.7102 4.53952 43.8846 4.54172C44.0591 4.54392 44.2336 4.54612 44.4059 4.54612C44.5781 4.54612 44.7482 4.54392 44.9183 4.54172C45.0861 4.53952 45.2562 4.53511 45.4307 4.5285L45.4527 4.71352L44.9602 4.8633C44.8873 4.88092 44.8498 4.92497 44.8476 4.99765C44.8454 5.10117 44.8432 5.21351 44.841 5.33244C44.8388 5.45359 44.8388 5.58354 44.8388 5.7245V7.37203H45.2915C45.424 7.37203 45.5433 7.36763 45.6471 7.35882C45.7531 7.35001 45.8481 7.33018 45.9364 7.29715C46.0248 7.26411 46.1043 7.21785 46.1727 7.15398C46.2434 7.09231 46.3097 7.00861 46.3715 6.90288C46.4334 6.79716 46.4908 6.66721 46.546 6.51083C46.6012 6.35664 46.6564 6.16722 46.7138 5.94696C46.7713 5.7179 46.8221 5.52187 46.8662 5.36108C46.9104 5.20029 46.9546 5.06814 46.9988 4.96241C47.0429 4.85669 47.0871 4.77519 47.1335 4.71793C47.1799 4.65846 47.2329 4.61661 47.2925 4.58797C47.3521 4.56154 47.425 4.54392 47.5089 4.53731C47.5929 4.53071 47.6923 4.5285 47.8115 4.5285C48.0567 4.5285 48.3195 4.53952 48.6022 4.56374L48.6199 4.83026C48.4211 4.83686 48.2532 4.8655 48.1163 4.91836C47.9794 4.97122 47.8623 5.04831 47.7629 5.14743C47.6635 5.24654 47.5752 5.36769 47.5001 5.51306C47.4228 5.65843 47.3455 5.82142 47.2638 6.00643C47.2042 6.14079 47.1423 6.27515 47.0783 6.4073C47.0142 6.53946 46.948 6.66501 46.8751 6.78394C46.8022 6.90288 46.7249 7.01301 46.641 7.11213C46.557 7.21345 46.4621 7.29935 46.3583 7.36983C46.5659 7.67379 46.7558 7.97113 46.9281 8.26188C47.1004 8.55262 47.2594 8.81913 47.4073 9.06362C47.5465 9.29048 47.6702 9.48871 47.785 9.66272C47.8977 9.83452 48.0037 9.96887 48.1031 10.068C48.1539 10.1164 48.2046 10.1583 48.2532 10.1935C48.3018 10.2288 48.3526 10.2574 48.4034 10.2816C48.4542 10.3059 48.5094 10.3279 48.5669 10.3433C48.6243 10.3609 48.6905 10.3786 48.7656 10.394L48.7789 10.5834C48.5713 10.6098 48.399 10.623 48.2621 10.623C48.145 10.623 48.0412 10.6208 47.9507 10.6142C47.8623 10.6076 47.7806 10.5966 47.7121 10.579C47.6415 10.5614 47.5774 10.5393 47.5222 10.5129C47.467 10.4865 47.4118 10.4512 47.361 10.4072C47.2307 10.3125 47.1026 10.1715 46.9767 9.98429C46.8508 9.79707 46.7183 9.57902 46.5791 9.32572C46.4665 9.12749 46.3516 8.92045 46.2368 8.70459C46.1197 8.48874 45.9938 8.27729 45.8547 8.06805C45.815 8.00858 45.7796 7.95792 45.7509 7.91607C45.7222 7.87422 45.6913 7.84118 45.6581 7.81696C45.625 7.79273 45.5875 7.77511 45.5455 7.76629C45.5035 7.75528 45.4505 7.75088 45.3843 7.75088H44.8388V7.75308Z" fill="#B19578"/>
<path d="M54.2697 5.86326V9.23321C54.2697 9.40501 54.2697 9.56139 54.272 9.70456C54.2742 9.84773 54.2764 9.97548 54.2786 10.09C54.2808 10.1561 54.3228 10.2001 54.4001 10.2244L54.9169 10.383L54.9301 10.568C54.548 10.5592 54.1836 10.5548 53.8413 10.5548C53.4967 10.5548 53.161 10.5592 52.8297 10.568L52.8121 10.383L53.3046 10.2332C53.3775 10.2112 53.4128 10.1605 53.4172 10.0878C53.4194 9.97328 53.4216 9.84553 53.4239 9.70456C53.4261 9.5636 53.4261 9.40721 53.4261 9.23541V4.94038H51.9706C51.9529 5.3875 51.9198 5.83683 51.869 6.28616C51.8182 6.73548 51.7431 7.1804 51.6437 7.62312C51.5443 8.06584 51.4185 8.50195 51.2639 8.93145C51.1092 9.36096 50.9193 9.78385 50.6918 10.1957C50.6477 10.2684 50.6079 10.3301 50.5681 10.3852C50.5284 10.4402 50.4776 10.4843 50.4158 10.5217C50.3517 10.557 50.2744 10.5834 50.1794 10.601C50.0845 10.6186 49.963 10.6274 49.8128 10.6274C49.5831 10.6274 49.3159 10.601 49.0089 10.5504L48.9912 10.3653L49.2408 10.3169C49.3446 10.2993 49.4307 10.2794 49.5014 10.2574C49.5721 10.2354 49.6361 10.2067 49.6957 10.1737C49.7554 10.1407 49.8106 10.0988 49.8658 10.0504C49.921 10.0019 49.9829 9.93803 50.0513 9.86094C50.2258 9.66932 50.3848 9.44686 50.524 9.19576C50.6631 8.94467 50.7868 8.67596 50.895 8.39403C51.0032 8.10989 51.096 7.81695 51.1755 7.5152C51.255 7.21344 51.3191 6.9183 51.3677 6.62535C51.4162 6.33461 51.4516 6.05268 51.4759 5.77956C51.498 5.50644 51.5112 5.25975 51.5112 5.03509C51.5112 4.96901 51.4648 4.92276 51.3721 4.89633L50.7117 4.71572L50.7029 4.5307C51.0916 4.54171 51.3986 4.54832 51.6261 4.54832H53.8369C54.1814 4.54832 54.537 4.54171 54.9058 4.5307L54.9279 4.71572L54.3978 4.8743C54.325 4.89633 54.2852 4.94258 54.2764 5.01307C54.2742 5.1276 54.272 5.25535 54.2697 5.39631C54.272 5.53508 54.2697 5.69146 54.2697 5.86326Z" fill="#B19578"/>
<path d="M57.5292 9.43144V10.0856C57.5292 10.1605 57.5689 10.209 57.6507 10.231L58.1299 10.3808L58.1432 10.5658C57.8008 10.557 57.4585 10.5526 57.1162 10.5526C56.7738 10.5526 56.4161 10.557 56.045 10.5658L56.0273 10.3808L56.5574 10.2222C56.6325 10.2001 56.67 10.1539 56.6745 10.0878C56.6811 9.85434 56.6833 9.5702 56.6833 9.23101V5.74212C56.6833 5.45578 56.6811 5.2157 56.6745 5.02848C56.6723 4.9536 56.6369 4.90514 56.5707 4.88311L56.0362 4.71572L56.0273 4.5307C56.3984 4.54171 56.7562 4.54832 57.0985 4.54832C57.4431 4.54832 57.7854 4.54171 58.1211 4.5307L58.1432 4.71572L57.6507 4.86549C57.5778 4.88311 57.5402 4.92717 57.538 4.99985C57.5314 5.20689 57.5292 5.44918 57.5292 5.7267V8.81251L60.7361 5.42054V4.99985C60.7361 4.93377 60.6963 4.88972 60.6146 4.86549L60.1353 4.71572L60.1221 4.5307C60.4732 4.54171 60.8222 4.54832 61.1689 4.54832C61.5135 4.54832 61.8647 4.54171 62.2247 4.5307L62.2423 4.71572L61.699 4.88311C61.6327 4.90514 61.5974 4.9558 61.5952 5.02848C61.5864 5.21791 61.582 5.45578 61.582 5.74212V9.23321C61.582 9.5724 61.5864 9.85654 61.5952 10.09C61.5974 10.1561 61.6372 10.2001 61.7123 10.2244L62.2335 10.383L62.2423 10.568C61.8602 10.5592 61.4958 10.5548 61.1535 10.5548C60.8112 10.5548 60.4732 10.5592 60.1464 10.568L60.1243 10.383L60.6168 10.2332C60.6897 10.2134 60.725 10.1649 60.7294 10.0878L60.7383 9.23541V6.04167L57.5292 9.43144Z" fill="#B19578"/>
<path d="M64.8378 7.57687V9.23321C64.8378 9.5724 64.84 9.85654 64.8466 10.0856C64.8488 10.1627 64.8864 10.2112 64.9593 10.231L65.4385 10.3808L65.4518 10.5658C65.1094 10.557 64.7671 10.5526 64.4248 10.5526C64.0824 10.5526 63.7247 10.557 63.3536 10.5658L63.3359 10.3808L63.866 10.2222C63.9411 10.2001 63.9786 10.1539 63.9831 10.0878C63.9897 9.85434 63.9919 9.5702 63.9919 9.23101V5.74212C63.9919 5.45578 63.9897 5.2157 63.9831 5.02848C63.9809 4.9536 63.9455 4.90514 63.8793 4.88311L63.3448 4.71572L63.3359 4.5307C63.707 4.54171 64.0648 4.54832 64.4071 4.54832C64.7516 4.54832 65.094 4.54171 65.4297 4.5307L65.4518 4.71572L64.9593 4.86549C64.8864 4.88311 64.8488 4.92717 64.8466 4.99985C64.84 5.20689 64.8378 5.44918 64.8378 5.7267V7.18481H67.9806V5.7267C67.9806 5.44918 67.9784 5.20689 67.9718 4.99985C67.9696 4.92937 67.932 4.88311 67.8591 4.86549L67.3799 4.71572L67.371 4.5307C67.7222 4.54171 68.069 4.54832 68.4113 4.54832C68.7536 4.54832 69.1048 4.54171 69.4648 4.5307L69.4825 4.71572L68.9391 4.88311C68.8729 4.90514 68.8375 4.9558 68.8353 5.02848C68.8287 5.21791 68.8265 5.45578 68.8265 5.74212V9.23321C68.8265 9.5724 68.8287 9.85654 68.8353 10.09C68.8375 10.1561 68.8773 10.2001 68.9524 10.2244L69.4736 10.383L69.4825 10.568C69.1026 10.5592 68.7404 10.5548 68.3958 10.5548C68.0535 10.5548 67.7178 10.5592 67.3909 10.568L67.3732 10.383L67.8613 10.2332C67.9342 10.2134 67.9696 10.1649 67.974 10.0878C67.9806 9.85874 67.9828 9.57461 67.9828 9.23541V7.57687H64.8378Z" fill="#B19578"/>
<path d="M72.0868 9.43144V10.0856C72.0868 10.1605 72.1266 10.209 72.2083 10.231L72.6875 10.3808L72.7008 10.5658C72.3585 10.557 72.0161 10.5526 71.6738 10.5526C71.3315 10.5526 70.9737 10.557 70.6026 10.5658L70.585 10.3808L71.115 10.2222C71.1901 10.2001 71.2277 10.1539 71.2321 10.0878C71.2387 9.85434 71.2409 9.5702 71.2409 9.23101V5.74212C71.2409 5.45578 71.2387 5.2157 71.2321 5.02848C71.2299 4.9536 71.1945 4.90514 71.1283 4.88311L70.5938 4.71572L70.585 4.5307C70.956 4.54171 71.3138 4.54832 71.6561 4.54832C72.0007 4.54832 72.343 4.54171 72.6787 4.5307L72.7008 4.71572L72.2083 4.86549C72.1354 4.88311 72.0978 4.92717 72.0956 4.99985C72.089 5.20689 72.0868 5.44918 72.0868 5.7267V8.81251L75.2937 5.42054V4.99985C75.2937 4.93377 75.2539 4.88972 75.1722 4.86549L74.6929 4.71572L74.6797 4.5307C75.0309 4.54171 75.3798 4.54832 75.7266 4.54832C76.0711 4.54832 76.4223 4.54171 76.7823 4.5307L76.7999 4.71572L76.2566 4.88311C76.1904 4.90514 76.155 4.9558 76.1528 5.02848C76.144 5.21791 76.1396 5.45578 76.1396 5.74212V9.23321C76.1396 9.5724 76.144 9.85654 76.1528 10.09C76.155 10.1561 76.1948 10.2001 76.2699 10.2244L76.7911 10.383L76.7999 10.568C76.4179 10.5592 76.0534 10.5548 75.7111 10.5548C75.3666 10.5548 75.0309 10.5592 74.704 10.568L74.6819 10.383L75.1744 10.2332C75.2473 10.2134 75.2826 10.1649 75.2871 10.0878L75.2959 9.23541V6.04167L72.0868 9.43144Z" fill="#B19578"/>
<path d="M79.3944 7.75308V9.23321C79.3944 9.40501 79.3944 9.5592 79.3966 9.69796C79.3988 9.83672 79.401 9.96006 79.4033 10.0724C79.4055 10.1605 79.443 10.2178 79.5159 10.2398L79.9952 10.3808L80.0084 10.5658C79.6661 10.557 79.3237 10.5526 78.9814 10.5526C78.6325 10.5526 78.2769 10.557 77.9103 10.5658L77.8926 10.3808L78.4226 10.2222C78.4955 10.2023 78.5331 10.1583 78.5397 10.0878C78.5419 9.97328 78.5441 9.84553 78.5463 9.70236C78.5485 9.5614 78.5485 9.40281 78.5485 9.23101V5.74212C78.5485 5.59455 78.5485 5.4646 78.5463 5.34566C78.5441 5.22892 78.5419 5.121 78.5397 5.02629C78.5375 4.9514 78.5022 4.90294 78.4359 4.88092L77.9014 4.71352L77.8926 4.5285C78.0825 4.53511 78.2658 4.53952 78.4403 4.54172C78.6148 4.54392 78.7893 4.54612 78.9615 4.54612C79.1338 4.54612 79.3039 4.54392 79.4739 4.54172C79.6418 4.53952 79.8118 4.53511 79.9863 4.5285L80.0084 4.71352L79.5159 4.8633C79.443 4.88092 79.4055 4.92497 79.4033 4.99765C79.401 5.10117 79.3988 5.21351 79.3966 5.33244C79.3944 5.45359 79.3944 5.58354 79.3944 5.7245V7.37203H79.8472C79.9797 7.37203 80.099 7.36763 80.2028 7.35882C80.3088 7.35001 80.4038 7.33018 80.4921 7.29715C80.5804 7.26411 80.6599 7.21785 80.7284 7.15398C80.7991 7.09231 80.8653 7.00861 80.9272 6.90288C80.989 6.79716 81.0464 6.66721 81.1017 6.51083C81.1569 6.35664 81.2121 6.16722 81.2695 5.94696C81.3269 5.7179 81.3777 5.52187 81.4219 5.36108C81.4661 5.20029 81.5103 5.06814 81.5544 4.96241C81.5986 4.85669 81.6428 4.77519 81.6891 4.71793C81.7355 4.65846 81.7885 4.61661 81.8482 4.58797C81.9078 4.56154 81.9807 4.54392 82.0646 4.53731C82.1485 4.53071 82.2479 4.5285 82.3672 4.5285C82.6123 4.5285 82.8752 4.53952 83.1579 4.56374L83.1755 4.83026C82.9768 4.83686 82.8089 4.8655 82.672 4.91836C82.535 4.97122 82.418 5.04831 82.3186 5.14743C82.2192 5.24654 82.1309 5.36769 82.0558 5.51306C81.9785 5.65843 81.9012 5.82142 81.8195 6.00643C81.7598 6.14079 81.698 6.27515 81.6339 6.4073C81.5699 6.53946 81.5036 6.66501 81.4307 6.78394C81.3579 6.90288 81.2806 7.01301 81.1966 7.11213C81.1127 7.21345 81.0177 7.29935 80.9139 7.36983C81.1215 7.67379 81.3115 7.97113 81.4838 8.26188C81.656 8.55262 81.815 8.81913 81.963 9.06362C82.1022 9.29048 82.2258 9.48871 82.3407 9.66272C82.4533 9.83452 82.5593 9.96887 82.6587 10.068C82.7095 10.1164 82.7603 10.1583 82.8089 10.1935C82.8575 10.2288 82.9083 10.2574 82.9591 10.2816C83.0099 10.3059 83.0651 10.3279 83.1225 10.3433C83.1799 10.3609 83.2462 10.3786 83.3213 10.394L83.3346 10.5834C83.1269 10.6098 82.9547 10.623 82.8177 10.623C82.7007 10.623 82.5969 10.6208 82.5063 10.6142C82.418 10.6076 82.3363 10.5966 82.2678 10.579C82.1971 10.5614 82.1331 10.5393 82.0779 10.5129C82.0226 10.4865 81.9674 10.4512 81.9166 10.4072C81.7863 10.3125 81.6582 10.1715 81.5323 9.98429C81.4065 9.79707 81.2739 9.57902 81.1348 9.32572C81.0222 9.12749 80.9073 8.92045 80.7925 8.70459C80.6754 8.48874 80.5495 8.27729 80.4104 8.06805C80.3706 8.00858 80.3353 7.95792 80.3066 7.91607C80.2779 7.87422 80.2469 7.84118 80.2138 7.81696C80.1807 7.79273 80.1431 7.77511 80.1012 7.76629C80.0592 7.75528 80.0062 7.75088 79.9399 7.75088H79.3944V7.75308Z" fill="#B19578"/>
<path d="M86.9103 4.43823L88.8273 9.7024C88.9002 9.90063 88.9643 10.035 89.0239 10.1055C89.0835 10.176 89.1674 10.2288 89.2757 10.2619L89.682 10.383L89.6909 10.568C89.3132 10.5592 88.9643 10.5548 88.6418 10.5548C88.3127 10.5548 87.9262 10.5592 87.4801 10.568L87.4624 10.383L87.8732 10.2619C87.9306 10.242 87.9726 10.22 87.9969 10.1958C88.0212 10.1715 88.0344 10.1341 88.0344 10.0812C88.0344 10.024 88.019 9.94909 87.9903 9.85438C87.9593 9.76187 87.9174 9.63632 87.8622 9.48214L87.4558 8.32799H85.3753L84.9225 9.47773C84.8629 9.63852 84.8143 9.76627 84.779 9.86098C84.7436 9.95569 84.7282 10.0306 84.7282 10.0856C84.7282 10.1341 84.7414 10.1715 84.7701 10.1958C84.7966 10.22 84.8386 10.2398 84.8938 10.2574L85.2958 10.3742L85.3046 10.568C84.896 10.5592 84.5625 10.5548 84.3041 10.5548C84.0457 10.5548 83.7564 10.5592 83.4361 10.568L83.4141 10.383L83.8492 10.2486C83.9596 10.2134 84.0391 10.1605 84.0899 10.0901C84.1407 10.0174 84.1981 9.90724 84.2622 9.75526L86.4685 4.50431L86.9103 4.43823ZM85.5343 7.93813H87.3122L86.4708 5.56595L85.5343 7.93813Z" fill="#B19578"/>
<path d="M44.2073 15.5062L43.918 16.5942L43.7457 16.6207L43.4873 15.2595L43.5138 15.2286C44.1146 15.0745 44.6667 14.9974 45.1659 14.9974C45.8284 14.9974 46.3342 15.1185 46.6876 15.3608C47.041 15.6031 47.2154 15.9621 47.2154 16.4379C47.2154 16.8035 47.1138 17.103 46.9107 17.3409C46.7075 17.5788 46.427 17.7594 46.0714 17.8784C46.5352 17.9576 46.8797 18.1338 47.1094 18.4004C47.3391 18.6691 47.4518 18.9973 47.4518 19.3827C47.4518 19.9906 47.2309 20.4532 46.7892 20.7703C46.3475 21.0875 45.7489 21.2461 44.9958 21.2461C44.4746 21.2461 43.9467 21.1558 43.4122 20.9752L43.3857 20.9443L43.6066 19.4598L43.8054 19.4246L44.1124 20.7021C44.4083 20.8188 44.7197 20.8783 45.0444 20.8783C45.5082 20.8783 45.8682 20.7549 46.1244 20.5104C46.3806 20.2659 46.5087 19.9223 46.5087 19.484C46.5087 19.0435 46.3762 18.7087 46.1134 18.4819C45.8505 18.255 45.4729 18.1405 44.9803 18.1405C44.8302 18.1405 44.6181 18.1647 44.3421 18.2087L44.3156 17.6999C44.6226 17.7374 44.8456 17.755 44.9803 17.755C45.4154 17.755 45.7379 17.6471 45.9521 17.4312C46.1641 17.2154 46.2724 16.9158 46.2724 16.5282C46.2724 16.1361 46.1641 15.8388 45.9455 15.6383C45.7291 15.4379 45.4265 15.3388 45.0378 15.3388C44.7661 15.352 44.49 15.4027 44.2073 15.5062Z" fill="#B19578"/>
<path d="M48.8453 21.1315L48.4875 22.9487L48.2578 22.9795L48.0127 20.7703L48.0392 20.7395H48.7349C48.905 20.5501 49.0596 20.3254 49.1965 20.0633C49.3423 19.7924 49.4748 19.506 49.5918 19.1977C49.7089 18.8915 49.8105 18.5722 49.8966 18.2396C49.9828 17.9092 50.0556 17.5832 50.1153 17.266C50.1749 16.9489 50.2191 16.6493 50.2478 16.3652C50.2765 16.081 50.292 15.8299 50.292 15.6075C50.292 15.5392 50.25 15.4929 50.1661 15.4687L49.4925 15.2881L49.4836 15.1031C49.8745 15.1141 50.1992 15.1207 50.4554 15.1207H52.5734C52.918 15.1207 53.2758 15.1141 53.6446 15.1031L53.6623 15.2881L53.1322 15.4467C53.0571 15.4731 53.0196 15.5194 53.0152 15.5855C53.0129 15.7 53.0107 15.8277 53.0085 15.9687C53.0063 16.1097 53.0063 16.266 53.0063 16.4379V19.9157C53.0063 20.0765 53.0063 20.2131 53.0085 20.3254C53.0107 20.4377 53.0129 20.5258 53.0152 20.5919C53.0174 20.6888 53.0505 20.7373 53.1101 20.7373H53.892L53.9185 20.7681L53.6777 22.9465L53.448 22.9773L53.0858 21.1315H48.8453ZM52.1604 20.7417V15.515H50.7491C50.7182 15.9533 50.674 16.3982 50.6188 16.8475C50.5636 17.2969 50.4841 17.7418 50.3803 18.1867C50.2743 18.6294 50.1396 19.0655 49.9695 19.495C49.8017 19.9245 49.5852 20.3386 49.3202 20.7417H52.1604Z" fill="#B19578"/>
<path d="M61.0125 17.9907C61.0125 18.9841 60.7298 19.7814 60.1644 20.3849C59.599 20.9884 58.8083 21.2902 57.7946 21.2902C56.8316 21.2902 56.0851 21.0104 55.5573 20.4532C55.0294 19.8959 54.7666 19.1405 54.7666 18.1867C54.7666 17.1934 55.0493 16.4093 55.6191 15.83C56.1867 15.2507 56.9752 14.9622 57.9801 14.9622C58.9453 14.9622 59.694 15.2331 60.2196 15.7727C60.7497 16.3167 61.0125 17.0546 61.0125 17.9907ZM55.7141 18.0458C55.7141 18.9819 55.904 19.6977 56.2839 20.1955C56.6638 20.6933 57.2203 20.9422 57.9536 20.9422C58.6758 20.9422 59.2081 20.7153 59.5526 20.2638C59.8972 19.8122 60.0672 19.103 60.0672 18.1361C60.0672 17.2286 59.8839 16.5326 59.5195 16.0436C59.1551 15.5547 58.5897 15.3124 57.8277 15.3124C57.0878 15.3124 56.5511 15.5392 56.2154 15.9908C55.8797 16.4423 55.7141 17.1273 55.7141 18.0458Z" fill="#B19578"/>
<path d="M63.6249 19.8122C63.6249 19.984 63.6249 20.1382 63.6271 20.2769C63.6293 20.4157 63.6315 20.5368 63.6337 20.647C63.6359 20.713 63.6735 20.7571 63.7464 20.7813L64.3427 20.9619L64.3515 21.1469C63.9341 21.1381 63.5542 21.1337 63.2119 21.1337C62.8629 21.1337 62.5073 21.1381 62.1407 21.1469L62.123 20.9619L62.6531 20.8033C62.7282 20.7813 62.7657 20.7351 62.7702 20.669C62.7724 20.5544 62.7746 20.4267 62.7768 20.2835C62.779 20.1426 62.779 19.984 62.779 19.8122V16.3211C62.779 16.1735 62.779 16.0436 62.7768 15.9246C62.7746 15.8079 62.7724 15.7 62.7702 15.6052C62.768 15.5304 62.7326 15.4819 62.6664 15.4599L62.1319 15.2925L62.123 15.1075C62.4941 15.1185 62.8563 15.1251 63.2097 15.1251C63.4482 15.1251 63.6779 15.1185 63.8988 15.1075C64.1196 15.0965 64.3228 15.0898 64.5061 15.0898C65.1886 15.0898 65.7032 15.222 66.0521 15.4885C66.4011 15.7528 66.5756 16.1493 66.5756 16.6735C66.5756 17.2902 66.3746 17.7704 65.9704 18.1118C65.5662 18.4532 64.9986 18.625 64.2698 18.625C64.0688 18.625 63.8546 18.6118 63.6249 18.5853V19.8122ZM63.6249 18.2219C63.8259 18.2572 64.0246 18.2726 64.2212 18.2726C64.6806 18.2726 65.0318 18.1536 65.2725 17.918C65.5132 17.6823 65.6325 17.3189 65.6325 16.8321C65.6325 16.3651 65.5177 16.0149 65.2902 15.7859C65.0605 15.5568 64.7005 15.4423 64.208 15.4423C64.0158 15.4423 63.8215 15.4533 63.6249 15.4775V18.2219Z" fill="#B19578"/>
<path d="M73.7732 17.9907C73.7732 18.9841 73.4905 19.7814 72.9251 20.3849C72.3597 20.9884 71.5691 21.2902 70.5553 21.2902C69.5924 21.2902 68.8459 21.0104 68.318 20.4532C67.7902 19.8959 67.5273 19.1405 67.5273 18.1867C67.5273 17.1934 67.81 16.4093 68.3799 15.83C68.9475 15.2507 69.7359 14.9622 70.7408 14.9622C71.706 14.9622 72.4547 15.2331 72.9804 15.7727C73.5104 16.3167 73.7732 17.0546 73.7732 17.9907ZM68.4748 18.0458C68.4748 18.9819 68.6648 19.6977 69.0446 20.1955C69.4245 20.6933 69.9811 20.9422 70.7143 20.9422C71.4366 20.9422 71.9688 20.7153 72.3134 20.2638C72.6579 19.8122 72.828 19.103 72.828 18.1361C72.828 17.2286 72.6446 16.5326 72.2802 16.0436C71.9158 15.5547 71.3504 15.3124 70.5884 15.3124C69.8486 15.3124 69.3119 15.5392 68.9762 15.9908C68.6427 16.4445 68.4748 17.1273 68.4748 18.0458Z" fill="#B19578"/>
<path d="M74.8848 15.1075C75.2558 15.1186 75.6202 15.1252 75.9758 15.1252C76.1105 15.1186 76.3292 15.112 76.6296 15.0987C76.9299 15.0877 77.1353 15.0811 77.2391 15.0811C77.8708 15.0811 78.3478 15.1979 78.6725 15.4313C78.995 15.6648 79.1584 16.0018 79.1584 16.4401C79.1584 17.1471 78.7763 17.6273 78.0143 17.8828C78.4605 17.9577 78.8028 18.1229 79.0413 18.3784C79.2799 18.6339 79.3991 18.9599 79.3991 19.3541C79.3991 19.929 79.1893 20.3717 78.7719 20.6867C78.3523 21.0016 77.7736 21.158 77.0315 21.158C76.8835 21.158 76.7245 21.1536 76.5523 21.1448C76.38 21.136 76.1878 21.1316 75.9736 21.1316C75.6246 21.1316 75.2669 21.136 74.9024 21.1448L74.8848 20.9598L75.4148 20.8012C75.4877 20.7814 75.5253 20.7373 75.5319 20.6669C75.5341 20.5523 75.5363 20.4246 75.5385 20.2814C75.5407 20.1404 75.5407 19.9819 75.5407 19.8101V16.3212C75.5407 16.1736 75.5407 16.0436 75.5385 15.9247C75.5363 15.808 75.5341 15.7 75.5319 15.6053C75.5297 15.5304 75.4943 15.482 75.4281 15.46L74.8936 15.2926L74.8848 15.1075ZM76.3866 17.7925C76.5633 17.7947 76.7444 17.7969 76.9277 17.7969C77.3518 17.7969 77.672 17.6956 77.8885 17.4885C78.1049 17.2837 78.2131 16.9863 78.2131 16.5965C78.2131 16.1868 78.1027 15.8917 77.8796 15.7111C77.6565 15.5304 77.3385 15.4423 76.9189 15.4423C76.8438 15.4423 76.7621 15.4445 76.6737 15.4489C76.5854 15.4534 76.4882 15.46 76.3866 15.4732V17.7925ZM76.3866 18.1361V20.7484C76.4727 20.7792 76.5721 20.799 76.6848 20.8078C76.7974 20.8166 76.9012 20.821 76.9962 20.821C77.471 20.821 77.8332 20.7043 78.0806 20.4686C78.328 20.2329 78.4516 19.8915 78.4516 19.4444C78.4516 18.9973 78.3258 18.6647 78.0762 18.4489C77.8244 18.233 77.4202 18.1229 76.8615 18.1229C76.7002 18.1251 76.5412 18.1273 76.3866 18.1361Z" fill="#B19578"/>
<path d="M86.6736 17.9907C86.6736 18.9841 86.3909 19.7814 85.8255 20.3849C85.2601 20.9884 84.4695 21.2902 83.4557 21.2902C82.4928 21.2902 81.7463 21.0104 81.2184 20.4532C80.6906 19.8959 80.4277 19.1405 80.4277 18.1867C80.4277 17.1934 80.7104 16.4093 81.2802 15.83C81.8479 15.2507 82.6363 14.9622 83.6412 14.9622C84.6064 14.9622 85.3551 15.2331 85.8807 15.7727C86.4086 16.3167 86.6736 17.0546 86.6736 17.9907ZM81.373 18.0458C81.373 18.9819 81.5629 19.6977 81.9428 20.1955C82.3227 20.6933 82.8793 20.9422 83.6125 20.9422C84.3347 20.9422 84.867 20.7153 85.2115 20.2638C85.5561 19.8122 85.7261 19.103 85.7261 18.1361C85.7261 17.2286 85.5428 16.5326 85.1784 16.0436C84.814 15.5547 84.2486 15.3124 83.4866 15.3124C82.7468 15.3124 82.2101 15.5392 81.8744 15.9908C81.5387 16.4423 81.373 17.1273 81.373 18.0458Z" fill="#B19578"/>
<path d="M89.287 20.0105V20.6646C89.287 20.7395 89.3268 20.788 89.4085 20.81L89.8877 20.9598L89.901 21.1448C89.5587 21.136 89.2163 21.1316 88.874 21.1316C88.5317 21.1316 88.1739 21.136 87.8028 21.1448L87.7852 20.9598L88.3152 20.8012C88.3903 20.7792 88.4279 20.7329 88.4323 20.6669C88.4389 20.4334 88.4411 20.1492 88.4411 19.81V16.3212C88.4411 16.0348 88.4389 15.7947 88.4323 15.6075C88.4301 15.5326 88.3947 15.4842 88.3285 15.4622L87.794 15.2948L87.7852 15.1097C88.1562 15.1208 88.514 15.1274 88.8563 15.1274C89.2009 15.1274 89.5432 15.1208 89.8789 15.1097L89.901 15.2948L89.4085 15.4445C89.3356 15.4622 89.298 15.5062 89.2958 15.5789C89.2892 15.7859 89.287 16.0282 89.287 16.3057V19.3916L92.4939 15.9996V15.5789C92.4939 15.5128 92.4541 15.4688 92.3724 15.4445L91.8931 15.2948L91.8799 15.1097C92.2311 15.1208 92.58 15.1274 92.9268 15.1274C93.2713 15.1274 93.6225 15.1208 93.9825 15.1097L94.0001 15.2948L93.4568 15.4622C93.3906 15.4842 93.3552 15.5348 93.353 15.6075C93.3442 15.7969 93.3398 16.0348 93.3398 16.3212V19.8122C93.3398 20.1514 93.3442 20.4356 93.353 20.6691C93.3552 20.7351 93.395 20.7792 93.4701 20.8034L93.9913 20.962L94.0001 21.147C93.618 21.1382 93.2536 21.1338 92.9113 21.1338C92.569 21.1338 92.2311 21.1382 91.9042 21.147L91.8821 20.962L92.3746 20.8122C92.4475 20.7924 92.4828 20.7439 92.4873 20.6669L92.4961 19.8145V16.6207L89.287 20.0105Z" fill="#B19578"/>
<path d="M46.7795 25.6843C47.0909 25.6953 47.4067 25.7019 47.7292 25.7019C48.045 25.7019 48.352 25.6953 48.6479 25.6843L48.6656 25.8693L48.2305 26.008C48.1665 26.0279 48.1135 26.0521 48.0693 26.0829C48.0251 26.1138 47.9854 26.149 47.9522 26.1931C47.9191 26.2371 47.8882 26.2878 47.8617 26.345C47.8352 26.4045 47.8087 26.4728 47.7822 26.5543C47.6276 26.9706 47.473 27.3758 47.3206 27.7701C47.1682 28.1644 47.0114 28.5542 46.8502 28.9419C46.6889 29.3273 46.5211 29.7128 46.3466 30.0982C46.1721 30.4837 45.9888 30.8691 45.7967 31.2612C45.7194 31.422 45.6509 31.5519 45.5935 31.6511C45.536 31.7502 45.4698 31.8295 45.3925 31.8867C45.3152 31.9462 45.2246 31.9858 45.1186 32.0079C45.0126 32.0299 44.8735 32.0409 44.699 32.0409C44.4516 32.0409 44.1844 32.0189 43.8973 31.977L43.8796 31.792L44.1513 31.7414C44.3478 31.7061 44.5157 31.6511 44.657 31.5718C44.7984 31.4925 44.9243 31.3956 45.0369 31.2766C45.1495 31.1599 45.2533 31.0233 45.3505 30.8669C45.4477 30.7128 45.5515 30.541 45.6641 30.3537L43.7095 26.5565C43.672 26.486 43.6367 26.4177 43.6057 26.3583C43.5748 26.2988 43.5395 26.2437 43.5019 26.1975C43.4644 26.149 43.4224 26.1094 43.3738 26.0741C43.3252 26.0389 43.2656 26.0124 43.1949 25.9926L42.8018 25.8715L42.793 25.6865C43.058 25.6975 43.4092 25.7041 43.8509 25.7041C44.1954 25.7041 44.604 25.6975 45.0767 25.6865L45.0943 25.8715L44.6879 25.9882C44.5665 26.0169 44.5068 26.0807 44.5068 26.182C44.5068 26.2503 44.5311 26.334 44.5775 26.4331C44.6261 26.5323 44.6835 26.6446 44.752 26.7701L46.1368 29.4683C46.3444 29.0102 46.5277 28.563 46.6889 28.1291C46.8502 27.6952 47.0092 27.2635 47.1638 26.834C47.2322 26.6424 47.283 26.4948 47.314 26.3957C47.3449 26.2966 47.3625 26.2173 47.3625 26.16C47.3625 26.1138 47.3515 26.0785 47.3272 26.0521C47.3051 26.0257 47.2632 26.0058 47.2057 25.9926L46.7861 25.8847L46.7795 25.6843Z" fill="#B19578"/>
<path d="M52.8938 27.019V30.389C52.8938 30.5608 52.8938 30.7172 52.896 30.8603C52.8982 31.0035 52.9004 31.1312 52.9026 31.2458C52.9048 31.3118 52.9468 31.3559 53.0241 31.3779L53.5409 31.5365L53.5541 31.7215C53.1721 31.7127 52.8076 31.7083 52.4653 31.7083C52.1208 31.7083 51.7851 31.7127 51.4538 31.7215L51.4361 31.5365L51.9286 31.3867C52.0015 31.3647 52.0368 31.314 52.0413 31.2414C52.0435 31.1268 52.0457 30.9991 52.0479 30.8581C52.0501 30.7172 52.0501 30.5608 52.0501 30.389V26.0939H50.5946C50.577 26.5411 50.5438 26.9904 50.493 27.4397C50.4422 27.889 50.3671 28.334 50.2678 28.7767C50.1684 29.2194 50.0425 29.6555 49.8879 30.085C49.7333 30.5167 49.5433 30.9374 49.3158 31.3515C49.2717 31.4242 49.2319 31.4858 49.1922 31.5409C49.1524 31.596 49.1016 31.64 49.0398 31.6753C48.9757 31.7105 48.8984 31.7369 48.8035 31.7546C48.7085 31.7722 48.587 31.781 48.4368 31.781C48.2071 31.781 47.9399 31.7546 47.6329 31.7039L47.6152 31.5189L47.8648 31.4726C47.9686 31.455 48.0547 31.4352 48.1254 31.4132C48.1961 31.3911 48.2601 31.3625 48.3198 31.3295C48.3794 31.2964 48.4346 31.2568 48.4898 31.2061C48.5451 31.1577 48.6069 31.0938 48.6754 31.0167C48.8498 30.8251 49.0089 30.6026 49.148 30.3515C49.2871 30.1004 49.4108 29.8339 49.519 29.5498C49.6273 29.2657 49.72 28.9727 49.7995 28.671C49.879 28.3692 49.9431 28.0741 49.9917 27.7811C50.0403 27.4904 50.0756 27.2084 50.0999 26.9353C50.1242 26.6622 50.1352 26.4155 50.1352 26.1908C50.1352 26.1248 50.0889 26.0785 49.9961 26.0543L49.3357 25.8737L49.3269 25.6887C49.7156 25.6997 50.0226 25.7063 50.2501 25.7063H52.4609C52.8054 25.7063 53.161 25.6997 53.5298 25.6887L53.5519 25.8737L53.0219 26.0323C52.949 26.0543 52.9092 26.1005 52.9004 26.171C52.8982 26.2856 52.896 26.4133 52.8938 26.5543C52.8938 26.6908 52.8938 26.8472 52.8938 27.019Z" fill="#B19578"/>
<path d="M56.1537 26.8803V28.2965C56.3834 28.2745 56.6087 28.2613 56.8296 28.2613C57.5716 28.2613 58.1282 28.4022 58.497 28.6842C58.8659 28.9661 59.0492 29.367 59.0492 29.8868C59.0492 30.2194 58.9873 30.5035 58.8637 30.7392C58.74 30.9749 58.5743 31.1643 58.3667 31.3119C58.1591 31.4572 57.914 31.5652 57.6357 31.6334C57.3574 31.7017 57.0659 31.7348 56.7567 31.7348C56.6175 31.7348 56.4651 31.7303 56.2973 31.7215C56.1316 31.7127 55.9439 31.7083 55.7385 31.7083C55.3873 31.7083 55.0295 31.7127 54.6651 31.7215L54.6475 31.5365L55.1775 31.3779C55.2504 31.3581 55.288 31.3141 55.2946 31.2458C55.2968 31.1312 55.299 31.0035 55.3012 30.8603C55.3034 30.7194 55.3034 30.5608 55.3034 30.389V26.8979C55.3034 26.7525 55.3034 26.6204 55.3012 26.5014C55.299 26.3847 55.2968 26.2768 55.2946 26.182C55.2924 26.1072 55.257 26.0587 55.1908 26.0367L54.6563 25.8693L54.6475 25.6843C55.0185 25.6953 55.3763 25.7019 55.7186 25.7019C56.0632 25.7019 56.4342 25.6953 56.8318 25.6843L56.8538 25.8693L56.2708 26.0411C56.1979 26.0675 56.1603 26.1116 56.1581 26.1754C56.1559 26.2768 56.1537 26.3847 56.1515 26.5036C56.1537 26.6248 56.1537 26.7503 56.1537 26.8803ZM56.1537 28.6467V31.3273C56.2973 31.3757 56.4894 31.4 56.728 31.4C57.1851 31.4 57.5297 31.281 57.7594 31.0409C57.9891 30.8009 58.1039 30.4506 58.1039 29.9881C58.1039 29.5234 57.9824 29.1798 57.7395 28.9573C57.4965 28.7348 57.1167 28.6247 56.6021 28.6247C56.538 28.6247 56.4696 28.6269 56.3923 28.6313C56.3172 28.6357 56.2376 28.6401 56.1537 28.6467ZM60.8028 30.389C60.8028 30.5608 60.8028 30.7172 60.805 30.8581C60.8072 30.9991 60.8094 31.1268 60.8116 31.2414C60.8139 31.3141 60.8646 31.3625 60.9618 31.3867L61.4499 31.5365L61.4588 31.7215C61.0877 31.7127 60.7299 31.7083 60.3854 31.7083C60.0386 31.7083 59.6831 31.7127 59.3164 31.7215L59.2943 31.5365L59.8244 31.3779C59.8995 31.3581 59.9393 31.3141 59.9459 31.2458C59.9481 31.1312 59.9503 31.0035 59.9525 30.8603C59.9547 30.7194 59.9547 30.5608 59.9547 30.389V26.8979C59.9547 26.7525 59.9547 26.6204 59.9525 26.5014C59.9503 26.3847 59.9481 26.2768 59.9459 26.182C59.9437 26.1072 59.9061 26.0587 59.8377 26.0367L59.3076 25.8693L59.2943 25.6843C59.6676 25.6953 60.0254 25.7019 60.3677 25.7019C60.7145 25.7019 61.0723 25.6953 61.4411 25.6843L61.4588 25.8693L60.9243 26.0279C60.8558 26.0455 60.8183 26.0895 60.8116 26.1622C60.8094 26.2613 60.8072 26.3715 60.805 26.4926C60.8028 26.6116 60.8028 26.7415 60.8028 26.8825V30.389Z" fill="#B19578"/>
<path d="M66.0389 26.0851H64.0578V28.3318C64.336 28.3053 64.6077 28.2921 64.8727 28.2921C65.6391 28.2921 66.2001 28.4221 66.5601 28.682C66.9201 28.9419 67.099 29.3251 67.099 29.8339C67.099 30.444 66.8914 30.9154 66.474 31.2436C66.0565 31.5718 65.4735 31.7369 64.727 31.7369C64.5812 31.7369 64.4178 31.7325 64.2367 31.7237C64.0578 31.7149 63.859 31.7105 63.6425 31.7105C63.2936 31.7105 62.938 31.7149 62.5714 31.7237L62.5537 31.5387L63.0838 31.3801C63.1589 31.3581 63.1964 31.3118 63.2008 31.248C63.203 31.1334 63.2052 31.0057 63.2075 30.8625C63.2097 30.7216 63.2097 30.563 63.2097 30.3912V26.9001C63.2097 26.7547 63.2097 26.6226 63.2075 26.5036C63.2052 26.3869 63.203 26.279 63.2008 26.1842C63.1986 26.1094 63.1633 26.0609 63.097 26.0389L62.5625 25.8715L62.5537 25.6865C62.9248 25.6975 63.2825 25.7041 63.6249 25.7041H64.7248C65.0825 25.7041 65.4249 25.7019 65.7517 25.6997C66.0786 25.6975 66.4143 25.6931 66.7567 25.6865L66.7832 25.7217L66.4983 27.1688L66.326 27.1952L66.0389 26.0851ZM64.0578 31.3493C64.2698 31.3845 64.4818 31.4 64.6872 31.4C65.1687 31.4 65.5353 31.2832 65.7871 31.0519C66.0411 30.8185 66.167 30.4705 66.167 30.0013C66.167 29.5454 66.0477 29.2062 65.8092 28.9837C65.5706 28.7613 65.193 28.6511 64.674 28.6511C64.4995 28.6511 64.2919 28.6643 64.0578 28.6908V31.3493Z" fill="#B19578"/>
<path d="M69.6347 28.9088V30.389C69.6347 30.5608 69.6347 30.715 69.6369 30.8537C69.6391 30.9925 69.6413 31.1158 69.6435 31.2282C69.6457 31.3163 69.6832 31.3735 69.7561 31.3955L70.2354 31.5387L70.2486 31.7237C69.9063 31.7149 69.564 31.7105 69.2217 31.7105C68.8727 31.7105 68.5171 31.7149 68.1505 31.7237L68.1328 31.5387L68.6629 31.3801C68.7358 31.3603 68.7733 31.3163 68.7799 31.248C68.7821 31.1334 68.7844 31.0057 68.7866 30.8625C68.7888 30.7216 68.7888 30.563 68.7888 30.3912V26.9001C68.7888 26.7547 68.7888 26.6226 68.7866 26.5036C68.7844 26.3869 68.7821 26.279 68.7799 26.1842C68.7777 26.1094 68.7424 26.0609 68.6761 26.0389L68.1416 25.8715L68.1328 25.6865C68.3228 25.6931 68.5061 25.6975 68.6805 25.6997C68.855 25.7019 69.0295 25.7041 69.2018 25.7041C69.374 25.7041 69.5441 25.7019 69.7142 25.6997C69.882 25.6975 70.0521 25.6931 70.2266 25.6865L70.2486 25.8715L69.7561 26.0213C69.6832 26.0389 69.6457 26.0829 69.6435 26.1534C69.6413 26.2569 69.6391 26.3693 69.6369 26.4882C69.6347 26.6093 69.6347 26.7393 69.6347 26.8803V28.5278H70.0874C70.2199 28.5278 70.3392 28.5234 70.443 28.5146C70.549 28.5058 70.644 28.4859 70.7323 28.4529C70.8207 28.4199 70.9002 28.3736 70.9686 28.3119C71.0393 28.2503 71.1056 28.1666 71.1674 28.0608C71.2293 27.9551 71.2867 27.8252 71.3419 27.6688C71.3971 27.5146 71.4523 27.3252 71.5098 27.1049C71.5672 26.8759 71.618 26.6798 71.6621 26.519C71.7063 26.3582 71.7505 26.2261 71.7947 26.1204C71.8388 26.0146 71.883 25.9332 71.9294 25.8759C71.9758 25.8164 72.0288 25.7746 72.0884 25.7459C72.148 25.7195 72.2209 25.7019 72.3048 25.6953C72.3888 25.6887 72.4882 25.6865 72.6074 25.6865C72.8526 25.6865 73.1154 25.6975 73.3981 25.7217L73.4158 25.9882C73.217 25.9948 73.0491 26.0235 72.9122 26.0763C72.7753 26.1292 72.6582 26.2063 72.5588 26.3054C72.4594 26.4045 72.3711 26.5256 72.296 26.671C72.2187 26.8164 72.1414 26.9794 72.0597 27.1644C72.0001 27.2988 71.9382 27.4331 71.8742 27.5653C71.8101 27.6974 71.7439 27.823 71.671 27.9419C71.5981 28.0608 71.5208 28.171 71.4369 28.2701C71.3529 28.3714 71.258 28.4573 71.1542 28.5278C71.3618 28.8317 71.5517 29.1291 71.724 29.4198C71.8963 29.7106 72.0553 29.9771 72.2033 30.2216C72.3424 30.4484 72.4661 30.6467 72.5809 30.8207C72.6936 30.9925 72.7996 31.1268 72.899 31.226C72.9498 31.2744 73.0006 31.3163 73.0491 31.3515C73.0977 31.3867 73.1485 31.4154 73.1993 31.4396C73.2501 31.4638 73.3053 31.4837 73.3628 31.5013C73.4202 31.5189 73.4864 31.5365 73.5615 31.5519L73.5748 31.7414C73.3672 31.7678 73.1949 31.781 73.058 31.781C72.9409 31.781 72.8371 31.7788 72.7466 31.7722C72.6582 31.7656 72.5765 31.7546 72.508 31.7369C72.4374 31.7193 72.3733 31.6973 72.3181 31.6709C72.2629 31.6444 72.2077 31.6092 72.1569 31.5651C72.0266 31.4704 71.8985 31.3295 71.7726 31.1445C71.6467 30.9572 71.5142 30.7392 71.375 30.4859C71.2624 30.2877 71.1475 30.0806 71.0327 29.867C70.9156 29.6511 70.7898 29.4397 70.6506 29.2304C70.6109 29.1709 70.5755 29.1203 70.5468 29.0784C70.5181 29.0366 70.4872 29.0035 70.454 28.9793C70.4209 28.9551 70.3834 28.9375 70.3414 28.9287C70.2994 28.9176 70.2464 28.9132 70.1802 28.9132H69.6347V28.9088Z" fill="#B19578"/>
<path d="M75.8212 30.5872V31.2414C75.8212 31.3163 75.8609 31.3647 75.9427 31.3867L76.4219 31.5365L76.4352 31.7215C76.0928 31.7127 75.7505 31.7083 75.4082 31.7083C75.0658 31.7083 74.708 31.7127 74.337 31.7215L74.3193 31.5365L74.8494 31.3779C74.9245 31.3559 74.962 31.3097 74.9665 31.2458C74.9731 31.0123 74.9753 30.7282 74.9753 30.389V26.8979C74.9753 26.6116 74.9731 26.3737 74.9665 26.1843C74.9642 26.1094 74.9289 26.0609 74.8626 26.0389L74.3282 25.8715L74.3193 25.6865C74.6904 25.6975 75.0482 25.7041 75.3905 25.7041C75.735 25.7041 76.0774 25.6975 76.4131 25.6865L76.4352 25.8715L75.9427 26.0213C75.8698 26.0389 75.8322 26.0829 75.83 26.1534C75.8234 26.3605 75.8212 26.6027 75.8212 26.8803V29.9661L79.0281 26.5741V26.1512C79.0281 26.0851 78.9883 26.0411 78.9066 26.0191L78.4273 25.8693L78.4141 25.6843C78.7652 25.6953 79.1142 25.7019 79.4609 25.7019C79.8055 25.7019 80.1566 25.6953 80.5166 25.6843L80.5343 25.8693L79.991 26.0367C79.9247 26.0587 79.8894 26.1072 79.8872 26.182C79.8784 26.3715 79.8739 26.6093 79.8739 26.8957V30.3868C79.8739 30.726 79.8784 31.0101 79.8872 31.2436C79.8894 31.3097 79.9292 31.3537 80.0042 31.3757L80.5255 31.5343L80.5343 31.7193C80.1522 31.7105 79.7878 31.7061 79.4455 31.7061C79.1009 31.7061 78.7652 31.7105 78.4384 31.7193L78.4163 31.5343L78.9088 31.3845C78.9817 31.3647 79.017 31.3163 79.0214 31.2392L79.0303 30.3868V27.193L75.8212 30.5872Z" fill="#B19578"/>
<path d="M26.8765 16.2004C26.8743 16.1496 26.8699 16.101 26.8699 16.0502C26.8699 16.101 26.8655 16.1496 26.8633 16.2004H26.8765Z" fill="#B19578"/>
<path d="M27.4287 9.43365C27.4287 11.0019 26.1543 12.2706 24.584 12.2706C26.1565 12.2706 27.4287 13.5415 27.4287 15.1075C27.4287 13.5899 28.6235 12.3543 30.1253 12.2772V12.2618C28.6235 12.1869 27.4287 10.9512 27.4287 9.43365Z" fill="#B19578"/>
<path d="M90.9211 12.3256C90.9211 12.9445 90.4175 13.4467 89.7969 13.4467C90.4175 13.4467 90.9211 13.9489 90.9211 14.5678C90.9211 13.9687 91.3937 13.4798 91.9856 13.4489V13.4423C91.3937 13.4115 90.9211 12.9247 90.9211 12.3256Z" fill="#B19578"/>
<path d="M26.8604 10.2266C26.8626 10.2774 26.867 10.326 26.867 10.3768C26.867 10.326 26.8714 10.2774 26.8736 10.2266H26.8604Z" fill="#B19578"/>
<path d="M17.417 0C7.814 0 0 7.79273 0 17.3695C0 26.9464 7.814 34.7391 17.417 34.7391C27.0199 34.7391 34.8339 26.9464 34.8339 17.3695C34.8339 7.79273 27.0221 0 17.417 0ZM17.417 33.6708C10.4665 33.6708 4.52099 29.3207 2.16 23.2086C4.9362 24.1028 7.94872 24.42 11.0341 24.0345C17.5362 23.2218 22.9429 19.4664 26.0945 14.2793C22.8965 17.8365 18.4528 20.3078 13.3266 20.9487C8.96247 21.4972 4.74626 20.6382 1.13301 18.7285C1.09546 18.2814 1.07117 17.8277 1.07117 17.3695C1.07117 8.38082 8.40369 1.06825 17.417 1.06825C26.4302 1.06825 33.7627 8.38082 33.7627 17.3695C33.7627 26.3583 26.4302 33.6708 17.417 33.6708Z" fill="#B19578"/>
</svg>
