<svg width="54" height="53" viewBox="0 0 54 53" fill="none" xmlns="http://www.w3.org/2000/svg">
<path d="M43.105 26.1343L49.7629 19.5684C54.0624 15.2072 54.0624 8.2848 49.7629 4.11688C45.2763 -0.0389596 38.2973 -0.0389596 33.7983 4.11688L27.1654 10.9002M11.2566 26.0282L4.37424 32.6641C-0.124745 37.0012 -0.124745 43.7423 4.37424 48.0914C8.67382 52.2473 15.8149 52.2473 20.1144 48.0914L26.9968 41.4797M13.3125 28.2256L4.37424 19.5684C-0.124745 15.2072 -0.124745 8.2848 4.37424 4.11688C8.67382 -0.0389596 15.8149 -0.0389596 20.1144 4.11688L29.1031 12.7644M13.3125 28.2256L29.1031 12.7644M13.3125 28.2256L24.5297 39.0902M29.1031 12.7644L40.3579 23.5921M40.3579 23.5921L49.7753 32.652C54.0749 36.9891 54.0749 43.7302 49.7753 48.0794C45.2888 52.2352 38.3098 52.2352 33.8108 48.0794L24.5297 39.0902M40.3579 23.5921L24.5297 39.0902" stroke="#B19578" stroke-width="2"/>
<ellipse rx="1.0717" ry="1.07249" transform="matrix(0.702198 -0.711982 0.726613 0.687047 41.7906 40.1641)" stroke="#B19578"/>
<ellipse rx="1.0717" ry="1.07249" transform="matrix(0.702198 -0.711982 0.726613 0.687047 36.5963 35.2516)" stroke="#B19578"/>
<ellipse rx="1.0717" ry="1.07249" transform="matrix(0.702198 -0.711982 0.726613 0.687047 33.5836 38.3038)" stroke="#B19578"/>
<ellipse rx="1.0717" ry="1.07249" transform="matrix(0.702198 -0.711982 0.726613 0.687047 39.6061 32.1995)" stroke="#B19578"/>
<ellipse rx="1.0717" ry="1.07249" transform="matrix(0.702198 -0.711982 0.726613 0.687047 40.6988 36.1818)" stroke="#B19578"/>
<ellipse rx="1.0717" ry="1.07249" transform="matrix(0.702198 -0.711982 0.726613 0.687047 37.6881 39.2338)" stroke="#B19578"/>
<circle r="1.0721" transform="matrix(-0.714519 0.699617 -0.714518 -0.699617 12.0949 11.8648)" stroke="#B19578"/>
<circle r="1.0721" transform="matrix(-0.714519 0.699617 -0.714518 -0.699617 17.2013 16.8651)" stroke="#B19578"/>
<circle r="1.0721" transform="matrix(-0.714519 0.699617 -0.714518 -0.699617 20.2658 13.8649)" stroke="#B19578"/>
<circle r="1.0721" transform="matrix(-0.714519 0.699617 -0.714518 -0.699617 14.1379 19.8653)" stroke="#B19578"/>
<circle r="1.0721" transform="matrix(-0.714519 0.699617 -0.714518 -0.699617 13.1173 15.8649)" stroke="#B19578"/>
<circle r="1.0721" transform="matrix(-0.714519 0.699617 -0.714518 -0.699617 16.1808 12.8649)" stroke="#B19578"/>
</svg>
