<svg width="141" height="141" viewBox="0 0 141 141" fill="none" xmlns="http://www.w3.org/2000/svg">
<path d="M79.3966 8.62873L90.6327 23.2269L108.939 21.1687L111.371 39.4291L128.253 46.7997L121.229 63.8295L132.165 78.6541L117.566 89.8901L119.625 108.196L101.364 110.628L93.9935 127.511L76.9637 120.486L62.1392 131.422L50.9031 116.824L32.5969 118.882L30.1653 100.622L13.2825 93.251L20.3068 76.2212L9.37127 61.3966L23.9694 50.1606L21.9112 31.8543L40.1716 29.4227L47.5423 12.54L64.5721 19.5643L79.3966 8.62873Z" fill="#B19578"/>
<circle cx="70.3713" cy="70.325" r="31.2614" transform="rotate(8 70.3713 70.325)" stroke="white" stroke-width="3"/>
<rect x="35.0527" y="50.7766" width="74.6818" height="27.4773" transform="rotate(8 35.0527 50.7766)" fill="#B19578"/>
<path d="M58.0521 79.1704C56.4489 78.9451 55.1306 78.3417 54.0971 77.3602C53.0709 76.373 52.3588 75.0586 51.9608 73.4171C51.5701 71.7699 51.5292 69.8475 51.8381 67.6497C52.1535 65.4528 52.7245 63.6263 53.5513 62.1703C54.3855 60.7087 55.4309 59.6514 56.6876 58.9984C57.9507 58.3463 59.3806 58.1325 60.9772 58.3569C62.5739 58.5813 63.8894 59.181 64.9239 60.1559C65.9584 61.1309 66.6719 62.4354 67.0644 64.0694C67.4633 65.7044 67.5089 67.6175 67.2009 69.8088C66.8911 72.0131 66.3182 73.8527 65.4821 75.3275C64.6535 76.7966 63.6072 77.8604 62.3431 78.5191C61.0856 79.1786 59.6552 79.3957 58.0521 79.1704ZM58.485 76.0902C59.7311 76.2653 60.8016 75.7836 61.6963 74.6449C62.5984 73.5005 63.2195 71.7179 63.5598 69.297C63.7848 67.6962 63.8083 66.3281 63.6303 65.1925C63.4524 64.0569 63.1003 63.1711 62.5741 62.5352C62.0489 61.8927 61.3742 61.5136 60.5499 61.3977C59.3102 61.2235 58.2426 61.709 57.3469 62.8543C56.4522 63.993 55.8329 65.7625 55.489 68.1627C55.2566 69.7692 55.2256 71.143 55.3962 72.2842C55.5732 73.4264 55.9243 74.3187 56.4496 74.9612C56.9757 75.5971 57.6542 75.9734 58.485 76.0902Z" fill="white"/>
<path d="M80.2137 78.0401L80.363 76.9773C80.4728 76.1966 80.736 75.501 81.1527 74.8905C81.5759 74.281 82.1304 73.8204 82.8163 73.5086C83.5021 73.1969 84.2928 73.104 85.1885 73.2299C86.1101 73.3594 86.8544 73.6681 87.4212 74.1558C87.989 74.637 88.3858 75.228 88.6116 75.9288C88.8439 76.6304 88.9047 77.3749 88.7941 78.1622L88.6447 79.225C88.535 80.0057 88.2718 80.7013 87.8551 81.3117C87.4383 81.9222 86.8871 82.3833 86.2012 82.695C85.5219 83.0076 84.7279 83.1001 83.8193 82.9724C82.9106 82.8447 82.1696 82.5365 81.5963 82.0478C81.023 81.5591 80.6201 80.964 80.3878 80.2623C80.162 79.5615 80.104 78.8208 80.2137 78.0401ZM82.904 77.3344L82.7547 78.3972C82.6818 78.9155 82.7383 79.4085 82.9241 79.8761C83.1099 80.3438 83.5143 80.6214 84.1374 80.709C84.7669 80.7975 85.2285 80.6449 85.5221 80.2513C85.8231 79.8521 86.0105 79.39 86.0843 78.8652L86.2336 77.8023C86.3074 77.2775 86.2611 76.7826 86.0948 76.3177C85.9294 75.8462 85.5222 75.5648 84.8732 75.4736C84.2631 75.3879 83.8006 75.547 83.4857 75.951C83.1717 76.3484 82.9778 76.8095 82.904 77.3344ZM71.6998 65.0822L71.8492 64.0194C71.9598 63.2321 72.2268 62.5337 72.65 61.9242C73.0732 61.3146 73.6273 60.8573 74.3121 60.5521C74.998 60.2404 75.7887 60.1475 76.6844 60.2734C77.5995 60.402 78.3405 60.7102 78.9074 61.1979C79.4816 61.68 79.8816 62.2715 80.1075 62.9722C80.3333 63.673 80.3909 64.417 80.2802 65.2043L80.1309 66.2671C80.0202 67.0544 79.7565 67.7532 79.3398 68.3637C78.9305 68.9685 78.3834 69.4235 77.6985 69.7286C77.0136 70.0338 76.2201 70.123 75.3179 69.9962C74.4028 69.8676 73.6581 69.5622 73.0838 69.0801C72.5161 68.5989 72.116 68.0074 71.8837 67.3058C71.6514 66.6041 71.5901 65.8629 71.6998 65.0822ZM74.4097 64.3792L74.2603 65.442C74.1865 65.9669 74.2393 66.4627 74.4186 66.9294C74.6053 67.3905 75.0102 67.6649 75.6333 67.7524C76.2563 67.84 76.7147 67.687 77.0083 67.2934C77.3093 66.8941 77.4966 66.4321 77.5704 65.9073L77.7198 64.8444C77.7935 64.3196 77.7473 63.8247 77.581 63.3598C77.4156 62.8883 77.0116 62.6074 76.369 62.5171C75.7525 62.4304 75.29 62.5895 74.9815 62.9944C74.6731 63.3993 74.4825 63.8609 74.4097 64.3792ZM70.6577 80.5506L87.1979 62.3229L89.6318 62.665L73.0916 80.8927L70.6577 80.5506Z" fill="white"/>
</svg>
