<svg width="138" height="51" viewBox="0 0 138 51" fill="none" xmlns="http://www.w3.org/2000/svg">
<path d="M65.8269 11.3824V13.5554C65.8269 13.8076 65.8269 14.0339 65.8301 14.2376C65.8334 14.4414 65.8366 14.6224 65.8399 14.7874C65.8431 14.9167 65.8982 15.0008 66.0052 15.0331L66.7088 15.2401L66.7283 15.5117C66.2257 15.4987 65.7231 15.4923 65.2206 15.4923C64.7083 15.4923 64.1862 15.4987 63.648 15.5117L63.6221 15.2401L64.4002 15.0072C64.5072 14.9781 64.5624 14.9135 64.5721 14.81C64.5753 14.6418 64.5786 14.4543 64.5818 14.2441C64.5851 14.0372 64.5851 13.8043 64.5851 13.5521V8.43014C64.5851 8.21349 64.5851 8.02271 64.5818 7.8481C64.5786 7.67672 64.5753 7.51827 64.5721 7.37923C64.5689 7.26928 64.517 7.19815 64.4197 7.16581L63.635 6.92006L63.6221 6.64844C63.9009 6.65814 64.17 6.66461 64.4262 6.66784C64.6823 6.67107 64.9385 6.67431 65.1914 6.67431C65.4443 6.67431 65.694 6.67107 65.9436 6.66784C66.1901 6.66461 66.4397 6.65814 66.6959 6.64844L66.7283 6.92006L66.0052 7.13994C65.8982 7.16581 65.8431 7.23048 65.8399 7.33719C65.8366 7.48917 65.8334 7.65408 65.8301 7.82869C65.8269 8.00654 65.8269 8.19732 65.8269 8.40427V10.823H66.4916C66.6861 10.823 66.8612 10.8165 67.0136 10.8036C67.1693 10.7907 67.3087 10.7615 67.4384 10.713C67.5681 10.6645 67.6848 10.5966 67.7853 10.5029C67.8891 10.4123 67.9863 10.2894 68.0771 10.1342C68.1679 9.97902 68.2522 9.78824 68.3333 9.55866C68.4143 9.33231 68.4954 9.05422 68.5797 8.73086C68.664 8.39457 68.7386 8.10678 68.8034 7.87073C68.8683 7.63468 68.9331 7.44066 68.998 7.28545C69.0628 7.13024 69.1277 7.0106 69.1958 6.92653C69.2639 6.83922 69.3417 6.77778 69.4292 6.73574C69.5168 6.69694 69.6238 6.67107 69.747 6.66137C69.8702 6.65167 70.0161 6.64844 70.1912 6.64844C70.5511 6.64844 70.9369 6.66461 71.352 6.70017L71.3779 7.09144C71.0861 7.10114 70.8397 7.14318 70.6386 7.22078C70.4376 7.29839 70.2658 7.41156 70.1198 7.55707C69.9739 7.70258 69.8442 7.88043 69.734 8.09385C69.6205 8.30726 69.507 8.54655 69.3871 8.81817C69.2995 9.01542 69.2087 9.21267 69.1147 9.40668C69.0207 9.60069 68.9234 9.78501 68.8164 9.95962C68.7094 10.1342 68.5959 10.2959 68.4727 10.4414C68.3495 10.5902 68.2101 10.7163 68.0577 10.8198C68.3625 11.266 68.6413 11.7025 68.8942 12.1294C69.1471 12.5562 69.3806 12.9474 69.5978 13.3064C69.8021 13.6394 69.9837 13.9305 70.1523 14.1859C70.3176 14.4381 70.4733 14.6354 70.6192 14.7809C70.6938 14.852 70.7683 14.9135 70.8397 14.9652C70.911 15.0169 70.9856 15.059 71.0601 15.0945C71.1347 15.1301 71.2158 15.1624 71.3001 15.1851C71.3844 15.211 71.4817 15.2368 71.5919 15.2595L71.6114 15.5375C71.3066 15.5763 71.0537 15.5957 70.8526 15.5957C70.6808 15.5957 70.5284 15.5925 70.3955 15.5828C70.2658 15.5731 70.1458 15.5569 70.0453 15.5311C69.9415 15.5052 69.8475 15.4729 69.7664 15.4341C69.6854 15.3953 69.6043 15.3435 69.5297 15.2789C69.3384 15.1398 69.1504 14.9329 68.9656 14.658C68.7807 14.3832 68.5862 14.063 68.3819 13.6912C68.2166 13.4001 68.048 13.0962 67.8793 12.7793C67.7075 12.4624 67.5227 12.152 67.3184 11.8448C67.26 11.7575 67.2082 11.6831 67.166 11.6217C67.1239 11.5602 67.0785 11.5117 67.0298 11.4762C66.9812 11.4406 66.9261 11.4147 66.8645 11.4018C66.8029 11.3856 66.7251 11.3792 66.6278 11.3792H65.8269V11.3824Z" fill="white"/>
<path d="M79.6722 8.60768V13.5551C79.6722 13.8073 79.6722 14.0369 79.6754 14.247C79.6787 14.4572 79.6819 14.6448 79.6852 14.8129C79.6884 14.9099 79.75 14.9746 79.8635 15.0102L80.6222 15.243L80.6417 15.5146C80.0807 15.5017 79.5457 15.4952 79.0432 15.4952C78.5374 15.4952 78.0445 15.5017 77.5581 15.5146L77.5322 15.243L78.2553 15.0231C78.3623 14.9908 78.4141 14.9164 78.4206 14.8097C78.4239 14.6415 78.4271 14.454 78.4304 14.247C78.4336 14.0401 78.4336 13.8105 78.4336 13.5583V7.25281H76.2969C76.2709 7.90923 76.2223 8.56888 76.1477 9.22853C76.0731 9.88818 75.9629 10.5414 75.817 11.1913C75.6711 11.8413 75.4863 12.4815 75.2593 13.1121C75.0323 13.7426 74.7535 14.3635 74.4195 14.9681C74.3547 15.0748 74.2963 15.1654 74.2379 15.2462C74.1796 15.3271 74.105 15.3917 74.0142 15.4467C73.9202 15.4984 73.8067 15.5372 73.6673 15.5631C73.5278 15.589 73.3495 15.6019 73.129 15.6019C72.7918 15.6019 72.3995 15.5631 71.9488 15.4887L71.9229 15.2171L72.2892 15.146C72.4416 15.1201 72.5681 15.091 72.6718 15.0587C72.7756 15.0263 72.8696 14.9843 72.9572 14.9358C73.0447 14.8873 73.1258 14.8259 73.2068 14.7547C73.2879 14.6836 73.3787 14.5898 73.4792 14.4766C73.7354 14.1953 73.9688 13.8687 74.1731 13.5001C74.3773 13.1315 74.5589 12.737 74.7178 12.3231C74.8767 11.9059 75.0129 11.4759 75.1296 11.0329C75.2463 10.5899 75.3403 10.1566 75.4117 9.7265C75.483 9.29967 75.5349 8.88577 75.5706 8.48481C75.603 8.08384 75.6224 7.72168 75.6224 7.39186C75.6224 7.29485 75.5543 7.22694 75.4182 7.18814L74.4487 6.92299L74.4357 6.65137C75.0064 6.66754 75.4571 6.67724 75.791 6.67724H79.0367C79.5425 6.67724 80.0645 6.66754 80.606 6.65137L80.6384 6.92299L79.8603 7.15581C79.7533 7.18814 79.6949 7.25605 79.6819 7.35952C79.6787 7.52767 79.6754 7.71521 79.6722 7.92216C79.6754 8.12588 79.6722 8.35546 79.6722 8.60768Z" fill="white"/>
<path d="M84.4578 13.8461V14.8065C84.4578 14.9164 84.5161 14.9875 84.6361 15.0199L85.3397 15.2398L85.3592 15.5114C84.8566 15.4984 84.354 15.492 83.8514 15.492C83.3489 15.492 82.8236 15.4984 82.2789 15.5114L82.2529 15.2398L83.0311 15.0069C83.1413 14.9746 83.1965 14.9067 83.203 14.8097C83.2127 14.4669 83.2159 14.0498 83.2159 13.5518V8.42984C83.2159 8.00947 83.2127 7.65701 83.203 7.38216C83.1997 7.27221 83.1478 7.20108 83.0506 7.16874L82.2659 6.92299L82.2529 6.65137C82.7977 6.66754 83.3229 6.67724 83.8255 6.67724C84.3313 6.67724 84.8339 6.66754 85.3267 6.65137L85.3592 6.92299L84.6361 7.14287C84.5291 7.16874 84.474 7.23341 84.4707 7.34012C84.461 7.64408 84.4578 7.99977 84.4578 8.4072V12.9374L89.1657 7.95773V7.34012C89.1657 7.24311 89.1074 7.17844 88.9874 7.14287L88.2838 6.92299L88.2644 6.65137C88.7799 6.66754 89.2922 6.67724 89.8012 6.67724C90.3071 6.67724 90.8226 6.66754 91.3511 6.65137L91.3771 6.92299L90.5794 7.16874C90.4822 7.20108 90.4303 7.27545 90.427 7.38216C90.4141 7.66024 90.4076 8.00947 90.4076 8.42984V13.5551C90.4076 14.053 90.4141 14.4702 90.427 14.8129C90.4303 14.9099 90.4886 14.9746 90.5989 15.0102L91.3641 15.243L91.3771 15.5146C90.8161 15.5017 90.2811 15.4952 89.7786 15.4952C89.276 15.4952 88.7799 15.5017 88.3 15.5146L88.2676 15.243L88.9906 15.0231C89.0976 14.994 89.1495 14.9229 89.156 14.8097L89.169 13.5583V8.8696L84.4578 13.8461Z" fill="white"/>
<path d="M95.1873 11.1234V13.5551C95.1873 14.053 95.1905 14.4702 95.2002 14.8065C95.2035 14.9196 95.2586 14.9908 95.3656 15.0199L96.0692 15.2398L96.0887 15.5114C95.5861 15.4984 95.0835 15.492 94.5809 15.492C94.0784 15.492 93.5531 15.4984 93.0084 15.5114L92.9824 15.2398L93.7606 15.0069C93.8708 14.9746 93.926 14.9067 93.9325 14.8097C93.9422 14.4669 93.9454 14.0498 93.9454 13.5518V8.42984C93.9454 8.00947 93.9422 7.65701 93.9325 7.38216C93.9292 7.27221 93.8773 7.20108 93.7801 7.16874L92.9954 6.92299L92.9824 6.65137C93.5271 6.66754 94.0524 6.67724 94.555 6.67724C95.0608 6.67724 95.5634 6.66754 96.0562 6.65137L96.0887 6.92299L95.3656 7.14287C95.2586 7.16874 95.2035 7.23341 95.2002 7.34012C95.1905 7.64408 95.1873 7.99977 95.1873 8.4072V10.5478H99.8012V8.4072C99.8012 7.99977 99.798 7.64408 99.7882 7.34012C99.785 7.23665 99.7299 7.16874 99.6229 7.14287L98.9193 6.92299L98.9063 6.65137C99.4218 6.66754 99.9309 6.67724 100.433 6.67724C100.936 6.67724 101.452 6.66754 101.98 6.65137L102.006 6.92299L101.208 7.16874C101.111 7.20108 101.059 7.27545 101.056 7.38216C101.046 7.66024 101.043 8.00947 101.043 8.42984V13.5551C101.043 14.053 101.046 14.4702 101.056 14.8129C101.059 14.9099 101.118 14.9746 101.228 15.0102L101.993 15.243L102.006 15.5146C101.448 15.5017 100.917 15.4952 100.411 15.4952C99.9082 15.4952 99.4154 15.5017 98.9355 15.5146L98.9095 15.243L99.6261 15.0231C99.7331 14.994 99.785 14.9229 99.7915 14.8097C99.8012 14.4734 99.8044 14.0563 99.8044 13.5583V11.1234H95.1873Z" fill="white"/>
<path d="M105.829 13.8461V14.8065C105.829 14.9164 105.887 14.9875 106.007 15.0199L106.711 15.2398L106.73 15.5114C106.228 15.4984 105.725 15.492 105.223 15.492C104.72 15.492 104.195 15.4984 103.65 15.5114L103.624 15.2398L104.402 15.0069C104.512 14.9746 104.568 14.9067 104.574 14.8097C104.584 14.4669 104.587 14.0498 104.587 13.5518V8.42984C104.587 8.00947 104.584 7.65701 104.574 7.38216C104.571 7.27221 104.519 7.20108 104.422 7.16874L103.637 6.92299L103.624 6.65137C104.169 6.66754 104.694 6.67724 105.197 6.67724C105.702 6.67724 106.205 6.66754 106.698 6.65137L106.73 6.92299L106.007 7.14287C105.9 7.16874 105.845 7.23341 105.842 7.34012C105.832 7.64408 105.829 7.99977 105.829 8.4072V12.9374L110.537 7.95773V7.34012C110.537 7.24311 110.478 7.17844 110.358 7.14287L109.655 6.92299L109.635 6.65137C110.151 6.66754 110.663 6.67724 111.172 6.67724C111.678 6.67724 112.194 6.66754 112.722 6.65137L112.748 6.92299L111.951 7.16874C111.853 7.20108 111.801 7.27545 111.798 7.38216C111.785 7.66024 111.779 8.00947 111.779 8.42984V13.5551C111.779 14.053 111.785 14.4702 111.798 14.8129C111.801 14.9099 111.86 14.9746 111.97 15.0102L112.735 15.243L112.748 15.5146C112.187 15.5017 111.652 15.4952 111.15 15.4952C110.644 15.4952 110.151 15.5017 109.671 15.5146L109.639 15.243L110.362 15.0231C110.469 14.994 110.521 14.9229 110.527 14.8097L110.54 13.5583V8.8696L105.829 13.8461Z" fill="white"/>
<path d="M116.558 11.3824V13.5554C116.558 13.8076 116.558 14.0339 116.562 14.2376C116.565 14.4414 116.568 14.6224 116.571 14.7874C116.575 14.9167 116.63 15.0008 116.737 15.0331L117.44 15.2401L117.46 15.5117C116.957 15.4987 116.455 15.4923 115.952 15.4923C115.44 15.4923 114.918 15.4987 114.379 15.5117L114.354 15.2401L115.132 15.0072C115.239 14.9781 115.294 14.9135 115.304 14.81C115.307 14.6418 115.31 14.4543 115.313 14.2441C115.317 14.0372 115.317 13.8043 115.317 13.5521V8.43014C115.317 8.21349 115.317 8.02271 115.313 7.8481C115.31 7.67672 115.307 7.51827 115.304 7.37923C115.3 7.26928 115.248 7.19815 115.151 7.16581L114.366 6.92006L114.354 6.64844C114.632 6.65814 114.901 6.66461 115.158 6.66784C115.414 6.67107 115.67 6.67431 115.923 6.67431C116.176 6.67431 116.425 6.67107 116.675 6.66784C116.922 6.66461 117.171 6.65814 117.427 6.64844L117.46 6.92006L116.737 7.13994C116.63 7.16581 116.575 7.23048 116.571 7.33719C116.568 7.48917 116.565 7.65408 116.562 7.82869C116.558 8.00654 116.558 8.19732 116.558 8.40427V10.823H117.223C117.418 10.823 117.593 10.8165 117.745 10.8036C117.901 10.7907 118.04 10.7615 118.17 10.713C118.3 10.6645 118.416 10.5966 118.517 10.5029C118.621 10.4123 118.718 10.2894 118.809 10.1342C118.899 9.97902 118.984 9.78824 119.065 9.55866C119.146 9.33231 119.227 9.05422 119.311 8.73086C119.395 8.39457 119.47 8.10678 119.535 7.87073C119.6 7.63468 119.665 7.44066 119.729 7.28545C119.794 7.13024 119.859 7.0106 119.927 6.92653C119.995 6.83922 120.073 6.77778 120.161 6.73574C120.248 6.69694 120.355 6.67107 120.478 6.66137C120.602 6.65167 120.748 6.64844 120.923 6.64844C121.283 6.64844 121.668 6.66461 122.083 6.70017L122.109 7.09144C121.818 7.10114 121.571 7.14318 121.37 7.22078C121.169 7.29839 120.997 7.41156 120.851 7.55707C120.705 7.70258 120.576 7.88043 120.465 8.09385C120.352 8.30726 120.238 8.54655 120.119 8.81817C120.031 9.01542 119.94 9.21267 119.846 9.40668C119.752 9.60069 119.655 9.78501 119.548 9.95962C119.441 10.1342 119.327 10.2959 119.204 10.4414C119.081 10.5902 118.942 10.7163 118.789 10.8198C119.094 11.266 119.373 11.7025 119.626 12.1294C119.879 12.5562 120.112 12.9474 120.329 13.3064C120.534 13.6394 120.715 13.9305 120.884 14.1859C121.049 14.4381 121.205 14.6354 121.351 14.7809C121.425 14.852 121.5 14.9135 121.571 14.9652C121.642 15.0169 121.717 15.059 121.792 15.0945C121.866 15.1301 121.947 15.1624 122.032 15.1851C122.116 15.211 122.213 15.2368 122.323 15.2595L122.343 15.5375C122.038 15.5763 121.785 15.5957 121.584 15.5957C121.412 15.5957 121.26 15.5925 121.127 15.5828C120.997 15.5731 120.877 15.5569 120.777 15.5311C120.673 15.5052 120.579 15.4729 120.498 15.4341C120.417 15.3953 120.336 15.3435 120.261 15.2789C120.07 15.1398 119.882 14.9329 119.697 14.658C119.512 14.3832 119.318 14.063 119.113 13.6912C118.948 13.4001 118.779 13.0962 118.611 12.7793C118.439 12.4624 118.254 12.152 118.05 11.8448C117.991 11.7575 117.94 11.6831 117.897 11.6217C117.855 11.5602 117.81 11.5117 117.761 11.4762C117.713 11.4406 117.658 11.4147 117.596 11.4018C117.534 11.3856 117.457 11.3792 117.359 11.3792H116.558V11.3824Z" fill="white"/>
<path d="M127.592 6.51562L130.406 14.2439C130.513 14.5349 130.607 14.7321 130.695 14.8356C130.782 14.9391 130.905 15.0167 131.064 15.0652L131.661 15.2431L131.674 15.5147C131.119 15.5017 130.607 15.4953 130.134 15.4953C129.651 15.4953 129.083 15.5017 128.428 15.5147L128.402 15.2431L129.005 15.0652C129.09 15.0361 129.151 15.0038 129.187 14.9682C129.223 14.9326 129.242 14.8777 129.242 14.8001C129.242 14.716 129.219 14.606 129.177 14.467C129.132 14.3312 129.07 14.1469 128.989 13.9205L128.393 12.2261H125.338L124.674 13.9141C124.586 14.1501 124.515 14.3377 124.463 14.4767C124.411 14.6157 124.388 14.7257 124.388 14.8065C124.388 14.8777 124.408 14.9326 124.45 14.9682C124.489 15.0038 124.55 15.0329 124.631 15.0587L125.222 15.2301L125.234 15.5147C124.635 15.5017 124.145 15.4953 123.766 15.4953C123.386 15.4953 122.962 15.5017 122.491 15.5147L122.459 15.2431L123.098 15.0458C123.26 14.9941 123.377 14.9165 123.451 14.813C123.526 14.7063 123.61 14.5446 123.704 14.3215L126.943 6.61263L127.592 6.51562ZM125.572 11.6538H128.182L126.946 8.17122L125.572 11.6538Z" fill="white"/>
<path d="M64.8995 22.7645L64.4748 24.3619L64.2219 24.4007L63.8425 22.4024L63.8814 22.3571C64.7634 22.1308 65.574 22.0176 66.3067 22.0176C67.2795 22.0176 68.022 22.1954 68.5408 22.5511C69.0595 22.9068 69.3157 23.4339 69.3157 24.1323C69.3157 24.6691 69.1665 25.1089 68.8682 25.4581C68.5699 25.8073 68.1582 26.0725 67.6361 26.2471C68.317 26.3635 68.8228 26.6222 69.1601 27.0135C69.4973 27.408 69.6626 27.8898 69.6626 28.4556C69.6626 29.3481 69.3384 30.0272 68.6899 30.4928C68.0414 30.9584 67.1627 31.1912 66.0571 31.1912C65.2919 31.1912 64.5169 31.0587 63.7323 30.7935L63.6934 30.7482L64.0176 28.5688L64.3094 28.5171L64.7601 30.3925C65.1946 30.5639 65.6518 30.6512 66.1284 30.6512C66.8093 30.6512 67.3378 30.4702 67.7139 30.1112C68.0901 29.7523 68.2781 29.2479 68.2781 28.6044C68.2781 27.9577 68.0836 27.4662 67.6977 27.1331C67.3119 26.8 66.7574 26.6319 66.0344 26.6319C65.8139 26.6319 65.5026 26.6675 65.0973 26.7321L65.0584 25.9852C65.5091 26.0402 65.8366 26.066 66.0344 26.066C66.6731 26.066 67.1465 25.9076 67.461 25.5907C67.7723 25.2738 67.9312 24.834 67.9312 24.2649C67.9312 23.6893 67.7723 23.2528 67.4513 22.9586C67.1335 22.6643 66.6893 22.5188 66.1187 22.5188C65.7199 22.5382 65.3146 22.6126 64.8995 22.7645Z" fill="white"/>
<path d="M71.7087 31.0232L71.1834 33.6909L70.8462 33.7361L70.4863 30.4929L70.5252 30.4476H71.5466C71.7963 30.1695 72.0232 29.8397 72.2243 29.4549C72.4383 29.0571 72.6328 28.6368 72.8046 28.1841C72.9765 27.7346 73.1256 27.2657 73.2521 26.7775C73.3786 26.2924 73.4856 25.8139 73.5731 25.3482C73.6606 24.8826 73.7255 24.4428 73.7676 24.0257C73.8098 23.6086 73.8325 23.2399 73.8325 22.9133C73.8325 22.8131 73.7709 22.7452 73.6477 22.7096L72.6587 22.4445L72.6458 22.1729C73.2197 22.189 73.6963 22.1987 74.0724 22.1987H77.1819C77.6877 22.1987 78.213 22.189 78.7545 22.1729L78.7804 22.4445L78.0022 22.6773C77.892 22.7161 77.8369 22.784 77.8304 22.881C77.8271 23.0492 77.8239 23.2367 77.8206 23.4436C77.8174 23.6506 77.8174 23.8802 77.8174 24.1324V29.2382C77.8174 29.4743 77.8174 29.6748 77.8206 29.8397C77.8239 30.0046 77.8271 30.1339 77.8304 30.2309C77.8336 30.3732 77.8823 30.4443 77.9698 30.4443H79.1176L79.1565 30.4896L78.8031 33.6876L78.4659 33.7329L77.9341 31.0232H71.7087ZM76.5756 30.4508V22.7775H74.5037C74.4583 23.421 74.3934 24.0742 74.3124 24.7338C74.2313 25.3935 74.1146 26.0467 73.9622 26.6999C73.8066 27.3498 73.6088 27.9901 73.3591 28.6206C73.1127 29.2512 72.7949 29.8591 72.4058 30.4508H76.5756Z" fill="white"/>
<path d="M89.5719 26.412C89.5719 27.8703 89.1568 29.0409 88.3268 29.9269C87.4967 30.8129 86.3359 31.2559 84.8477 31.2559C83.434 31.2559 82.3381 30.8452 81.5631 30.0271C80.7882 29.209 80.4023 28.0999 80.4023 26.6998C80.4023 25.2414 80.8174 24.0903 81.6539 23.2399C82.4872 22.3894 83.6447 21.9658 85.12 21.9658C86.537 21.9658 87.6362 22.3636 88.4078 23.1558C89.186 23.9545 89.5719 25.0377 89.5719 26.412ZM81.7933 26.4928C81.7933 27.8671 82.0722 28.918 82.6299 29.6488C83.1876 30.3796 84.0047 30.745 85.0811 30.745C86.1414 30.745 86.9228 30.4119 87.4286 29.749C87.9345 29.0862 88.1841 28.0449 88.1841 26.6254C88.1841 25.2932 87.915 24.2714 87.38 23.5535C86.845 22.8357 86.0149 22.48 84.8963 22.48C83.8101 22.48 83.0222 22.813 82.5294 23.4759C82.0365 24.1388 81.7933 25.1444 81.7933 26.4928Z" fill="white"/>
<path d="M93.407 29.0861C93.407 29.3383 93.407 29.5647 93.4102 29.7684C93.4135 29.9721 93.4167 30.15 93.42 30.3116C93.4232 30.4086 93.4783 30.4733 93.5853 30.5089L94.4608 30.774L94.4737 31.0457C93.8609 31.0327 93.3032 31.0263 92.8007 31.0263C92.2884 31.0263 91.7663 31.0327 91.2281 31.0457L91.2021 30.774L91.9803 30.5412C92.0906 30.5089 92.1457 30.441 92.1522 30.344C92.1554 30.1758 92.1587 29.9883 92.1619 29.7781C92.1651 29.5711 92.1651 29.3383 92.1651 29.0861V23.9609C92.1651 23.7442 92.1651 23.5535 92.1619 23.3788C92.1587 23.2075 92.1554 23.049 92.1522 22.91C92.1489 22.8 92.097 22.7289 91.9998 22.6966L91.2151 22.4508L91.2021 22.1792C91.7469 22.1954 92.2786 22.2051 92.7974 22.2051C93.1476 22.2051 93.4848 22.1954 93.809 22.1792C94.1333 22.163 94.4316 22.1533 94.7007 22.1533C95.7026 22.1533 96.4581 22.3473 96.9704 22.7386C97.4827 23.1266 97.7388 23.7087 97.7388 24.4783C97.7388 25.3837 97.4438 26.0886 96.8504 26.5898C96.2571 27.091 95.4238 27.3432 94.3538 27.3432C94.0587 27.3432 93.7442 27.3238 93.407 27.285V29.0861ZM93.407 26.7515C93.702 26.8032 93.9939 26.8258 94.2824 26.8258C94.9569 26.8258 95.4724 26.6512 95.8258 26.3052C96.1792 25.9592 96.3543 25.4257 96.3543 24.7111C96.3543 24.0256 96.1857 23.5114 95.8518 23.1751C95.5145 22.8388 94.986 22.6707 94.263 22.6707C93.9809 22.6707 93.6956 22.6869 93.407 22.7224V26.7515Z" fill="white"/>
<path d="M108.306 26.412C108.306 27.8703 107.891 29.0409 107.061 29.9269C106.231 30.8129 105.07 31.2559 103.582 31.2559C102.168 31.2559 101.072 30.8452 100.297 30.0271C99.5226 29.209 99.1367 28.0999 99.1367 26.6998C99.1367 25.2414 99.5517 24.0903 100.388 23.2399C101.222 22.3894 102.379 21.9658 103.854 21.9658C105.271 21.9658 106.371 22.3636 107.142 23.1558C107.92 23.9545 108.306 25.0377 108.306 26.412ZM100.528 26.4928C100.528 27.8671 100.807 28.918 101.364 29.6488C101.922 30.3796 102.739 30.745 103.816 30.745C104.876 30.745 105.657 30.4119 106.163 29.749C106.669 29.0862 106.918 28.0449 106.918 26.6254C106.918 25.2932 106.649 24.2714 106.114 23.5535C105.579 22.8357 104.749 22.48 103.631 22.48C102.544 22.48 101.757 22.813 101.264 23.4759C100.774 24.142 100.528 25.1444 100.528 26.4928Z" fill="white"/>
<path d="M109.937 22.1789C110.481 22.1951 111.016 22.2048 111.538 22.2048C111.736 22.1951 112.057 22.1854 112.498 22.166C112.939 22.1498 113.241 22.1401 113.393 22.1401C114.32 22.1401 115.021 22.3115 115.497 22.6543C115.971 22.997 116.211 23.4918 116.211 24.1353C116.211 25.1732 115.65 25.8782 114.531 26.2532C115.186 26.3632 115.689 26.6057 116.039 26.9808C116.389 27.3559 116.564 27.8345 116.564 28.4133C116.564 29.2572 116.256 29.9072 115.643 30.3696C115.027 30.832 114.178 31.0616 113.088 31.0616C112.871 31.0616 112.637 31.0551 112.385 31.0422C112.132 31.0292 111.85 31.0228 111.535 31.0228C111.023 31.0228 110.497 31.0292 109.962 31.0422L109.937 30.7706L110.715 30.5377C110.822 30.5086 110.877 30.444 110.887 30.3405C110.89 30.1723 110.893 29.9848 110.896 29.7746C110.9 29.5677 110.9 29.3348 110.9 29.0826V23.9606C110.9 23.744 110.9 23.5532 110.896 23.3786C110.893 23.2072 110.89 23.0488 110.887 22.9097C110.883 22.7998 110.831 22.7286 110.734 22.6963L109.949 22.4506L109.937 22.1789ZM112.141 26.1207C112.401 26.1239 112.667 26.1271 112.936 26.1271C113.558 26.1271 114.028 25.9784 114.346 25.6744C114.664 25.3737 114.823 24.9372 114.823 24.3648C114.823 23.7634 114.661 23.3301 114.333 23.0649C114.006 22.7998 113.539 22.6704 112.923 22.6704C112.813 22.6704 112.693 22.6737 112.563 22.6801C112.433 22.6866 112.291 22.6963 112.141 22.7157V26.1207ZM112.141 26.6251V30.4601C112.268 30.5054 112.414 30.5345 112.579 30.5474C112.744 30.5604 112.897 30.5668 113.036 30.5668C113.733 30.5668 114.265 30.3955 114.628 30.0495C114.991 29.7035 115.173 29.2023 115.173 28.5459C115.173 27.8894 114.988 27.4012 114.622 27.0843C114.252 26.7674 113.659 26.6057 112.838 26.6057C112.602 26.6089 112.368 26.6122 112.141 26.6251Z" fill="white"/>
<path d="M127.245 26.412C127.245 27.8703 126.83 29.0409 126 29.9269C125.17 30.8129 124.009 31.2559 122.521 31.2559C121.107 31.2559 120.011 30.8452 119.236 30.0271C118.461 29.209 118.075 28.0999 118.075 26.6998C118.075 25.2414 118.49 24.0903 119.327 23.2399C120.16 22.3894 121.318 21.9658 122.793 21.9658C124.21 21.9658 125.309 22.3636 126.081 23.1558C126.856 23.9545 127.245 25.0377 127.245 26.412ZM119.463 26.4928C119.463 27.8671 119.742 28.918 120.299 29.6488C120.857 30.3796 121.674 30.745 122.751 30.745C123.811 30.745 124.592 30.4119 125.098 29.749C125.604 29.0862 125.854 28.0449 125.854 26.6254C125.854 25.2932 125.585 24.2714 125.05 23.5535C124.515 22.8357 123.685 22.48 122.566 22.48C121.48 22.48 120.692 22.813 120.199 23.4759C119.706 24.1388 119.463 25.1444 119.463 26.4928Z" fill="white"/>
<path d="M131.081 29.3773V30.3377C131.081 30.4476 131.139 30.5188 131.259 30.5511L131.963 30.771L131.982 31.0426C131.48 31.0297 130.977 31.0232 130.474 31.0232C129.972 31.0232 129.447 31.0297 128.902 31.0426L128.876 30.771L129.654 30.5382C129.764 30.5058 129.82 30.4379 129.826 30.3409C129.836 29.9982 129.839 29.581 129.839 29.0831V23.9611C129.839 23.5407 129.836 23.1883 129.826 22.9134C129.823 22.8035 129.771 22.7323 129.674 22.7L128.889 22.4542L128.876 22.1826C129.421 22.1988 129.946 22.2085 130.449 22.2085C130.954 22.2085 131.457 22.1988 131.95 22.1826L131.982 22.4542L131.259 22.6741C131.152 22.7 131.097 22.7647 131.094 22.8714C131.084 23.1753 131.081 23.531 131.081 23.9385V28.4687L135.789 23.489V22.8714C135.789 22.7744 135.73 22.7097 135.61 22.6741L134.907 22.4542L134.887 22.1826C135.403 22.1988 135.915 22.2085 136.424 22.2085C136.93 22.2085 137.446 22.1988 137.974 22.1826L138 22.4542L137.202 22.7C137.105 22.7323 137.053 22.8067 137.05 22.9134C137.037 23.1915 137.031 23.5407 137.031 23.9611V29.0863C137.031 29.5843 137.037 30.0014 137.05 30.3442C137.053 30.4412 137.112 30.5058 137.222 30.5414L137.987 30.7742L138 31.0459C137.439 31.0329 136.904 31.0265 136.402 31.0265C135.899 31.0265 135.403 31.0329 134.923 31.0459L134.891 30.7742L135.614 30.5544C135.721 30.5252 135.773 30.4541 135.779 30.3409L135.792 29.0895V24.4009L131.081 29.3773Z" fill="white"/>
<path d="M68.6777 37.707C69.1349 37.7232 69.5986 37.7329 70.072 37.7329C70.5356 37.7329 70.9863 37.7232 71.4208 37.707L71.4468 37.9787L70.808 38.1824C70.714 38.2115 70.6361 38.247 70.5713 38.2923C70.5065 38.3376 70.4481 38.3893 70.3995 38.454C70.3508 38.5187 70.3054 38.593 70.2665 38.6771C70.2276 38.7644 70.1887 38.8647 70.1498 38.9843C69.9228 39.5954 69.6959 40.1904 69.4721 40.7692C69.2484 41.348 69.0182 41.9204 68.7815 42.4895C68.5448 43.0554 68.2984 43.6212 68.0422 44.1871C67.7861 44.753 67.517 45.3189 67.2349 45.8944C67.1214 46.1305 67.0209 46.3213 66.9366 46.4668C66.8523 46.6123 66.755 46.7287 66.6415 46.8128C66.528 46.9001 66.3951 46.9583 66.2394 46.9906C66.0838 47.023 65.8795 47.0391 65.6234 47.0391C65.2602 47.0391 64.8679 47.0068 64.4464 46.9454L64.4205 46.6737L64.8193 46.5994C65.1079 46.5476 65.3543 46.4668 65.5618 46.3504C65.7693 46.234 65.9541 46.0917 66.1195 45.9171C66.2848 45.7457 66.4372 45.5452 66.5799 45.3156C66.7226 45.0893 66.875 44.8371 67.0403 44.5622L64.1708 38.9875C64.1157 38.8841 64.0638 38.7838 64.0184 38.6965C63.973 38.6092 63.9211 38.5284 63.866 38.4605C63.8109 38.3893 63.7493 38.3311 63.6779 38.2794C63.6066 38.2276 63.5191 38.1888 63.4153 38.1597L62.8382 37.9819L62.8252 37.7103C63.2143 37.7264 63.7298 37.7361 64.3783 37.7361C64.8841 37.7361 65.484 37.7264 66.1778 37.7103L66.2038 37.9819L65.6072 38.1533C65.4288 38.1953 65.3413 38.2891 65.3413 38.4378C65.3413 38.5381 65.377 38.6609 65.4451 38.8064C65.5164 38.952 65.6007 39.1169 65.7012 39.3012L67.7342 43.2623C68.039 42.5897 68.3081 41.9333 68.5448 41.2963C68.7815 40.6593 69.0149 40.0255 69.2419 39.395C69.3424 39.1136 69.417 38.897 69.4624 38.7515C69.5078 38.606 69.5337 38.4896 69.5337 38.4055C69.5337 38.3376 69.5175 38.2858 69.4819 38.247C69.4494 38.2082 69.3878 38.1791 69.3035 38.1597L68.6875 38.0013L68.6777 37.707Z" fill="white"/>
<path d="M77.6527 39.6665V44.6138C77.6527 44.8661 77.6527 45.0956 77.6559 45.3058C77.6592 45.516 77.6624 45.7036 77.6656 45.8717C77.6689 45.9687 77.7305 46.0334 77.844 46.0657L78.6027 46.2985L78.6221 46.5702C78.0612 46.5572 77.5262 46.5508 77.0236 46.5508C76.5178 46.5508 76.025 46.5572 75.5386 46.5702L75.5127 46.2985L76.2357 46.0786C76.3427 46.0463 76.3946 45.9719 76.4011 45.8652C76.4043 45.6971 76.4076 45.5095 76.4108 45.3026C76.4141 45.0956 76.4141 44.8661 76.4141 44.6138V38.3084H74.2773C74.2514 38.9648 74.2027 39.6244 74.1282 40.2841C74.0536 40.9437 73.9434 41.5969 73.7975 42.2469C73.6515 42.8968 73.4667 43.5371 73.2398 44.1676C73.0128 44.8014 72.7339 45.419 72.4 46.0269C72.3351 46.1336 72.2768 46.2242 72.2184 46.305C72.16 46.3858 72.0855 46.4505 71.9947 46.5022C71.9006 46.554 71.7872 46.5928 71.6477 46.6187C71.5083 46.6445 71.33 46.6575 71.1095 46.6575C70.7723 46.6575 70.38 46.6187 69.9293 46.5443L69.9033 46.2727L70.2697 46.2048C70.4221 46.1789 70.5486 46.1498 70.6523 46.1174C70.7561 46.0851 70.8501 46.0431 70.9376 45.9946C71.0252 45.9461 71.1063 45.8879 71.1873 45.8135C71.2684 45.7424 71.3592 45.6486 71.4597 45.5354C71.7158 45.2541 71.9493 44.9275 72.1536 44.5589C72.3578 44.1902 72.5394 43.799 72.6983 43.3818C72.8572 42.9647 72.9933 42.5346 73.1101 42.0916C73.2268 41.6486 73.3208 41.2153 73.3922 40.7853C73.4635 40.3584 73.5154 39.9445 73.551 39.5436C73.5867 39.1426 73.6029 38.7805 73.6029 38.4506C73.6029 38.3536 73.5348 38.2857 73.3986 38.2502L72.4292 37.985L72.4162 37.7134C72.9868 37.7295 73.4375 37.7392 73.7715 37.7392H77.0172C77.523 37.7392 78.045 37.7295 78.5865 37.7134L78.6189 37.985L77.8407 38.2178C77.7337 38.2502 77.6754 38.3181 77.6624 38.4215C77.6592 38.5897 77.6559 38.7772 77.6527 38.9842C77.6527 39.1847 77.6527 39.4142 77.6527 39.6665Z" fill="white"/>
<path d="M82.4379 39.4629V41.5421C82.7751 41.5097 83.1058 41.4903 83.4301 41.4903C84.5195 41.4903 85.3366 41.6973 85.8781 42.1112C86.4196 42.5251 86.6887 43.1136 86.6887 43.8767C86.6887 44.365 86.5979 44.7821 86.4163 45.1281C86.2347 45.4741 85.9916 45.7522 85.6868 45.9688C85.382 46.1822 85.0221 46.3407 84.6135 46.4409C84.205 46.5412 83.777 46.5897 83.3231 46.5897C83.1188 46.5897 82.8951 46.5832 82.6486 46.5703C82.4055 46.5573 82.1299 46.5509 81.8283 46.5509C81.3128 46.5509 80.7875 46.5573 80.2525 46.5703L80.2266 46.2986L81.0047 46.0658C81.1117 46.0367 81.1669 45.9721 81.1766 45.8718C81.1798 45.7037 81.1831 45.5161 81.1863 45.3059C81.1896 45.099 81.1896 44.8662 81.1896 44.614V39.4887C81.1896 39.2753 81.1896 39.0813 81.1863 38.9067C81.1831 38.7353 81.1798 38.5769 81.1766 38.4378C81.1733 38.3279 81.1215 38.2567 81.0242 38.2244L80.2395 37.9787L80.2266 37.707C80.7713 37.7232 81.2966 37.7329 81.7991 37.7329C82.3049 37.7329 82.8497 37.7232 83.4333 37.707L83.4657 37.9787L82.6097 38.2309C82.5027 38.2697 82.4476 38.3343 82.4444 38.4281C82.4411 38.5769 82.4379 38.7353 82.4346 38.9099C82.4379 39.0878 82.4379 39.2721 82.4379 39.4629ZM82.4379 42.0562V45.9915C82.6486 46.0626 82.9307 46.0982 83.2809 46.0982C83.9521 46.0982 84.4579 45.9236 84.7951 45.5711C85.1323 45.2186 85.3009 44.7045 85.3009 44.0254C85.3009 43.3432 85.1226 42.8387 84.7659 42.5121C84.4093 42.1855 83.8516 42.0239 83.0961 42.0239C83.0021 42.0239 82.9015 42.0271 82.7881 42.0336C82.6778 42.04 82.5611 42.0465 82.4379 42.0562ZM89.2631 44.614C89.2631 44.8662 89.2631 45.0958 89.2664 45.3027C89.2696 45.5097 89.2729 45.6972 89.2761 45.8653C89.2794 45.9721 89.3539 46.0432 89.4966 46.0788L90.2132 46.2986L90.2261 46.5703C89.6814 46.5573 89.1562 46.5509 88.6503 46.5509C88.1413 46.5509 87.6193 46.5573 87.081 46.5703L87.0486 46.2986L87.8268 46.0658C87.937 46.0367 87.9954 45.9721 88.0051 45.8718C88.0083 45.7037 88.0116 45.5161 88.0148 45.3059C88.0181 45.099 88.0181 44.8662 88.0181 44.614V39.4887C88.0181 39.2753 88.0181 39.0813 88.0148 38.9067C88.0116 38.7353 88.0083 38.5769 88.0051 38.4378C88.0019 38.3279 87.9467 38.2567 87.8462 38.2244L87.068 37.9787L87.0486 37.707C87.5966 37.7232 88.1218 37.7329 88.6244 37.7329C89.1334 37.7329 89.6587 37.7232 90.2002 37.707L90.2261 37.9787L89.4415 38.2115C89.341 38.2373 89.2858 38.302 89.2761 38.4087C89.2729 38.5542 89.2696 38.7159 89.2664 38.8938C89.2631 39.0684 89.2631 39.2591 89.2631 39.4661V44.614Z" fill="white"/>
<path d="M96.9515 38.2952H94.043V41.5935C94.4516 41.5547 94.8504 41.5353 95.2395 41.5353C96.3646 41.5353 97.1882 41.7261 97.7167 42.1076C98.2452 42.4892 98.5078 43.0518 98.5078 43.7988C98.5078 44.6945 98.203 45.3865 97.5902 45.8683C96.9774 46.3501 96.1214 46.5926 95.0255 46.5926C94.8115 46.5926 94.5715 46.5861 94.3057 46.5732C94.043 46.5603 93.7512 46.5538 93.4335 46.5538C92.9212 46.5538 92.3991 46.5603 91.8609 46.5732L91.835 46.3016L92.6131 46.0688C92.7234 46.0364 92.7785 45.9685 92.785 45.8747C92.7882 45.7066 92.7915 45.5191 92.7947 45.3089C92.798 45.1019 92.798 44.8691 92.798 44.6169V39.4917C92.798 39.2782 92.798 39.0842 92.7947 38.9096C92.7915 38.7382 92.7882 38.5798 92.785 38.4407C92.7817 38.3308 92.7299 38.2597 92.6326 38.2273L91.8479 37.9816L91.835 37.71C92.3797 37.7261 92.9049 37.7358 93.4075 37.7358H95.0222C95.5475 37.7358 96.0501 37.7326 96.53 37.7294C97.0098 37.7261 97.5027 37.7197 98.0053 37.71L98.0442 37.7617L97.6259 39.8862L97.373 39.925L96.9515 38.2952ZM94.043 46.0235C94.3543 46.0752 94.6656 46.0979 94.9671 46.0979C95.674 46.0979 96.2122 45.9265 96.5818 45.587C96.9547 45.2442 97.1395 44.7333 97.1395 44.0445C97.1395 43.3752 96.9644 42.8772 96.6143 42.5506C96.2641 42.224 95.7096 42.0624 94.9477 42.0624C94.6915 42.0624 94.3867 42.0818 94.043 42.1206V46.0235Z" fill="white"/>
<path d="M102.23 42.4407V44.6137C102.23 44.8659 102.23 45.0922 102.233 45.2959C102.237 45.4997 102.24 45.6807 102.243 45.8456C102.246 45.975 102.302 46.0591 102.409 46.0914L103.112 46.3016L103.132 46.5732C102.629 46.5603 102.126 46.5538 101.624 46.5538C101.112 46.5538 100.59 46.5603 100.051 46.5732L100.025 46.3016L100.804 46.0688C100.911 46.0397 100.966 45.975 100.975 45.8747C100.979 45.7066 100.982 45.5191 100.985 45.3089C100.988 45.1019 100.988 44.8691 100.988 44.6169V39.4917C100.988 39.2782 100.988 39.0842 100.985 38.9096C100.982 38.7382 100.979 38.5798 100.975 38.4407C100.972 38.3308 100.92 38.2597 100.823 38.2273L100.038 37.9816L100.025 37.71C100.304 37.7197 100.573 37.7261 100.83 37.7294C101.086 37.7326 101.342 37.7358 101.595 37.7358C101.848 37.7358 102.097 37.7326 102.347 37.7294C102.593 37.7261 102.843 37.7197 103.099 37.71L103.132 37.9816L102.409 38.2015C102.302 38.2273 102.246 38.292 102.243 38.3955C102.24 38.5475 102.237 38.7124 102.233 38.887C102.23 39.0648 102.23 39.2556 102.23 39.4626V41.8813H102.895C103.089 41.8813 103.265 41.8748 103.417 41.8619C103.573 41.8489 103.712 41.8198 103.842 41.7713C103.971 41.7228 104.088 41.6549 104.189 41.5644C104.292 41.4738 104.39 41.351 104.48 41.1958C104.571 41.0405 104.656 40.8498 104.737 40.6202C104.818 40.3938 104.899 40.1157 104.983 39.7924C105.067 39.4561 105.142 39.1683 105.207 38.9323C105.272 38.6962 105.336 38.5022 105.401 38.347C105.466 38.1918 105.531 38.0721 105.599 37.988C105.667 37.9007 105.745 37.8393 105.833 37.7973C105.92 37.7585 106.027 37.7326 106.15 37.7229C106.274 37.7132 106.419 37.71 106.595 37.71C106.954 37.71 107.34 37.7261 107.755 37.7617L107.781 38.153C107.489 38.1627 107.243 38.2047 107.042 38.2823C106.841 38.3599 106.669 38.4731 106.523 38.6186C106.377 38.7641 106.248 38.942 106.137 39.1554C106.024 39.3688 105.91 39.6081 105.79 39.8797C105.703 40.0769 105.612 40.2742 105.518 40.4682C105.424 40.6622 105.327 40.8465 105.22 41.0211C105.113 41.1958 104.999 41.3574 104.876 41.5029C104.753 41.6517 104.613 41.7778 104.461 41.8813C104.766 42.3275 105.045 42.764 105.298 43.1909C105.55 43.6177 105.784 44.009 106.001 44.3679C106.205 44.701 106.387 44.992 106.556 45.2474C106.721 45.4996 106.877 45.6969 107.023 45.8424C107.097 45.9136 107.172 45.975 107.243 46.0267C107.314 46.0785 107.389 46.1205 107.463 46.1561C107.538 46.1916 107.619 46.2207 107.703 46.2466C107.788 46.2725 107.885 46.2983 107.995 46.321L108.015 46.5991C107.71 46.6379 107.457 46.6573 107.256 46.6573C107.084 46.6573 106.932 46.654 106.799 46.6443C106.669 46.6346 106.549 46.6185 106.449 46.5926C106.345 46.5667 106.251 46.5344 106.17 46.4956C106.089 46.4568 106.008 46.4051 105.933 46.3404C105.742 46.2013 105.554 45.9944 105.369 45.7228C105.184 45.4479 104.99 45.1278 104.785 44.7559C104.62 44.4649 104.451 44.161 104.283 43.8473C104.111 43.5304 103.926 43.22 103.722 42.9128C103.663 42.8255 103.611 42.7511 103.569 42.6897C103.527 42.6282 103.482 42.5797 103.433 42.5442C103.385 42.5086 103.329 42.4827 103.268 42.4698C103.206 42.4536 103.128 42.4472 103.031 42.4472H102.23V42.4407Z" fill="white"/>
<path d="M111.312 44.905V45.8653C111.312 45.9753 111.371 46.0464 111.491 46.0788L112.194 46.2986L112.214 46.5703C111.711 46.5573 111.208 46.5509 110.706 46.5509C110.203 46.5509 109.678 46.5573 109.133 46.5703L109.107 46.2986L109.886 46.0658C109.996 46.0335 110.051 45.9656 110.057 45.8718C110.067 45.5291 110.07 45.1119 110.07 44.614V39.4887C110.07 39.0684 110.067 38.7191 110.057 38.4411C110.054 38.3311 110.002 38.26 109.905 38.2276L109.12 37.9819L109.107 37.7103C109.652 37.7264 110.177 37.7361 110.68 37.7361C111.186 37.7361 111.688 37.7264 112.181 37.7103L112.214 37.9819L111.491 38.2018C111.384 38.2276 111.328 38.2923 111.325 38.3958C111.315 38.6997 111.312 39.0554 111.312 39.4629V43.9931L116.02 39.0134V38.3926C116.02 38.2955 115.962 38.2309 115.842 38.1985L115.138 37.9787L115.119 37.707C115.634 37.7232 116.147 37.7329 116.656 37.7329C117.162 37.7329 117.677 37.7232 118.206 37.707L118.232 37.9787L117.434 38.2244C117.337 38.2567 117.285 38.3279 117.282 38.4378C117.269 38.7159 117.262 39.0651 117.262 39.4855V44.6107C117.262 45.1087 117.269 45.5258 117.282 45.8686C117.285 45.9656 117.343 46.0303 117.453 46.0626L118.219 46.2954L118.232 46.567C117.671 46.5541 117.136 46.5476 116.633 46.5476C116.127 46.5476 115.634 46.5541 115.155 46.567L115.122 46.2954L115.845 46.0755C115.952 46.0464 116.004 45.9753 116.011 45.8621L116.023 44.6107V39.922L111.312 44.905Z" fill="white"/>
<path d="M39.457 23.7835C39.4537 23.7089 39.4472 23.6376 39.4472 23.563C39.4472 23.6376 39.4407 23.7089 39.4375 23.7835H39.457Z" fill="white"/>
<path d="M40.267 13.8496C40.267 16.1519 38.3962 18.0145 36.0908 18.0145C38.3994 18.0145 40.267 19.8802 40.267 22.1793C40.267 19.9514 42.0212 18.1373 44.226 18.0242V18.0015C42.0212 17.8916 40.267 16.0775 40.267 13.8496Z" fill="white"/>
<path d="M133.48 18.0952C133.48 19.0039 132.741 19.7411 131.83 19.7411C132.741 19.7411 133.48 20.4784 133.48 21.387C133.48 20.5075 134.174 19.7896 135.043 19.7443V19.7346C134.174 19.6894 133.48 18.9747 133.48 18.0952Z" fill="white"/>
<path d="M39.4346 15.0137C39.4378 15.0882 39.4443 15.1596 39.4443 15.2342C39.4443 15.1596 39.4508 15.0882 39.454 15.0137H39.4346Z" fill="white"/>
<path d="M25.5696 0C11.4716 0 0 11.4404 0 25.5C0 39.5596 11.4716 51 25.5696 51C39.6676 51 51.1392 39.5596 51.1392 25.5C51.1392 11.4404 39.6708 0 25.5696 0ZM25.5696 49.4317C15.3658 49.4317 6.6372 43.0454 3.17107 34.0722C7.24678 35.3851 11.6694 35.8507 16.1991 35.2848C25.7447 34.0916 33.6821 28.5784 38.309 20.9633C33.614 26.1855 27.0903 29.8136 19.5647 30.7546C13.1577 31.5597 6.96793 30.2986 1.66335 27.4951C1.60823 26.8387 1.57257 26.1726 1.57257 25.5C1.57257 12.3038 12.3374 1.56829 25.5696 1.56829C38.8019 1.56829 49.5666 12.3038 49.5666 25.5C49.5666 38.6962 38.8019 49.4317 25.5696 49.4317Z" fill="white"/>
</svg>
