<svg width="45" height="50" viewBox="0 0 45 50" fill="none" xmlns="http://www.w3.org/2000/svg">
<circle cx="22.5" cy="22.5" r="22.5" fill="#B19578"/>
<path d="M22.7416 50L0 22H44L22.7416 50Z" fill="#B19578"/>
<path d="M33.1339 14.0479C33.1339 15.7182 31.7803 17.0694 30.1123 17.0694C31.7826 17.0694 33.1339 18.423 33.1339 20.091C33.1339 18.4746 34.403 17.1586 35.9982 17.0764V17.06C34.403 16.9803 33.1339 15.6642 33.1339 14.0479Z" fill="white"/>
<path d="M22.5 4C12.2999 4 4 12.2999 4 22.5C4 32.7001 12.2999 41 22.5 41C32.7001 41 41 32.7001 41 22.5C41 12.2999 32.7024 4 22.5 4ZM22.5 39.8622C15.1174 39.8622 8.80212 35.229 6.29432 28.7191C9.24315 29.6715 12.443 30.0093 15.7203 29.5988C22.6267 28.7331 28.3695 24.7333 31.7172 19.2087C28.3203 22.9973 23.6002 25.6295 18.1553 26.3121C13.5198 26.8963 9.0414 25.9814 5.20346 23.9474C5.16358 23.4712 5.13778 22.988 5.13778 22.5C5.13778 12.9263 12.9263 5.13778 22.5 5.13778C32.0737 5.13778 39.8622 12.9263 39.8622 22.5C39.8622 32.0737 32.0737 39.8622 22.5 39.8622Z" fill="white"/>
</svg>
