<svg width="33" height="28" viewBox="0 0 33 28" fill="none" xmlns="http://www.w3.org/2000/svg">
<path fill-rule="evenodd" clip-rule="evenodd" d="M2.58053 11.6834C11.3261 7.87305 17.1579 5.36106 20.0759 4.14738C28.4072 0.682103 30.1384 0.0801475 31.2667 0.0602705C31.5149 0.0558988 32.0698 0.117403 32.4292 0.40906C32.7327 0.65533 32.8162 0.988006 32.8562 1.2215C32.8961 1.45499 32.9459 1.98689 32.9064 2.4025C32.4549 7.1462 30.5013 18.6579 29.5075 23.9709C29.087 26.2191 28.2589 26.9729 27.4573 27.0466C25.7151 27.207 24.3922 25.8953 22.7048 24.7892C20.0644 23.0584 18.5728 21.981 16.0098 20.292C13.0479 18.3402 14.968 17.2674 16.656 15.5142C17.0978 15.0553 24.7737 8.07344 24.9223 7.44007C24.9409 7.36086 24.9581 7.06559 24.7827 6.90968C24.6073 6.75376 24.3484 6.80708 24.1616 6.84948C23.8968 6.90959 19.6787 9.69756 11.5074 15.2134C10.3101 16.0356 9.22566 16.4361 8.25402 16.4151C7.18286 16.392 5.12239 15.8095 3.59064 15.3116C1.71188 14.7009 0.218689 14.378 0.348713 13.3408C0.416438 12.8006 1.16038 12.2481 2.58053 11.6834Z" fill="white"/>
</svg>
