<svg width="38" height="37" viewBox="0 0 38 37" fill="none" xmlns="http://www.w3.org/2000/svg">
<path d="M0.802246 36.4537L3.37458 27.1127C1.78425 24.371 0.949982 21.266 0.958672 18.0918C0.958672 8.14543 9.09281 0.0585938 19.078 0.0585938C23.9272 0.0585938 28.4809 1.93543 31.8962 5.34315C35.3202 8.75086 37.206 13.2829 37.1973 18.1005C37.1973 28.0468 29.0632 36.1337 19.0693 36.1337H19.0606C16.0277 36.1337 13.0469 35.3726 10.3964 33.9368L0.802246 36.4537ZM10.8569 30.6761L11.4044 31.0048C13.7161 32.3713 16.3666 33.0892 19.0693 33.0979H19.078C27.3772 33.0979 34.1383 26.3776 34.1383 18.1091C34.1383 14.1046 32.574 10.3423 29.7323 7.5054C26.8906 4.66852 23.1016 3.1117 19.078 3.1117C10.7787 3.10305 4.01766 9.82334 4.01766 18.0918C4.01766 20.92 4.80848 23.6791 6.3206 26.0662L6.6769 26.637L5.1561 32.1638L10.8569 30.6761Z" fill="white"/>
<path d="M1.43652 35.8223L3.92195 26.8013C2.38377 24.1634 1.57557 21.1622 1.57557 18.1004C1.58426 8.50001 9.43162 0.689941 19.0779 0.689941C23.7619 0.689941 28.1506 2.50624 31.4529 5.79287C34.7552 9.07949 36.5715 13.4559 36.5715 18.1091C36.5715 27.7095 28.7154 35.5196 19.0779 35.5196H19.0692C16.1405 35.5196 13.264 34.7844 10.7091 33.4005L1.43652 35.8223Z" fill="#715435"/>
<path d="M0.802246 36.4537L3.37458 27.1127C1.78425 24.371 0.949982 21.266 0.958672 18.0918C0.958672 8.14543 9.09281 0.0585938 19.078 0.0585938C23.9272 0.0585938 28.4809 1.93543 31.8962 5.34315C35.3202 8.75086 37.206 13.2829 37.1973 18.1005C37.1973 28.0468 29.0632 36.1337 19.0693 36.1337H19.0606C16.0277 36.1337 13.0469 35.3726 10.3964 33.9368L0.802246 36.4537ZM10.8569 30.6761L11.4044 31.0048C13.7161 32.3713 16.3666 33.0892 19.0693 33.0979H19.078C27.3772 33.0979 34.1383 26.3776 34.1383 18.1091C34.1383 14.1046 32.574 10.3423 29.7323 7.5054C26.8906 4.66852 23.1016 3.1117 19.078 3.1117C10.7787 3.10305 4.01766 9.82334 4.01766 18.0918C4.01766 20.92 4.80848 23.6791 6.3206 26.0662L6.6769 26.637L5.1561 32.1638L10.8569 30.6761Z" fill="url(#paint0_linear_526_2)"/>
<path fill-rule="evenodd" clip-rule="evenodd" d="M14.5504 10.5498C14.2115 9.79729 13.8552 9.77999 13.5336 9.77134C13.2729 9.7627 12.9688 9.7627 12.6646 9.7627C12.3604 9.7627 11.8738 9.87513 11.4566 10.3249C11.0395 10.7746 9.875 11.8644 9.875 14.0872C9.875 16.3014 11.5001 18.4463 11.726 18.749C11.952 19.0517 14.8632 23.7482 19.4604 25.5558C23.2842 27.0607 24.0663 26.758 24.8919 26.6802C25.7174 26.6023 27.5685 25.5904 27.9509 24.5352C28.3245 23.48 28.3245 22.5805 28.2116 22.3903C28.0986 22.2 27.7944 22.0876 27.3425 21.8627C26.8906 21.6378 24.6659 20.548 24.2488 20.3923C23.8316 20.2453 23.5275 20.1675 23.232 20.6172C22.9279 21.067 22.0588 22.0789 21.7981 22.3816C21.5374 22.6843 21.268 22.7189 20.8161 22.4941C20.3642 22.2692 18.9042 21.7935 17.1749 20.254C15.8279 19.0604 14.9154 17.5814 14.6547 17.1317C14.394 16.6819 14.6286 16.4397 14.8546 16.2149C15.0544 16.0159 15.3064 15.6873 15.5324 15.4278C15.7583 15.1683 15.8366 14.9781 15.9843 14.6753C16.132 14.3726 16.0625 14.1132 15.9495 13.8883C15.8366 13.6721 14.9501 11.4406 14.5504 10.5498Z" fill="white"/>
<defs>
<linearGradient id="paint0_linear_526_2" x1="19.0033" y1="36.4502" x2="19.0033" y2="0.0585938" gradientUnits="userSpaceOnUse">
<stop stop-color="#F9F9F9"/>
<stop offset="1" stop-color="white"/>
</linearGradient>
</defs>
</svg>
