<svg width="74" height="73" viewBox="0 0 74 73" fill="none" xmlns="http://www.w3.org/2000/svg">
<path d="M59.2992 36.5426L68.5178 27.2577C74.4711 21.0905 74.4711 11.3015 68.5178 5.4076C62.3057 -0.469201 52.6424 -0.469201 46.4131 5.4076L37.229 15M15.2015 36.3925L5.67202 45.7765C-0.55734 51.9095 -0.55734 61.4422 5.67202 67.5924C11.6253 73.4692 21.5129 73.4692 27.4661 67.5924L36.9956 58.2426M18.0481 39.5L5.67202 27.2577C-0.55734 21.0905 -0.55734 11.3015 5.67202 5.4076C11.6253 -0.469201 21.5129 -0.469201 27.4661 5.4076L39.912 17.6361M18.0481 39.5L39.912 17.6361M18.0481 39.5L33.5796 54.8636M39.912 17.6361L55.4956 32.9476M55.4956 32.9476L68.5351 45.7594C74.4883 51.8924 74.4883 61.4252 68.5351 67.5753C62.323 73.4521 52.6597 73.4521 46.4303 67.5753L33.5796 54.8636M55.4956 32.9476L33.5796 54.8636" stroke="#B19578" stroke-width="2"/>
<circle cx="57.4804" cy="56.3822" r="1.5" transform="rotate(-46 57.4804 56.3822)" stroke="#B19578"/>
<circle cx="50.287" cy="49.4356" r="1.5" transform="rotate(-46 50.287 49.4356)" stroke="#B19578"/>
<circle cx="46.119" cy="53.7517" r="1.5" transform="rotate(-46 46.119 53.7517)" stroke="#B19578"/>
<circle cx="54.455" cy="45.1196" r="1.5" transform="rotate(-46 54.455 45.1196)" stroke="#B19578"/>
<circle cx="55.9677" cy="50.7509" r="1.5" transform="rotate(-46 55.9677 50.7509)" stroke="#B19578"/>
<circle cx="51.7997" cy="55.067" r="1.5" transform="rotate(-46 51.7997 55.067)" stroke="#B19578"/>
<circle cx="16.3601" cy="16.3641" r="1.5" transform="rotate(135 16.3601 16.3641)" stroke="#B19578"/>
<circle cx="23.4314" cy="23.4351" r="1.5" transform="rotate(135 23.4314 23.4351)" stroke="#B19578"/>
<circle cx="27.6736" cy="19.1925" r="1.5" transform="rotate(135 27.6736 19.1925)" stroke="#B19578"/>
<circle cx="19.1882" cy="27.6777" r="1.5" transform="rotate(135 19.1882 27.6777)" stroke="#B19578"/>
<circle cx="17.7742" cy="22.0209" r="1.5" transform="rotate(135 17.7742 22.0209)" stroke="#B19578"/>
<circle cx="22.0174" cy="17.7783" r="1.5" transform="rotate(135 22.0174 17.7783)" stroke="#B19578"/>
</svg>
