<svg width="107" height="89" viewBox="0 0 107 89" fill="none" xmlns="http://www.w3.org/2000/svg">
<path d="M57.47 56.7376L69.7322 39.8497C75.8976 31.3586 73.9887 19.5096 65.4686 13.3843L62.2786 11.0909C53.7585 4.96555 41.8535 6.88343 35.6882 15.3746L23.426 32.2624M57.47 56.7376L45.2078 73.6254C39.0425 82.1166 27.1375 84.0344 18.6174 77.9091L15.4274 75.6157C6.90733 69.4904 4.99846 57.6414 11.1638 49.1503L23.426 32.2624M57.47 56.7376L23.426 32.2624" stroke="#B19578" stroke-width="2"/>
<path d="M76.9756 64.6783H101.024M106 64.6783C106 74.0207 98.3888 81.5942 89 81.5942C79.6112 81.5942 72 74.0207 72 64.6783C72 55.3359 79.6112 47.7625 89 47.7625C98.3888 47.7625 106 55.3359 106 64.6783Z" stroke="#B19578" stroke-width="2" stroke-linecap="round"/>
</svg>
